<svg xmlns="http://www.w3.org/2000/svg" xmlns:xlink="http://www.w3.org/1999/xlink" width="500" zoomAndPan="magnify" viewBox="0 0 375 374.999991" height="500" preserveAspectRatio="xMidYMid meet" version="1.0"><defs><clipPath id="c71208f3e1"><path d="M 3.515625 175 L 81 175 L 81 193 L 3.515625 193 Z M 3.515625 175 " clip-rule="nonzero"/></clipPath><clipPath id="7951532620"><path d="M 295 175 L 371.765625 175 L 371.765625 193 L 295 193 Z M 295 175 " clip-rule="nonzero"/></clipPath><clipPath id="ab1e7fa730"><path d="M 187.5 54 L 190 54 L 190 56 L 187.5 56 Z M 187.5 54 " clip-rule="nonzero"/></clipPath><clipPath id="5546cdb436"><path d="M 193 54 L 195 54 L 195 56 L 193 56 Z M 193 54 " clip-rule="nonzero"/></clipPath><clipPath id="b082498718"><path d="M 191 51.390625 L 192 51.390625 L 192 53 L 191 53 Z M 191 51.390625 " clip-rule="nonzero"/></clipPath><clipPath id="6ec9f9a981"><path d="M 189 57 L 191 57 L 191 58.890625 L 189 58.890625 Z M 189 57 " clip-rule="nonzero"/></clipPath><clipPath id="c4a8199398"><path d="M 191 57 L 193 57 L 193 58.890625 L 191 58.890625 Z M 191 57 " clip-rule="nonzero"/></clipPath></defs><path fill="#100f0d" d="M 187.730469 257.828125 C 147.015625 257.828125 113.898438 224.726562 113.898438 184.046875 C 113.898438 143.371094 147.015625 110.269531 187.730469 110.269531 C 228.445312 110.269531 261.5625 143.371094 261.5625 184.046875 C 261.5625 224.726562 228.445312 257.828125 187.730469 257.828125 Z M 279.433594 184.046875 C 279.433594 133.523438 238.289062 92.421875 187.730469 92.421875 C 137.167969 92.421875 96.027344 133.523438 96.027344 184.046875 C 96.027344 234.574219 137.167969 275.675781 187.730469 275.675781 C 238.289062 275.675781 279.433594 234.574219 279.433594 184.046875 " fill-opacity="1" fill-rule="nonzero"/><g clip-path="url(#c71208f3e1)"><path fill="#100f0d" d="M 80.421875 184.046875 C 80.421875 179.152344 76.460938 175.1875 71.558594 175.1875 L 12.441406 175.1875 C 7.546875 175.1875 3.570312 179.152344 3.570312 184.046875 C 3.570312 188.945312 7.546875 192.910156 12.441406 192.910156 L 71.558594 192.910156 C 76.460938 192.910156 80.421875 188.945312 80.421875 184.046875 " fill-opacity="1" fill-rule="nonzero"/></g><g clip-path="url(#7951532620)"><path fill="#100f0d" d="M 363.019531 175.1875 L 303.902344 175.1875 C 301.453125 175.1875 299.238281 176.183594 297.632812 177.785156 C 296.027344 179.382812 295.039062 181.597656 295.039062 184.046875 C 295.039062 188.945312 299.007812 192.910156 303.902344 192.910156 L 363.027344 192.910156 C 367.921875 192.910156 371.886719 188.945312 371.886719 184.046875 C 371.890625 179.152344 367.921875 175.1875 363.019531 175.1875 " fill-opacity="1" fill-rule="nonzero"/></g><path fill="#100f0d" d="M 95.867188 104.789062 C 99.332031 108.25 104.949219 108.246094 108.40625 104.789062 C 111.871094 101.328125 111.871094 95.722656 108.40625 92.257812 L 66.605469 50.488281 C 63.140625 47.027344 57.53125 47.027344 54.066406 50.488281 C 50.601562 53.945312 50.601562 59.558594 54.066406 63.011719 L 95.867188 104.789062 " fill-opacity="1" fill-rule="nonzero"/><path fill="#100f0d" d="M 279.585938 263.308594 C 277.855469 261.578125 275.589844 260.714844 273.324219 260.714844 C 271.050781 260.714844 268.785156 261.578125 267.054688 263.308594 C 263.589844 266.769531 263.589844 272.382812 267.054688 275.839844 L 308.855469 317.605469 C 312.320312 321.070312 317.929688 321.070312 321.394531 317.605469 C 324.859375 314.152344 324.859375 308.539062 321.394531 305.078125 L 279.585938 263.308594 " fill-opacity="1" fill-rule="nonzero"/><path fill="#100f0d" d="M 187.730469 76.828125 C 192.625 76.828125 196.59375 72.859375 196.59375 67.960938 L 196.59375 8.890625 C 196.59375 3.996094 192.625 0.03125 187.730469 0.03125 C 182.835938 0.03125 178.867188 3.996094 178.867188 8.890625 L 178.867188 67.960938 C 178.867188 72.859375 182.835938 76.828125 187.730469 76.828125 " fill-opacity="1" fill-rule="nonzero"/><path fill="#100f0d" d="M 279.59375 104.789062 L 321.394531 63.011719 C 324.859375 59.558594 324.859375 53.945312 321.394531 50.484375 C 317.929688 47.027344 312.320312 47.027344 308.855469 50.484375 L 267.054688 92.257812 C 263.589844 95.722656 263.589844 101.328125 267.054688 104.789062 C 270.511719 108.246094 276.128906 108.246094 279.59375 104.789062 " fill-opacity="1" fill-rule="nonzero"/><path fill="#100f0d" d="M 95.867188 263.308594 L 54.066406 305.078125 C 50.609375 308.539062 50.601562 314.152344 54.066406 317.605469 C 57.53125 321.070312 63.140625 321.070312 66.605469 317.605469 L 108.414062 275.839844 C 110.140625 274.105469 111.007812 271.84375 111.007812 269.574219 C 111.007812 267.300781 110.140625 265.039062 108.40625 263.308594 C 104.949219 259.84375 99.332031 259.84375 95.867188 263.308594 " fill-opacity="1" fill-rule="nonzero"/><path fill="#100f0d" d="M 167.136719 301.09375 C 164.082031 301.09375 162.195312 302.488281 161.136719 303.675781 C 159.765625 305.222656 159.046875 307.226562 159.046875 309.46875 L 159.046875 345.316406 C 159.046875 347.859375 158.476562 350.074219 157.296875 352.058594 C 156.113281 354.070312 154.585938 355.578125 152.621094 356.675781 C 148.792969 358.835938 144.042969 358.960938 140.117188 356.691406 C 138.222656 355.605469 136.726562 354.097656 135.570312 352.085938 C 134.414062 350.097656 133.851562 347.882812 133.851562 345.316406 L 133.851562 309.46875 C 133.851562 307.164062 132.96875 305.097656 131.300781 303.476562 C 127.898438 300.242188 122.46875 300.492188 119.40625 303.449219 C 117.777344 305.027344 116.90625 307.109375 116.90625 309.46875 L 116.90625 345.316406 C 116.90625 350.882812 118.175781 355.976562 120.667969 360.460938 C 123.191406 364.988281 126.734375 368.589844 131.207031 371.140625 C 135.632812 373.6875 140.683594 374.96875 146.210938 374.96875 C 151.679688 374.96875 156.6875 373.679688 161.101562 371.136719 C 165.53125 368.585938 169.058594 364.988281 171.5625 360.460938 C 174.066406 355.976562 175.332031 350.882812 175.332031 345.316406 L 175.332031 309.46875 C 175.332031 307.191406 174.574219 305.160156 173.128906 303.605469 C 171.613281 301.964844 169.542969 301.09375 167.136719 301.09375 " fill-opacity="1" fill-rule="nonzero"/><path fill="#100f0d" d="M 245.457031 302.925781 C 244.203125 303.800781 243.199219 304.984375 242.359375 306.714844 L 226.605469 346.101562 L 209.921875 306.6875 C 208.414062 303.261719 205.683594 301.375 202.242188 301.375 C 200.179688 301.375 198.230469 302.132812 196.625 303.535156 C 194.8125 305.089844 193.867188 307.207031 193.867188 309.652344 C 193.867188 311.046875 194.125 312.289062 194.539062 313.121094 L 218.464844 369.71875 C 219.207031 371.207031 220.238281 372.402344 221.5625 373.265625 C 222.832031 374.101562 224.214844 374.570312 225.976562 374.6875 C 227.554688 374.6875 229.082031 374.246094 230.554688 373.355469 C 232 372.453125 233.121094 371.175781 233.957031 369.417969 L 257.773438 313.113281 C 258.292969 311.886719 258.546875 310.691406 258.546875 309.5625 C 258.546875 307.269531 257.640625 305.238281 255.902344 303.6875 C 253.105469 301.160156 248.679688 300.6875 245.457031 302.925781 " fill-opacity="1" fill-rule="nonzero"/><path fill="#100f0d" d="M 191.25 56.546875 C 190.421875 56.546875 189.75 55.882812 189.75 55.070312 C 189.75 54.257812 190.421875 53.59375 191.25 53.59375 C 192.082031 53.59375 192.753906 54.257812 192.753906 55.070312 C 192.753906 55.882812 192.082031 56.546875 191.25 56.546875 Z M 193.121094 55.070312 C 193.121094 54.058594 192.28125 53.238281 191.25 53.238281 C 190.222656 53.238281 189.382812 54.058594 189.382812 55.070312 C 189.382812 56.082031 190.222656 56.902344 191.25 56.902344 C 192.28125 56.902344 193.121094 56.082031 193.121094 55.070312 " fill-opacity="1" fill-rule="nonzero"/><g clip-path="url(#ab1e7fa730)"><path fill="#100f0d" d="M 189.066406 55.070312 C 189.066406 54.972656 188.984375 54.894531 188.886719 54.894531 L 187.683594 54.894531 C 187.582031 54.894531 187.5 54.972656 187.5 55.070312 C 187.5 55.167969 187.582031 55.246094 187.683594 55.246094 L 188.886719 55.246094 C 188.984375 55.246094 189.066406 55.167969 189.066406 55.070312 " fill-opacity="1" fill-rule="nonzero"/></g><g clip-path="url(#5546cdb436)"><path fill="#100f0d" d="M 194.820312 54.894531 L 193.617188 54.894531 C 193.566406 54.894531 193.523438 54.914062 193.488281 54.945312 C 193.457031 54.976562 193.4375 55.019531 193.4375 55.070312 C 193.4375 55.167969 193.519531 55.246094 193.617188 55.246094 L 194.820312 55.246094 C 194.921875 55.246094 195.003906 55.167969 195.003906 55.070312 C 195.003906 54.972656 194.921875 54.894531 194.820312 54.894531 " fill-opacity="1" fill-rule="nonzero"/></g><path fill="#100f0d" d="M 189.382812 53.484375 C 189.453125 53.554688 189.566406 53.554688 189.636719 53.484375 C 189.707031 53.414062 189.707031 53.304688 189.636719 53.234375 L 188.785156 52.398438 C 188.714844 52.328125 188.601562 52.328125 188.53125 52.398438 C 188.460938 52.46875 188.460938 52.578125 188.53125 52.648438 L 189.382812 53.484375 " fill-opacity="1" fill-rule="nonzero"/><path fill="#100f0d" d="M 193.121094 56.65625 C 193.085938 56.621094 193.042969 56.601562 192.996094 56.601562 C 192.949219 56.601562 192.902344 56.621094 192.867188 56.65625 C 192.796875 56.722656 192.796875 56.835938 192.867188 56.90625 L 193.71875 57.742188 C 193.789062 57.808594 193.902344 57.808594 193.972656 57.742188 C 194.042969 57.671875 194.042969 57.558594 193.972656 57.492188 L 193.121094 56.65625 " fill-opacity="1" fill-rule="nonzero"/><g clip-path="url(#b082498718)"><path fill="#100f0d" d="M 191.25 52.925781 C 191.351562 52.925781 191.433594 52.847656 191.433594 52.746094 L 191.433594 51.566406 C 191.433594 51.46875 191.351562 51.390625 191.25 51.390625 C 191.152344 51.390625 191.070312 51.46875 191.070312 51.566406 L 191.070312 52.746094 C 191.070312 52.847656 191.152344 52.925781 191.25 52.925781 " fill-opacity="1" fill-rule="nonzero"/></g><path fill="#100f0d" d="M 193.121094 53.484375 L 193.972656 52.648438 C 194.042969 52.578125 194.042969 52.46875 193.972656 52.398438 C 193.902344 52.328125 193.789062 52.328125 193.71875 52.398438 L 192.867188 53.234375 C 192.796875 53.304688 192.796875 53.414062 192.867188 53.484375 C 192.9375 53.554688 193.050781 53.554688 193.121094 53.484375 " fill-opacity="1" fill-rule="nonzero"/><path fill="#100f0d" d="M 189.382812 56.65625 L 188.53125 57.492188 C 188.460938 57.558594 188.460938 57.671875 188.53125 57.742188 C 188.601562 57.808594 188.714844 57.808594 188.785156 57.742188 L 189.636719 56.90625 C 189.671875 56.871094 189.6875 56.824219 189.6875 56.78125 C 189.6875 56.734375 189.671875 56.691406 189.636719 56.65625 C 189.566406 56.585938 189.453125 56.585938 189.382812 56.65625 " fill-opacity="1" fill-rule="nonzero"/><g clip-path="url(#6ec9f9a981)"><path fill="#100f0d" d="M 190.832031 57.410156 C 190.769531 57.410156 190.730469 57.4375 190.710938 57.460938 C 190.683594 57.492188 190.667969 57.535156 190.667969 57.578125 L 190.667969 58.296875 C 190.667969 58.347656 190.65625 58.390625 190.632812 58.429688 C 190.609375 58.46875 190.578125 58.5 190.535156 58.523438 C 190.457031 58.566406 190.363281 58.570312 190.28125 58.523438 C 190.242188 58.5 190.214844 58.472656 190.191406 58.429688 C 190.164062 58.390625 190.15625 58.347656 190.15625 58.296875 L 190.15625 57.578125 C 190.15625 57.53125 190.136719 57.492188 190.101562 57.457031 C 190.035156 57.394531 189.921875 57.398438 189.859375 57.457031 C 189.828125 57.488281 189.808594 57.53125 189.808594 57.578125 L 189.808594 58.296875 C 189.808594 58.40625 189.835938 58.507812 189.886719 58.597656 C 189.9375 58.6875 190.007812 58.761719 190.101562 58.8125 C 190.191406 58.863281 190.292969 58.886719 190.40625 58.886719 C 190.519531 58.886719 190.621094 58.863281 190.710938 58.8125 C 190.800781 58.761719 190.871094 58.6875 190.921875 58.597656 C 190.972656 58.507812 191 58.40625 191 58.296875 L 191 57.578125 C 191 57.53125 190.984375 57.492188 190.953125 57.460938 C 190.921875 57.429688 190.882812 57.410156 190.832031 57.410156 " fill-opacity="1" fill-rule="nonzero"/></g><g clip-path="url(#c4a8199398)"><path fill="#100f0d" d="M 192.425781 57.449219 C 192.402344 57.464844 192.382812 57.488281 192.363281 57.523438 L 192.042969 58.3125 L 191.703125 57.523438 C 191.671875 57.453125 191.617188 57.417969 191.546875 57.417969 C 191.503906 57.417969 191.464844 57.433594 191.433594 57.460938 C 191.394531 57.492188 191.375 57.535156 191.375 57.582031 C 191.375 57.609375 191.382812 57.636719 191.390625 57.652344 L 191.878906 58.785156 C 191.894531 58.8125 191.914062 58.835938 191.941406 58.855469 C 191.964844 58.871094 191.996094 58.878906 192.03125 58.882812 C 192.0625 58.882812 192.09375 58.875 192.125 58.855469 C 192.152344 58.839844 192.175781 58.8125 192.191406 58.777344 L 192.679688 57.652344 C 192.6875 57.625 192.695312 57.601562 192.695312 57.582031 C 192.695312 57.535156 192.675781 57.492188 192.640625 57.460938 C 192.582031 57.414062 192.492188 57.402344 192.425781 57.449219 " fill-opacity="1" fill-rule="nonzero"/></g></svg>