<?xml version="1.0" standalone="no"?>
<!DOCTYPE svg PUBLIC "-//W3C//DTD SVG 20010904//EN"
 "http://www.w3.org/TR/2001/REC-SVG-20010904/DTD/svg10.dtd">
<svg version="1.0" xmlns="http://www.w3.org/2000/svg"
 width="300.000000pt" height="52.000000pt" viewBox="0 0 300.000000 52.000000"
 preserveAspectRatio="xMidYMid meet">
<metadata>
Created by potrace 1.10, written by Peter Selinger 2001-2011
</metadata>
<g transform="translate(0.000000,52.000000) scale(0.100000,-0.100000)"
fill="#000000" stroke="none">
<path d="M1888 513 c204 -2 540 -2 745 0 204 1 37 2 -373 2 -410 0 -577 -1
-372 -2z"/>
<path d="M1230 350 l0 -50 60 0 c53 0 60 2 60 20 0 17 -7 20 -40 20 -38 0 -40
2 -40 30 0 23 -4 30 -20 30 -17 0 -20 -7 -20 -50z"/>
<path d="M1370 350 l0 -50 66 0 c56 0 65 2 60 16 -3 9 -6 18 -6 20 0 2 -18 4
-40 4 -38 0 -40 2 -40 30 0 23 -4 30 -20 30 -17 0 -20 -7 -20 -50z"/>
<path d="M1810 375 c0 -8 9 -15 20 -15 11 0 20 7 20 15 0 8 -9 15 -20 15 -11
0 -20 -7 -20 -15z"/>
<path d="M1873 284 c-2 -104 -2 -105 20 -102 21 3 22 8 25 106 3 100 2 102
-20 102 -22 0 -23 -3 -25 -106z"/>
<path d="M930 350 c0 -17 6 -20 50 -20 43 0 50 -3 50 -20 0 -16 -7 -20 -30
-20 -20 0 -30 5 -30 15 0 8 -9 15 -20 15 -18 0 -20 -7 -20 -63 0 -56 2 -63 20
-63 15 0 20 7 20 28 0 37 21 36 43 -2 12 -20 26 -30 43 -30 24 0 24 1 9 24
-13 19 -14 29 -5 46 6 11 10 40 8 63 l-3 42 -67 3 c-63 3 -68 1 -68 -18z"/>
<path d="M1520 340 c0 -18 7 -20 65 -20 63 0 65 1 53 20 -10 16 -24 20 -65 20
-46 0 -53 -3 -53 -20z"/>
<path d="M1090 320 c0 -18 6 -20 61 -20 52 0 60 2 57 18 -2 13 -15 18 -61 20
-52 3 -57 1 -57 -18z"/>
<path d="M1673 333 c-7 -2 -13 -11 -13 -19 0 -11 16 -14 65 -14 62 0 80 9 53
27 -15 9 -88 14 -105 6z"/>
<path d="M1810 261 c0 -70 2 -77 20 -78 18 -2 20 4 20 71 0 65 -2 74 -20 79
-19 5 -20 0 -20 -72z"/>
<path d="M1950 310 c0 -18 7 -20 60 -20 58 0 60 1 48 20 -10 15 -24 20 -60 20
-41 0 -48 -3 -48 -20z"/>
<path d="M1560 273 l31 -38 -40 -3 c-37 -3 -40 -5 -28 -23 15 -25 114 -28 123
-4 10 24 -62 105 -92 105 l-25 0 31 -37z"/>
<path d="M1092 243 l3 -48 55 0 55 0 3 48 c3 42 1 47 -17 47 -17 0 -21 -6 -21
-31 0 -26 -3 -30 -22 -27 -19 2 -22 8 -20 31 3 22 -1 27 -18 27 -19 0 -21 -5
-18 -47z"/>
<path d="M1230 240 l0 -50 60 0 60 0 0 50 c0 43 -3 50 -20 50 -16 0 -20 -7
-20 -30 0 -23 -4 -30 -20 -30 -16 0 -20 7 -20 30 0 23 -4 30 -20 30 -17 0 -20
-7 -20 -50z"/>
<path d="M1370 240 l0 -50 60 0 60 0 2 35 c0 19 1 41 2 48 1 6 -9 13 -21 15
-20 3 -23 -1 -23 -27 0 -24 -4 -31 -20 -31 -16 0 -20 7 -20 30 0 23 -4 30 -20
30 -17 0 -20 -7 -20 -50z"/>
<path d="M1662 238 l3 -43 54 -3 c61 -4 71 4 71 56 0 25 -4 32 -20 32 -15 0
-20 -7 -20 -25 0 -20 -5 -25 -25 -25 -20 0 -25 5 -25 25 0 19 -5 25 -21 25
-18 0 -20 -5 -17 -42z"/>
<path d="M1985 250 l30 -33 -37 6 c-41 6 -45 2 -24 -25 9 -13 25 -16 59 -14
54 3 61 7 53 34 -8 24 -43 48 -82 58 l-29 7 30 -33z"/>
<path d="M1353 135 c-12 -39 2 -49 17 -12 9 22 9 22 10 -3 1 -23 2 -24 14 -7
14 18 14 18 19 0 3 -10 5 -1 6 20 1 38 -14 51 -22 20 -4 -17 -5 -17 -6 0 -2
30 -27 18 -38 -18z"/>
<path d="M1441 146 c-15 -27 -8 -46 17 -46 15 0 15 2 2 10 -13 8 -12 10 3 10
19 0 23 15 7 25 -6 4 -8 11 -5 16 4 5 2 9 -3 9 -5 0 -14 -11 -21 -24z"/>
<path d="M1540 146 c0 -14 -5 -28 -12 -32 -7 -5 -9 0 -6 14 4 15 1 20 -12 19
-10 -1 -20 -11 -23 -23 -3 -18 1 -21 30 -22 26 -1 33 3 33 17 0 11 3 26 6 35
3 9 1 16 -5 16 -6 0 -11 -11 -11 -24z"/>
<path d="M1567 143 c-13 -12 -7 -43 8 -43 9 0 12 6 9 15 -4 8 -1 15 5 15 6 0
11 5 11 10 0 11 -23 14 -33 3z"/>
<path d="M1606 134 c-8 -21 11 -45 30 -37 20 7 14 47 -7 51 -9 2 -19 -5 -23
-14z"/>
</g>
</svg>
