<svg xmlns="http://www.w3.org/2000/svg" xmlns:xlink="http://www.w3.org/1999/xlink" width="500" zoomAndPan="magnify" viewBox="0 0 375 374.999991" height="500" preserveAspectRatio="xMidYMid meet" version="1.0"><defs><clipPath id="901c5eec2d"><path d="M 187.5 54 L 190 54 L 190 56 L 187.5 56 Z M 187.5 54 " clip-rule="nonzero"/></clipPath><clipPath id="0d9a9e2217"><path d="M 193 54 L 195 54 L 195 56 L 193 56 Z M 193 54 " clip-rule="nonzero"/></clipPath><clipPath id="cb10364a79"><path d="M 191 51.390625 L 192 51.390625 L 192 53 L 191 53 Z M 191 51.390625 " clip-rule="nonzero"/></clipPath><clipPath id="b91428ab26"><path d="M 189 57 L 191 57 L 191 58.890625 L 189 58.890625 Z M 189 57 " clip-rule="nonzero"/></clipPath><clipPath id="807e469299"><path d="M 191 57 L 193 57 L 193 58.890625 L 191 58.890625 Z M 191 57 " clip-rule="nonzero"/></clipPath><clipPath id="f3ad98a636"><path d="M 170.089844 73.234375 L 177.589844 73.234375 L 177.589844 83.734375 L 170.089844 83.734375 Z M 170.089844 73.234375 " clip-rule="nonzero"/></clipPath><clipPath id="47dda0c30e"><path d="M 8.644531 240.226562 L 22.144531 240.226562 L 22.144531 254.476562 L 8.644531 254.476562 Z M 8.644531 240.226562 " clip-rule="nonzero"/></clipPath><clipPath id="cd4ae178c0"><path d="M 12 249 L 22.144531 249 L 22.144531 252 L 12 252 Z M 12 249 " clip-rule="nonzero"/></clipPath><clipPath id="5102e82d3d"><path d="M 17 240.226562 L 22.144531 240.226562 L 22.144531 247 L 17 247 Z M 17 240.226562 " clip-rule="nonzero"/></clipPath><clipPath id="a9bdb64bee"><path d="M 7.046875 132 L 369 132 L 369 375 L 7.046875 375 Z M 7.046875 132 " clip-rule="nonzero"/></clipPath></defs><path fill="#100f0d" d="M 191.25 56.546875 C 190.421875 56.546875 189.75 55.882812 189.75 55.070312 C 189.75 54.257812 190.421875 53.59375 191.25 53.59375 C 192.082031 53.59375 192.753906 54.257812 192.753906 55.070312 C 192.753906 55.882812 192.082031 56.546875 191.25 56.546875 Z M 193.121094 55.070312 C 193.121094 54.058594 192.28125 53.238281 191.25 53.238281 C 190.222656 53.238281 189.382812 54.058594 189.382812 55.070312 C 189.382812 56.082031 190.222656 56.902344 191.25 56.902344 C 192.28125 56.902344 193.121094 56.082031 193.121094 55.070312 " fill-opacity="1" fill-rule="nonzero"/><g clip-path="url(#901c5eec2d)"><path fill="#100f0d" d="M 189.066406 55.070312 C 189.066406 54.972656 188.984375 54.894531 188.886719 54.894531 L 187.683594 54.894531 C 187.582031 54.894531 187.5 54.972656 187.5 55.070312 C 187.5 55.167969 187.582031 55.246094 187.683594 55.246094 L 188.886719 55.246094 C 188.984375 55.246094 189.066406 55.167969 189.066406 55.070312 " fill-opacity="1" fill-rule="nonzero"/></g><g clip-path="url(#0d9a9e2217)"><path fill="#100f0d" d="M 194.820312 54.894531 L 193.617188 54.894531 C 193.566406 54.894531 193.523438 54.914062 193.488281 54.945312 C 193.457031 54.976562 193.4375 55.019531 193.4375 55.070312 C 193.4375 55.167969 193.519531 55.246094 193.617188 55.246094 L 194.820312 55.246094 C 194.921875 55.246094 195.003906 55.167969 195.003906 55.070312 C 195.003906 54.972656 194.921875 54.894531 194.820312 54.894531 " fill-opacity="1" fill-rule="nonzero"/></g><path fill="#100f0d" d="M 189.382812 53.484375 C 189.453125 53.554688 189.566406 53.554688 189.636719 53.484375 C 189.707031 53.414062 189.707031 53.304688 189.636719 53.234375 L 188.785156 52.398438 C 188.714844 52.328125 188.601562 52.328125 188.53125 52.398438 C 188.460938 52.46875 188.460938 52.578125 188.53125 52.648438 L 189.382812 53.484375 " fill-opacity="1" fill-rule="nonzero"/><path fill="#100f0d" d="M 193.121094 56.65625 C 193.085938 56.621094 193.042969 56.601562 192.996094 56.601562 C 192.949219 56.601562 192.902344 56.621094 192.867188 56.65625 C 192.796875 56.722656 192.796875 56.835938 192.867188 56.90625 L 193.71875 57.742188 C 193.789062 57.808594 193.902344 57.808594 193.972656 57.742188 C 194.042969 57.671875 194.042969 57.558594 193.972656 57.492188 L 193.121094 56.65625 " fill-opacity="1" fill-rule="nonzero"/><g clip-path="url(#cb10364a79)"><path fill="#100f0d" d="M 191.25 52.925781 C 191.351562 52.925781 191.433594 52.847656 191.433594 52.746094 L 191.433594 51.566406 C 191.433594 51.46875 191.351562 51.390625 191.25 51.390625 C 191.152344 51.390625 191.070312 51.46875 191.070312 51.566406 L 191.070312 52.746094 C 191.070312 52.847656 191.152344 52.925781 191.25 52.925781 " fill-opacity="1" fill-rule="nonzero"/></g><path fill="#100f0d" d="M 193.121094 53.484375 L 193.972656 52.648438 C 194.042969 52.578125 194.042969 52.46875 193.972656 52.398438 C 193.902344 52.328125 193.789062 52.328125 193.71875 52.398438 L 192.867188 53.234375 C 192.796875 53.304688 192.796875 53.414062 192.867188 53.484375 C 192.9375 53.554688 193.050781 53.554688 193.121094 53.484375 " fill-opacity="1" fill-rule="nonzero"/><path fill="#100f0d" d="M 189.382812 56.65625 L 188.53125 57.492188 C 188.460938 57.558594 188.460938 57.671875 188.53125 57.742188 C 188.601562 57.808594 188.714844 57.808594 188.785156 57.742188 L 189.636719 56.90625 C 189.671875 56.871094 189.6875 56.824219 189.6875 56.78125 C 189.6875 56.734375 189.671875 56.691406 189.636719 56.65625 C 189.566406 56.585938 189.453125 56.585938 189.382812 56.65625 " fill-opacity="1" fill-rule="nonzero"/><g clip-path="url(#b91428ab26)"><path fill="#100f0d" d="M 190.832031 57.410156 C 190.769531 57.410156 190.730469 57.4375 190.710938 57.460938 C 190.683594 57.492188 190.667969 57.535156 190.667969 57.578125 L 190.667969 58.296875 C 190.667969 58.347656 190.65625 58.390625 190.632812 58.429688 C 190.609375 58.46875 190.578125 58.5 190.535156 58.523438 C 190.457031 58.566406 190.363281 58.570312 190.28125 58.523438 C 190.242188 58.5 190.214844 58.472656 190.191406 58.429688 C 190.164062 58.390625 190.15625 58.347656 190.15625 58.296875 L 190.15625 57.578125 C 190.15625 57.53125 190.136719 57.492188 190.101562 57.457031 C 190.035156 57.394531 189.921875 57.398438 189.859375 57.457031 C 189.828125 57.488281 189.808594 57.53125 189.808594 57.578125 L 189.808594 58.296875 C 189.808594 58.40625 189.835938 58.507812 189.886719 58.597656 C 189.9375 58.6875 190.007812 58.761719 190.101562 58.8125 C 190.191406 58.863281 190.292969 58.886719 190.40625 58.886719 C 190.519531 58.886719 190.621094 58.863281 190.710938 58.8125 C 190.800781 58.761719 190.871094 58.6875 190.921875 58.597656 C 190.972656 58.507812 191 58.40625 191 58.296875 L 191 57.578125 C 191 57.53125 190.984375 57.492188 190.953125 57.460938 C 190.921875 57.429688 190.882812 57.410156 190.832031 57.410156 " fill-opacity="1" fill-rule="nonzero"/></g><g clip-path="url(#807e469299)"><path fill="#100f0d" d="M 192.425781 57.449219 C 192.402344 57.464844 192.382812 57.488281 192.363281 57.523438 L 192.042969 58.3125 L 191.703125 57.523438 C 191.671875 57.453125 191.617188 57.417969 191.546875 57.417969 C 191.503906 57.417969 191.464844 57.433594 191.433594 57.460938 C 191.394531 57.492188 191.375 57.535156 191.375 57.582031 C 191.375 57.609375 191.382812 57.636719 191.390625 57.652344 L 191.878906 58.785156 C 191.894531 58.8125 191.914062 58.835938 191.941406 58.855469 C 191.964844 58.871094 191.996094 58.878906 192.03125 58.882812 C 192.0625 58.882812 192.09375 58.875 192.125 58.855469 C 192.152344 58.839844 192.175781 58.8125 192.191406 58.777344 L 192.679688 57.652344 C 192.6875 57.625 192.695312 57.601562 192.695312 57.582031 C 192.695312 57.535156 192.675781 57.492188 192.640625 57.460938 C 192.582031 57.414062 192.492188 57.402344 192.425781 57.449219 " fill-opacity="1" fill-rule="nonzero"/></g><g clip-path="url(#f3ad98a636)"><path fill="#000000" d="M 175.25 73.863281 C 175 73.707031 174.734375 73.585938 174.449219 73.515625 C 174.109375 73.4375 173.765625 73.367188 173.421875 73.296875 C 173.128906 73.234375 172.832031 73.238281 172.535156 73.300781 C 172.125 73.386719 171.746094 73.542969 171.429688 73.816406 C 170.960938 74.21875 170.597656 74.699219 170.34375 75.261719 C 170.277344 75.410156 170.226562 75.566406 170.179688 75.726562 C 170.089844 76.011719 170.121094 76.289062 170.25 76.558594 C 170.308594 76.679688 170.382812 76.796875 170.453125 76.914062 C 170.542969 77.0625 170.667969 77.175781 170.8125 77.269531 C 171.242188 77.539062 171.707031 77.621094 172.207031 77.546875 C 172.4375 77.511719 172.664062 77.457031 172.882812 77.355469 C 172.886719 77.378906 172.894531 77.394531 172.898438 77.414062 C 172.914062 77.507812 172.929688 77.601562 172.941406 77.695312 C 172.976562 77.957031 173.007812 78.214844 172.988281 78.480469 C 172.957031 78.839844 172.933594 79.199219 172.910156 79.558594 C 172.878906 79.988281 172.839844 80.421875 172.816406 80.851562 C 172.796875 81.308594 172.75 81.757812 172.683594 82.210938 C 172.644531 82.472656 172.601562 82.734375 172.566406 82.996094 C 172.550781 83.152344 172.5625 83.308594 172.625 83.457031 C 172.714844 83.675781 172.953125 83.714844 173.109375 83.535156 C 173.152344 83.480469 173.1875 83.414062 173.203125 83.351562 C 173.226562 83.253906 173.238281 83.152344 173.242188 83.050781 C 173.257812 82.671875 173.28125 82.289062 173.355469 81.910156 C 173.425781 81.535156 173.5 81.160156 173.574219 80.785156 C 173.652344 80.398438 173.6875 80.011719 173.660156 79.621094 C 173.636719 79.253906 173.605469 78.890625 173.578125 78.527344 C 173.558594 78.273438 173.535156 78.023438 173.519531 77.773438 C 173.507812 77.59375 173.507812 77.410156 173.5 77.230469 C 173.496094 77.179688 173.515625 77.15625 173.566406 77.140625 C 173.648438 77.113281 173.730469 77.078125 173.8125 77.050781 C 174.148438 76.941406 174.464844 76.800781 174.753906 76.589844 C 175.066406 76.367188 175.320312 76.101562 175.515625 75.777344 C 175.660156 75.542969 175.757812 75.296875 175.789062 75.027344 C 175.84375 74.535156 175.683594 74.132812 175.25 73.863281 Z M 175.542969 75.3125 C 175.3125 75.625 174.941406 75.789062 174.566406 75.871094 C 174.253906 75.941406 173.867188 75.992188 173.574219 75.839844 C 173.65625 75.855469 173.734375 75.855469 173.816406 75.839844 C 174.066406 75.789062 174.3125 75.65625 174.527344 75.523438 C 174.929688 75.269531 175.261719 74.945312 175.515625 74.546875 C 175.546875 74.617188 175.570312 74.699219 175.578125 74.789062 C 175.601562 74.96875 175.582031 75.140625 175.542969 75.3125 Z M 171.898438 74.378906 C 171.929688 74.511719 171.980469 74.644531 172.03125 74.773438 C 172.074219 74.878906 172.117188 74.992188 172.191406 75.082031 C 172.261719 75.171875 172.363281 75.230469 172.460938 75.292969 L 172.820312 75.515625 C 172.820312 75.523438 172.816406 75.527344 172.816406 75.53125 C 172.8125 75.539062 172.808594 75.546875 172.804688 75.558594 C 172.539062 75.546875 172.300781 75.398438 172.082031 75.261719 C 171.84375 75.117188 171.585938 74.925781 171.574219 74.628906 C 171.574219 74.617188 171.570312 74.609375 171.566406 74.601562 C 171.664062 74.511719 171.777344 74.4375 171.898438 74.378906 Z M 171.496094 74.671875 C 171.527344 74.957031 171.757812 75.15625 171.992188 75.304688 C 172.210938 75.441406 172.445312 75.589844 172.703125 75.628906 C 172.457031 75.730469 172.152344 75.632812 171.917969 75.539062 C 171.640625 75.425781 171.382812 75.238281 171.261719 74.960938 C 171.3125 74.898438 171.363281 74.839844 171.410156 74.773438 C 171.4375 74.738281 171.464844 74.707031 171.496094 74.671875 Z M 171.207031 75.03125 C 171.339844 75.300781 171.589844 75.488281 171.867188 75.605469 C 172.136719 75.714844 172.484375 75.824219 172.761719 75.6875 C 172.757812 75.707031 172.753906 75.722656 172.753906 75.742188 C 172.75 75.742188 172.75 75.742188 172.746094 75.746094 C 172.628906 75.863281 172.484375 75.945312 172.320312 75.980469 C 172.144531 76.019531 171.953125 76.003906 171.773438 75.980469 C 171.601562 75.960938 171.429688 75.921875 171.265625 75.855469 C 171.105469 75.789062 170.921875 75.695312 170.847656 75.527344 C 170.847656 75.527344 170.847656 75.523438 170.847656 75.523438 C 170.929688 75.382812 171.027344 75.25 171.128906 75.121094 C 171.15625 75.089844 171.179688 75.058594 171.207031 75.03125 Z M 170.796875 75.605469 C 170.972656 75.90625 171.414062 76.015625 171.734375 76.058594 C 171.933594 76.082031 172.144531 76.101562 172.339844 76.058594 C 172.457031 76.03125 172.5625 75.984375 172.660156 75.917969 C 172.660156 75.933594 172.65625 75.945312 172.65625 75.957031 C 172.652344 75.960938 172.65625 75.96875 172.65625 75.972656 C 172.511719 76.347656 172.082031 76.484375 171.707031 76.496094 C 171.304688 76.511719 170.824219 76.457031 170.597656 76.089844 C 170.613281 76.019531 170.636719 75.949219 170.664062 75.878906 C 170.703125 75.785156 170.746094 75.695312 170.796875 75.605469 Z M 170.570312 76.675781 C 170.542969 76.515625 170.542969 76.355469 170.570312 76.199219 C 170.835938 76.539062 171.324219 76.597656 171.734375 76.578125 C 172.058594 76.558594 172.40625 76.453125 172.613281 76.207031 C 172.433594 76.519531 172.144531 76.765625 171.804688 76.898438 C 171.4375 77.046875 170.757812 77.117188 170.570312 76.675781 Z M 172.859375 75.445312 L 172.554688 75.253906 C 172.445312 75.1875 172.324219 75.125 172.246094 75.023438 C 172.171875 74.925781 172.132812 74.808594 172.089844 74.695312 C 172.042969 74.582031 172 74.464844 171.972656 74.34375 C 172.019531 74.320312 172.066406 74.304688 172.117188 74.285156 C 172.257812 74.238281 172.398438 74.203125 172.542969 74.183594 C 172.542969 74.1875 172.542969 74.191406 172.542969 74.199219 C 172.496094 74.429688 172.542969 74.65625 172.625 74.875 C 172.691406 75.058594 172.769531 75.242188 172.894531 75.394531 C 172.882812 75.414062 172.871094 75.429688 172.859375 75.445312 Z M 173 74.152344 C 173.015625 74.347656 173.03125 74.542969 173.011719 74.738281 C 172.996094 74.9375 172.972656 75.132812 172.953125 75.332031 C 172.953125 75.332031 172.949219 75.335938 172.949219 75.335938 C 172.835938 75.195312 172.765625 75.023438 172.703125 74.855469 C 172.628906 74.652344 172.578125 74.433594 172.621094 74.21875 C 172.621094 74.21875 172.621094 74.214844 172.621094 74.214844 C 172.632812 74.199219 172.640625 74.1875 172.648438 74.171875 C 172.722656 74.164062 172.796875 74.15625 172.871094 74.15625 C 172.914062 74.15625 172.957031 74.152344 173 74.152344 Z M 173.082031 74.144531 C 173.242188 74.132812 173.398438 74.113281 173.558594 74.089844 C 173.53125 74.324219 173.480469 74.554688 173.40625 74.777344 C 173.34375 74.96875 173.257812 75.15625 173.101562 75.285156 C 173.078125 75.285156 173.058594 75.285156 173.039062 75.289062 C 173.058594 75.105469 173.078125 74.921875 173.09375 74.738281 C 173.113281 74.539062 173.097656 74.34375 173.082031 74.144531 Z M 174.492188 74.046875 C 174.621094 74.054688 174.746094 74.074219 174.871094 74.105469 C 174.902344 74.109375 174.9375 74.121094 174.96875 74.128906 C 174.847656 74.484375 174.660156 74.820312 174.371094 75.074219 C 174.105469 75.304688 173.683594 75.519531 173.328125 75.382812 C 173.597656 75.363281 173.820312 75.160156 173.992188 74.957031 C 174.21875 74.691406 174.425781 74.394531 174.492188 74.046875 Z M 173.96875 74.859375 C 173.78125 75.085938 173.527344 75.347656 173.207031 75.300781 C 173.339844 75.167969 173.417969 74.996094 173.476562 74.824219 C 173.558594 74.582031 173.609375 74.332031 173.640625 74.082031 L 173.660156 74.078125 C 173.910156 74.046875 174.160156 74.027344 174.410156 74.039062 C 174.347656 74.351562 174.171875 74.617188 173.96875 74.859375 Z M 175.46875 74.460938 C 175.246094 74.824219 174.949219 75.140625 174.59375 75.382812 C 174.40625 75.507812 174.207031 75.617188 173.996094 75.699219 C 173.871094 75.75 173.726562 75.796875 173.589844 75.765625 C 173.519531 75.753906 173.457031 75.71875 173.414062 75.671875 C 173.414062 75.664062 173.410156 75.660156 173.410156 75.652344 C 173.390625 75.589844 173.363281 75.527344 173.332031 75.46875 C 173.6875 75.585938 174.089844 75.402344 174.367188 75.183594 C 174.699219 74.917969 174.910156 74.546875 175.046875 74.15625 C 175.085938 74.167969 175.121094 74.183594 175.160156 74.203125 C 175.296875 74.265625 175.398438 74.351562 175.46875 74.460938 Z M 170.417969 76.316406 C 170.410156 76.398438 170.417969 76.480469 170.417969 76.574219 C 170.402344 76.558594 170.394531 76.550781 170.390625 76.542969 C 170.273438 76.308594 170.230469 76.066406 170.292969 75.808594 C 170.335938 75.640625 170.390625 75.476562 170.464844 75.320312 C 170.710938 74.777344 171.0625 74.308594 171.519531 73.914062 C 171.8125 73.664062 172.160156 73.515625 172.539062 73.433594 C 172.832031 73.367188 173.125 73.367188 173.417969 73.429688 C 173.757812 73.5 174.101562 73.570312 174.441406 73.652344 C 174.707031 73.714844 174.953125 73.835938 175.1875 73.976562 C 175.296875 74.042969 175.386719 74.128906 175.464844 74.230469 C 175.363281 74.167969 175.277344 74.113281 175.191406 74.070312 C 175.03125 73.984375 174.851562 73.960938 174.675781 73.933594 C 174.304688 73.878906 173.9375 73.902344 173.570312 73.957031 C 173.28125 74 172.988281 74.015625 172.695312 74.035156 C 172.382812 74.058594 172.085938 74.136719 171.804688 74.273438 C 171.648438 74.355469 171.503906 74.457031 171.390625 74.59375 C 171.171875 74.851562 170.949219 75.113281 170.765625 75.398438 C 170.585938 75.679688 170.453125 75.980469 170.417969 76.316406 Z M 170.785156 77.082031 C 170.714844 77.03125 170.664062 76.972656 170.628906 76.898438 C 170.914062 77.160156 171.441406 77.117188 171.785156 76.996094 C 172.15625 76.859375 172.472656 76.601562 172.667969 76.269531 C 172.621094 76.582031 172.410156 76.851562 172.214844 77.09375 C 172.105469 77.226562 171.980469 77.34375 171.808594 77.386719 C 171.699219 77.410156 171.582031 77.410156 171.46875 77.398438 C 171.21875 77.34375 170.988281 77.246094 170.785156 77.082031 Z M 171.898438 77.441406 C 172.042969 77.386719 172.15625 77.289062 172.253906 77.171875 C 172.441406 76.949219 172.632812 76.703125 172.714844 76.425781 C 172.726562 76.476562 172.734375 76.53125 172.742188 76.585938 C 172.757812 76.859375 172.695312 77.1875 172.476562 77.355469 C 172.289062 77.40625 172.09375 77.4375 171.898438 77.441406 Z M 172.703125 77.285156 C 172.683594 77.292969 172.660156 77.300781 172.640625 77.308594 C 172.722656 77.203125 172.773438 77.070312 172.800781 76.929688 C 172.816406 77.023438 172.832031 77.117188 172.847656 77.21875 C 172.804688 77.238281 172.757812 77.269531 172.703125 77.285156 Z M 173.515625 79.445312 C 173.527344 79.65625 173.535156 79.871094 173.527344 80.082031 C 173.523438 80.378906 173.464844 80.667969 173.402344 80.957031 C 173.3125 81.386719 173.222656 81.816406 173.167969 82.25 C 173.144531 82.449219 173.132812 82.652344 173.117188 82.851562 C 173.113281 82.953125 173.113281 83.054688 173.105469 83.152344 C 173.097656 83.21875 173.085938 83.285156 173.0625 83.347656 C 173.046875 83.398438 173.019531 83.4375 172.980469 83.472656 C 172.898438 83.542969 172.804688 83.523438 172.757812 83.425781 C 172.710938 83.339844 172.699219 83.246094 172.699219 83.148438 C 172.691406 82.960938 172.722656 82.777344 172.753906 82.59375 C 172.84375 82.09375 172.917969 81.589844 172.9375 81.082031 C 172.949219 80.800781 172.964844 80.523438 172.984375 80.246094 C 173.011719 79.882812 173.050781 79.523438 173.078125 79.160156 C 173.097656 78.933594 173.109375 78.703125 173.125 78.476562 C 173.140625 78.21875 173.109375 77.964844 173.082031 77.707031 C 173.050781 77.464844 172.988281 77.226562 172.945312 76.984375 C 172.90625 76.769531 172.855469 76.554688 172.839844 76.339844 C 172.824219 76.085938 172.839844 75.828125 172.9375 75.582031 C 172.957031 75.539062 172.980469 75.496094 173.011719 75.460938 C 173.050781 75.410156 173.105469 75.40625 173.148438 75.449219 C 173.1875 75.488281 173.21875 75.535156 173.238281 75.582031 C 173.300781 75.707031 173.328125 75.847656 173.34375 75.984375 C 173.355469 76.136719 173.363281 76.285156 173.367188 76.4375 C 173.371094 76.84375 173.367188 77.253906 173.382812 77.660156 C 173.394531 77.984375 173.429688 78.308594 173.453125 78.636719 C 173.476562 78.90625 173.5 79.175781 173.515625 79.445312 Z M 173.574219 77 C 173.554688 77.003906 173.535156 77.011719 173.5 77.019531 C 173.5 76.980469 173.5 76.949219 173.5 76.917969 C 173.5 76.761719 173.5 76.605469 173.496094 76.449219 C 173.546875 76.53125 173.605469 76.601562 173.664062 76.664062 C 173.765625 76.777344 173.886719 76.828125 174.023438 76.832031 C 173.875 76.890625 173.722656 76.945312 173.574219 77 Z M 174.695312 76.464844 C 174.605469 76.527344 174.519531 76.59375 174.425781 76.644531 C 174.402344 76.65625 174.382812 76.671875 174.359375 76.683594 C 174.332031 76.695312 174.300781 76.703125 174.273438 76.710938 C 174.242188 76.722656 174.214844 76.730469 174.1875 76.742188 C 174.183594 76.742188 174.179688 76.742188 174.175781 76.742188 C 173.988281 76.78125 173.828125 76.734375 173.707031 76.589844 C 173.628906 76.5 173.535156 76.378906 173.496094 76.257812 C 173.492188 76.222656 173.492188 76.183594 173.492188 76.148438 C 173.492188 76.125 173.492188 76.105469 173.488281 76.082031 C 173.742188 76.269531 174.105469 76.285156 174.410156 76.253906 C 174.679688 76.226562 174.933594 76.152344 175.175781 76.027344 C 175.035156 76.199219 174.875 76.34375 174.695312 76.464844 Z M 175.359375 75.777344 C 175.339844 75.808594 175.320312 75.835938 175.300781 75.867188 C 175.039062 76.027344 174.746094 76.132812 174.4375 76.171875 C 174.121094 76.207031 173.722656 76.199219 173.480469 75.96875 C 173.476562 75.933594 173.46875 75.902344 173.464844 75.871094 C 173.78125 76.074219 174.203125 76.03125 174.558594 75.957031 C 174.90625 75.882812 175.246094 75.742188 175.492188 75.496094 C 175.492188 75.5 175.488281 75.507812 175.484375 75.515625 C 175.457031 75.609375 175.410156 75.695312 175.359375 75.777344 Z M 177.578125 77.726562 C 177.550781 77.574219 177.453125 77.46875 177.320312 77.402344 C 177.25 77.367188 177.171875 77.34375 177.097656 77.320312 C 176.980469 77.285156 176.863281 77.253906 176.746094 77.21875 C 176.578125 77.160156 176.40625 77.121094 176.234375 77.089844 C 175.863281 77.027344 175.511719 77.085938 175.1875 77.265625 C 174.898438 77.433594 174.636719 77.644531 174.4375 77.914062 C 174.273438 78.132812 174.144531 78.371094 174.105469 78.640625 C 174.066406 78.886719 174.144531 79.09375 174.359375 79.238281 C 174.421875 79.28125 174.492188 79.320312 174.566406 79.339844 C 174.691406 79.378906 174.824219 79.402344 174.953125 79.429688 C 175.027344 79.445312 175.101562 79.453125 175.183594 79.464844 C 175.15625 79.535156 175.136719 79.589844 175.117188 79.648438 C 174.988281 80.027344 174.84375 80.394531 174.640625 80.742188 C 174.417969 81.113281 174.238281 81.503906 174.101562 81.914062 C 174.003906 82.214844 173.898438 82.511719 173.796875 82.808594 C 173.773438 82.875 173.757812 82.945312 173.742188 83.011719 C 173.726562 83.113281 173.734375 83.214844 173.789062 83.304688 C 173.863281 83.429688 174 83.457031 174.117188 83.367188 C 174.183594 83.316406 174.226562 83.253906 174.257812 83.179688 C 174.3125 83.070312 174.351562 82.953125 174.367188 82.828125 C 174.394531 82.609375 174.429688 82.394531 174.488281 82.179688 C 174.578125 81.859375 174.722656 81.5625 174.882812 81.273438 C 174.984375 81.082031 175.09375 80.890625 175.179688 80.691406 C 175.355469 80.300781 175.519531 79.910156 175.683594 79.515625 C 175.703125 79.472656 175.726562 79.449219 175.777344 79.441406 C 176.054688 79.394531 176.308594 79.296875 176.53125 79.125 C 176.691406 79 176.855469 78.882812 177.015625 78.753906 C 177.125 78.664062 177.230469 78.570312 177.328125 78.472656 C 177.441406 78.363281 177.515625 78.226562 177.558594 78.078125 C 177.570312 78.035156 177.582031 77.996094 177.589844 77.957031 L 177.589844 77.753906 C 177.585938 77.746094 177.578125 77.734375 177.578125 77.726562 Z M 177.179688 77.511719 C 177.203125 77.515625 177.230469 77.519531 177.253906 77.527344 C 177.132812 77.777344 176.984375 78.015625 176.765625 78.191406 C 176.65625 78.28125 176.523438 78.351562 176.386719 78.394531 C 176.300781 78.417969 176.214844 78.425781 176.128906 78.425781 C 176.257812 78.390625 176.375 78.308594 176.464844 78.230469 C 176.652344 78.0625 176.761719 77.824219 176.746094 77.574219 C 176.746094 77.566406 176.746094 77.5625 176.742188 77.554688 C 176.882812 77.511719 177.027344 77.496094 177.179688 77.511719 Z M 176.042969 79.238281 C 176.042969 79.238281 176.042969 79.238281 176.039062 79.234375 C 175.96875 79.097656 175.949219 78.953125 175.976562 78.800781 C 176.070312 78.941406 176.242188 79.027344 176.421875 79.039062 C 176.304688 79.125 176.179688 79.191406 176.042969 79.238281 Z M 174.230469 78.777344 C 174.230469 78.742188 174.234375 78.699219 174.253906 78.667969 C 174.351562 78.78125 174.558594 78.789062 174.699219 78.769531 C 174.890625 78.746094 175.0625 78.664062 175.226562 78.566406 C 175.113281 78.683594 174.996094 78.792969 174.851562 78.871094 C 174.675781 78.964844 174.417969 79.03125 174.25 78.890625 C 174.242188 78.855469 174.234375 78.816406 174.230469 78.777344 Z M 175.710938 78.246094 C 175.707031 78.246094 175.699219 78.25 175.691406 78.25 C 175.683594 78.25 175.675781 78.25 175.664062 78.25 C 175.683594 78.199219 175.691406 78.148438 175.695312 78.09375 C 175.761719 78.066406 175.824219 78.035156 175.890625 78.003906 C 175.863281 78.105469 175.804688 78.1875 175.710938 78.25 Z M 175.570312 78.273438 C 175.554688 78.28125 175.542969 78.285156 175.527344 78.292969 C 175.484375 78.261719 175.453125 78.21875 175.433594 78.167969 C 175.492188 78.15625 175.550781 78.140625 175.609375 78.121094 C 175.605469 78.175781 175.589844 78.226562 175.570312 78.273438 Z M 175.351562 78.179688 C 175.371094 78.242188 175.40625 78.292969 175.453125 78.335938 C 175.449219 78.339844 175.441406 78.339844 175.4375 78.34375 C 175.378906 78.359375 175.320312 78.371094 175.261719 78.371094 C 175.183594 78.367188 175.03125 78.339844 175.050781 78.230469 C 175.054688 78.230469 175.054688 78.226562 175.054688 78.226562 C 175.054688 78.226562 175.058594 78.226562 175.058594 78.226562 C 175.15625 78.210938 175.253906 78.195312 175.351562 78.179688 Z M 175.207031 78.441406 C 175.136719 78.464844 175.066406 78.484375 174.992188 78.492188 C 174.925781 78.5 174.855469 78.496094 174.792969 78.484375 C 174.726562 78.46875 174.617188 78.433594 174.59375 78.363281 C 174.710938 78.300781 174.835938 78.261719 174.96875 78.238281 C 174.960938 78.375 175.074219 78.429688 175.207031 78.441406 Z M 174.519531 78.402344 C 174.574219 78.527344 174.765625 78.570312 174.886719 78.574219 C 174.949219 78.578125 175.011719 78.574219 175.074219 78.558594 C 174.992188 78.601562 174.90625 78.640625 174.820312 78.664062 C 174.6875 78.703125 174.390625 78.746094 174.300781 78.597656 C 174.332031 78.558594 174.363281 78.523438 174.398438 78.492188 C 174.4375 78.460938 174.476562 78.429688 174.523438 78.402344 Z M 175.980469 77.953125 C 175.992188 77.949219 176 77.941406 176.011719 77.9375 C 176.074219 77.902344 176.136719 77.863281 176.199219 77.828125 C 176.152344 78.003906 176.074219 78.261719 175.878906 78.304688 C 175.859375 78.289062 175.839844 78.277344 175.820312 78.269531 C 175.914062 78.183594 175.96875 78.078125 175.980469 77.953125 Z M 176.664062 77.585938 C 176.675781 77.792969 176.59375 77.988281 176.445312 78.136719 C 176.332031 78.25 176.121094 78.398438 175.945312 78.367188 C 176.15625 78.28125 176.238281 78 176.292969 77.804688 C 176.296875 77.792969 176.292969 77.785156 176.292969 77.777344 C 176.394531 77.722656 176.496094 77.667969 176.597656 77.613281 C 176.621094 77.601562 176.644531 77.59375 176.664062 77.585938 Z M 174.359375 78.304688 C 174.4375 78.136719 174.539062 77.980469 174.667969 77.84375 C 174.835938 77.671875 175.019531 77.515625 175.226562 77.394531 C 175.507812 77.234375 175.816406 77.167969 176.144531 77.210938 C 176.363281 77.242188 176.578125 77.296875 176.789062 77.371094 C 176.800781 77.375 176.8125 77.378906 176.84375 77.394531 C 176.597656 77.449219 176.398438 77.554688 176.203125 77.667969 C 176.132812 77.707031 176.066406 77.746094 176 77.789062 C 175.75 77.953125 175.476562 78.039062 175.179688 78.074219 C 174.988281 78.097656 174.796875 78.121094 174.621094 78.207031 C 174.527344 78.25 174.441406 78.300781 174.347656 78.351562 C 174.351562 78.335938 174.351562 78.316406 174.359375 78.304688 Z M 174.449219 79.136719 C 174.394531 79.109375 174.351562 79.070312 174.316406 79.019531 C 174.46875 79.078125 174.652344 79.046875 174.800781 78.984375 C 174.996094 78.902344 175.152344 78.765625 175.292969 78.613281 C 175.257812 78.753906 175.203125 78.886719 175.109375 78.996094 C 175 79.121094 174.855469 79.203125 174.695312 79.242188 C 174.609375 79.222656 174.527344 79.179688 174.449219 79.136719 Z M 174.855469 79.277344 C 174.976562 79.226562 175.078125 79.152344 175.164062 79.054688 C 175.246094 78.960938 175.300781 78.855469 175.339844 78.746094 C 175.339844 78.761719 175.335938 78.773438 175.335938 78.789062 C 175.320312 78.925781 175.292969 79.0625 175.269531 79.203125 C 175.261719 79.242188 175.246094 79.28125 175.234375 79.324219 C 175.21875 79.324219 175.203125 79.332031 175.191406 79.328125 C 175.078125 79.3125 174.96875 79.296875 174.855469 79.277344 Z M 175.445312 79.742188 C 175.335938 79.992188 175.234375 80.246094 175.121094 80.496094 C 175.003906 80.746094 174.886719 80.992188 174.75 81.230469 C 174.523438 81.632812 174.359375 82.054688 174.273438 82.507812 C 174.253906 82.613281 174.253906 82.722656 174.226562 82.828125 C 174.203125 82.9375 174.167969 83.039062 174.128906 83.140625 C 174.109375 83.1875 174.070312 83.230469 174.03125 83.261719 C 173.984375 83.304688 173.941406 83.292969 173.910156 83.242188 C 173.867188 83.175781 173.863281 83.105469 173.875 83.03125 C 173.882812 82.980469 173.894531 82.933594 173.914062 82.882812 C 174.050781 82.480469 174.183594 82.074219 174.332031 81.671875 C 174.417969 81.449219 174.515625 81.226562 174.640625 81.019531 C 174.902344 80.574219 175.105469 80.105469 175.269531 79.621094 C 175.332031 79.4375 175.410156 79.261719 175.4375 79.066406 C 175.460938 78.898438 175.484375 78.726562 175.503906 78.554688 C 175.515625 78.445312 175.625 78.359375 175.730469 78.378906 C 175.773438 78.386719 175.808594 78.410156 175.820312 78.449219 C 175.828125 78.488281 175.832031 78.527344 175.84375 78.570312 C 175.828125 78.644531 175.816406 78.722656 175.792969 78.796875 C 175.6875 79.113281 175.582031 79.433594 175.445312 79.742188 Z M 175.761719 79.308594 C 175.804688 79.179688 175.847656 79.0625 175.882812 78.949219 C 175.886719 79.058594 175.914062 79.164062 175.960938 79.265625 C 175.921875 79.277344 175.882812 79.285156 175.84375 79.292969 C 175.824219 79.300781 175.800781 79.300781 175.761719 79.308594 Z M 176.925781 78.652344 C 176.796875 78.757812 176.660156 78.855469 176.527344 78.957031 C 176.277344 78.992188 176.011719 78.84375 175.992188 78.589844 C 176.046875 78.613281 176.109375 78.621094 176.152344 78.628906 C 176.292969 78.65625 176.433594 78.664062 176.574219 78.652344 C 176.742188 78.640625 176.902344 78.605469 177.058594 78.542969 C 177.015625 78.582031 176.972656 78.617188 176.925781 78.652344 Z M 177.429688 78.046875 C 177.394531 78.160156 177.339844 78.265625 177.257812 78.355469 C 176.980469 78.523438 176.675781 78.597656 176.347656 78.574219 C 176.308594 78.570312 176.054688 78.550781 176 78.503906 C 176.132812 78.511719 176.265625 78.511719 176.394531 78.472656 C 176.539062 78.433594 176.675781 78.363281 176.792969 78.269531 C 177.035156 78.089844 177.195312 77.832031 177.328125 77.566406 C 177.398438 77.613281 177.445312 77.691406 177.457031 77.78125 C 177.46875 77.871094 177.457031 77.960938 177.429688 78.046875 Z M 171.867188 80.4375 C 172.335938 80.351562 172.566406 79.898438 172.496094 79.539062 C 172.464844 79.367188 172.410156 79.199219 172.347656 79.035156 C 172.3125 78.957031 172.289062 78.871094 172.261719 78.789062 C 172.207031 78.632812 172.160156 78.476562 172.097656 78.324219 C 172.058594 78.230469 172.003906 78.140625 171.941406 78.054688 C 171.855469 77.941406 171.730469 77.890625 171.585938 77.890625 C 171.429688 77.890625 171.289062 77.9375 171.160156 78.015625 C 170.996094 78.117188 170.863281 78.25 170.742188 78.394531 C 170.492188 78.703125 170.34375 79.058594 170.246094 79.433594 C 170.214844 79.542969 170.210938 79.65625 170.238281 79.765625 C 170.277344 79.933594 170.332031 80.09375 170.480469 80.207031 C 170.613281 80.308594 170.757812 80.386719 170.925781 80.421875 C 170.996094 80.4375 171.066406 80.453125 171.144531 80.46875 C 171.140625 80.515625 171.136719 80.550781 171.132812 80.585938 C 171.117188 80.78125 171.109375 80.976562 171.136719 81.171875 C 171.1875 81.550781 171.246094 81.929688 171.296875 82.304688 C 171.34375 82.640625 171.429688 82.964844 171.550781 83.277344 C 171.582031 83.367188 171.628906 83.449219 171.679688 83.53125 C 171.722656 83.605469 171.789062 83.660156 171.875 83.6875 C 172.011719 83.730469 172.140625 83.648438 172.148438 83.507812 C 172.152344 83.457031 172.152344 83.402344 172.136719 83.351562 C 172.109375 83.261719 172.078125 83.175781 172.042969 83.09375 C 171.945312 82.875 171.851562 82.65625 171.808594 82.421875 C 171.695312 81.804688 171.632812 81.1875 171.628906 80.5625 C 171.628906 80.535156 171.632812 80.503906 171.632812 80.476562 C 171.71875 80.460938 171.792969 80.449219 171.867188 80.4375 Z M 171.804688 80.3125 C 171.886719 79.925781 171.890625 79.535156 171.824219 79.144531 C 171.835938 79.148438 171.851562 79.152344 171.867188 79.15625 C 171.964844 79.535156 171.96875 79.914062 171.878906 80.296875 C 171.855469 80.300781 171.832031 80.308594 171.804688 80.3125 Z M 172.101562 79.25 C 172.164062 79.382812 172.164062 79.542969 172.167969 79.683594 C 172.175781 79.84375 172.167969 80.003906 172.148438 80.164062 C 172.09375 80.210938 172.035156 80.242188 171.972656 80.269531 C 172.050781 79.90625 172.042969 79.546875 171.957031 79.1875 C 172.007812 79.203125 172.054688 79.226562 172.101562 79.25 Z M 172.363281 79.546875 C 172.386719 79.714844 172.363281 79.871094 172.269531 80.019531 C 172.261719 80.035156 172.25 80.046875 172.238281 80.0625 C 172.253906 79.925781 172.257812 79.789062 172.25 79.652344 C 172.246094 79.542969 172.242188 79.421875 172.210938 79.3125 C 172.214844 79.316406 172.21875 79.316406 172.21875 79.320312 C 172.300781 79.375 172.347656 79.445312 172.363281 79.546875 Z M 170.394531 79.394531 C 170.492188 79.0625 170.625 78.746094 170.851562 78.476562 C 170.957031 78.34375 171.074219 78.222656 171.222656 78.132812 C 171.335938 78.0625 171.460938 78.019531 171.601562 78.023438 C 171.691406 78.027344 171.777344 78.058594 171.832031 78.132812 C 171.882812 78.203125 171.9375 78.277344 171.96875 78.359375 C 172.027344 78.503906 172.074219 78.648438 172.121094 78.796875 C 172.164062 78.917969 172.203125 79.039062 172.25 79.175781 C 171.9375 78.996094 171.609375 78.9375 171.269531 78.984375 C 170.933594 79.03125 170.628906 79.15625 170.394531 79.4375 C 170.394531 79.414062 170.390625 79.402344 170.394531 79.394531 Z M 170.957031 79.277344 C 170.964844 79.257812 170.976562 79.21875 170.988281 79.1875 C 171.058594 79.164062 171.128906 79.144531 171.199219 79.128906 C 170.9375 79.449219 170.90625 79.878906 170.90625 80.277344 C 170.855469 80.265625 170.808594 80.246094 170.761719 80.222656 C 170.765625 80.039062 170.789062 79.859375 170.832031 79.679688 C 170.851562 79.589844 170.878906 79.5 170.90625 79.414062 C 170.921875 79.367188 170.941406 79.320312 170.957031 79.277344 Z M 170.386719 79.800781 C 170.371094 79.75 170.390625 79.707031 170.410156 79.664062 C 170.457031 79.570312 170.515625 79.492188 170.589844 79.421875 C 170.550781 79.484375 170.519531 79.550781 170.503906 79.628906 C 170.480469 79.75 170.472656 79.875 170.46875 79.996094 C 170.429688 79.9375 170.402344 79.871094 170.386719 79.800781 Z M 170.550781 80.089844 C 170.550781 79.953125 170.558594 79.816406 170.578125 79.679688 C 170.605469 79.527344 170.683594 79.417969 170.78125 79.300781 C 170.789062 79.292969 170.789062 79.285156 170.792969 79.277344 C 170.824219 79.257812 170.855469 79.242188 170.890625 79.226562 C 170.886719 79.238281 170.882812 79.246094 170.878906 79.253906 C 170.835938 79.363281 170.800781 79.476562 170.769531 79.589844 C 170.71875 79.785156 170.6875 79.980469 170.679688 80.183594 C 170.65625 80.171875 170.632812 80.15625 170.613281 80.140625 C 170.589844 80.125 170.570312 80.109375 170.550781 80.089844 Z M 170.988281 80.300781 C 170.988281 79.882812 171.011719 79.429688 171.320312 79.113281 L 171.324219 79.113281 C 171.292969 79.523438 171.234375 79.925781 171.160156 80.332031 C 171.101562 80.324219 171.042969 80.3125 170.988281 80.300781 Z M 171.5625 81.65625 C 171.597656 81.898438 171.628906 82.136719 171.664062 82.378906 C 171.703125 82.648438 171.808594 82.898438 171.921875 83.148438 C 171.953125 83.214844 171.976562 83.285156 172 83.359375 C 172.011719 83.398438 172.015625 83.441406 172.015625 83.484375 C 172.015625 83.558594 171.960938 83.589844 171.894531 83.550781 C 171.847656 83.519531 171.800781 83.476562 171.769531 83.429688 C 171.730469 83.363281 171.695312 83.289062 171.667969 83.21875 C 171.542969 82.890625 171.464844 82.550781 171.417969 82.203125 C 171.371094 81.867188 171.320312 81.535156 171.273438 81.199219 C 171.234375 80.945312 171.25 80.6875 171.285156 80.433594 C 171.335938 80.066406 171.386719 79.703125 171.4375 79.339844 C 171.449219 79.265625 171.453125 79.191406 171.460938 79.105469 L 171.617188 79.113281 C 171.644531 79.3125 171.636719 79.503906 171.597656 79.695312 C 171.554688 79.910156 171.511719 80.121094 171.5 80.339844 C 171.5 80.394531 171.496094 80.449219 171.496094 80.503906 C 171.496094 80.890625 171.511719 81.273438 171.5625 81.65625 Z M 171.679688 79.960938 C 171.710938 79.78125 171.761719 79.601562 171.761719 79.417969 C 171.761719 79.371094 171.761719 79.324219 171.761719 79.28125 C 171.808594 79.632812 171.796875 79.980469 171.71875 80.328125 C 171.6875 80.332031 171.660156 80.335938 171.628906 80.335938 C 171.648438 80.203125 171.660156 80.082031 171.679688 79.960938 Z M 171.679688 79.960938 " fill-opacity="1" fill-rule="nonzero"/></g><g clip-path="url(#47dda0c30e)"><path fill="#000000" d="M 21.660156 248.585938 C 21.363281 248.585938 21.109375 248.476562 20.902344 248.261719 C 20.714844 248.085938 20.503906 247.953125 20.269531 247.859375 C 20.035156 247.765625 19.789062 247.722656 19.539062 247.722656 C 19.285156 247.722656 19.042969 247.765625 18.808594 247.859375 C 18.574219 247.953125 18.363281 248.085938 18.175781 248.261719 L 18.15625 248.277344 C 17.449219 245.472656 14.003906 240.761719 13.851562 240.550781 C 13.75 240.429688 13.621094 240.367188 13.464844 240.367188 C 13.308594 240.367188 13.179688 240.429688 13.078125 240.550781 C 12.625 241.171875 8.644531 246.664062 8.644531 249.195312 C 8.644531 250.097656 8.871094 250.941406 9.328125 251.71875 C 9.785156 252.496094 10.40625 253.097656 11.191406 253.523438 C 11.976562 253.949219 12.8125 254.140625 13.703125 254.097656 C 14.589844 254.054688 15.40625 253.777344 16.144531 253.277344 C 16.253906 253.199219 16.324219 253.097656 16.347656 252.964844 C 16.375 252.828125 16.351562 252.707031 16.277344 252.59375 C 16.203125 252.480469 16.101562 252.414062 15.96875 252.386719 C 15.839844 252.359375 15.71875 252.382812 15.609375 252.460938 C 15.015625 252.863281 14.363281 253.082031 13.652344 253.117188 C 12.941406 253.152344 12.273438 253 11.644531 252.65625 C 11.019531 252.316406 10.523438 251.835938 10.15625 251.210938 C 9.789062 250.589844 9.609375 249.917969 9.609375 249.195312 C 9.609375 247.507812 12.109375 243.601562 13.464844 241.683594 C 14.398438 243.015625 16.742188 246.503906 17.230469 248.566406 C 17.011719 248.523438 16.820312 248.421875 16.65625 248.261719 C 16.472656 248.085938 16.261719 247.953125 16.027344 247.859375 C 15.792969 247.769531 15.546875 247.722656 15.296875 247.722656 C 15.042969 247.722656 14.800781 247.769531 14.566406 247.859375 C 14.332031 247.953125 14.121094 248.085938 13.933594 248.261719 C 13.726562 248.480469 13.472656 248.585938 13.175781 248.585938 C 13.042969 248.585938 12.929688 248.632812 12.835938 248.730469 C 12.742188 248.824219 12.695312 248.941406 12.695312 249.074219 C 12.695312 249.210938 12.742188 249.328125 12.835938 249.421875 C 12.929688 249.519531 13.042969 249.566406 13.175781 249.566406 C 13.699219 249.570312 14.152344 249.390625 14.539062 249.027344 C 14.636719 248.921875 14.753906 248.84375 14.882812 248.789062 C 15.015625 248.730469 15.152344 248.703125 15.296875 248.703125 C 15.4375 248.703125 15.574219 248.730469 15.707031 248.789062 C 15.839844 248.84375 15.953125 248.921875 16.054688 249.027344 C 16.242188 249.199219 16.453125 249.332031 16.6875 249.425781 C 16.921875 249.519531 17.164062 249.566406 17.417969 249.566406 C 17.667969 249.566406 17.914062 249.519531 18.148438 249.425781 C 18.382812 249.332031 18.59375 249.199219 18.777344 249.027344 C 18.878906 248.921875 18.996094 248.84375 19.128906 248.785156 C 19.257812 248.730469 19.398438 248.703125 19.539062 248.703125 C 19.683594 248.703125 19.820312 248.730469 19.953125 248.785156 C 20.082031 248.84375 20.199219 248.921875 20.300781 249.027344 C 20.683594 249.390625 21.136719 249.570312 21.660156 249.566406 C 21.792969 249.566406 21.90625 249.519531 22.003906 249.421875 C 22.097656 249.328125 22.144531 249.210938 22.144531 249.074219 C 22.144531 248.941406 22.097656 248.824219 22.003906 248.726562 C 21.90625 248.632812 21.792969 248.585938 21.660156 248.585938 Z M 21.660156 248.585938 " fill-opacity="1" fill-rule="nonzero"/></g><g clip-path="url(#cd4ae178c0)"><path fill="#000000" d="M 21.660156 250.605469 C 21.363281 250.609375 21.109375 250.5 20.902344 250.28125 C 20.714844 250.109375 20.503906 249.976562 20.269531 249.882812 C 20.035156 249.789062 19.789062 249.742188 19.539062 249.742188 C 19.285156 249.742188 19.042969 249.789062 18.808594 249.882812 C 18.574219 249.976562 18.363281 250.109375 18.175781 250.28125 C 18.074219 250.386719 17.960938 250.464844 17.828125 250.523438 C 17.695312 250.578125 17.558594 250.609375 17.417969 250.609375 C 17.273438 250.609375 17.136719 250.578125 17.003906 250.523438 C 16.871094 250.464844 16.757812 250.386719 16.65625 250.28125 C 16.46875 250.109375 16.261719 249.976562 16.023438 249.882812 C 15.789062 249.789062 15.546875 249.742188 15.292969 249.742188 C 15.042969 249.742188 14.800781 249.789062 14.5625 249.882812 C 14.328125 249.976562 14.117188 250.109375 13.933594 250.28125 C 13.726562 250.5 13.472656 250.609375 13.175781 250.605469 C 13.042969 250.605469 12.929688 250.65625 12.832031 250.75 C 12.738281 250.847656 12.691406 250.960938 12.691406 251.097656 C 12.691406 251.234375 12.738281 251.347656 12.832031 251.445312 C 12.929688 251.539062 13.042969 251.589844 13.175781 251.589844 C 13.699219 251.59375 14.152344 251.414062 14.535156 251.046875 C 14.636719 250.945312 14.75 250.863281 14.882812 250.808594 C 15.015625 250.753906 15.152344 250.722656 15.292969 250.722656 C 15.4375 250.722656 15.574219 250.753906 15.707031 250.808594 C 15.835938 250.863281 15.953125 250.945312 16.054688 251.046875 C 16.238281 251.222656 16.449219 251.355469 16.683594 251.449219 C 16.921875 251.542969 17.164062 251.589844 17.414062 251.589844 C 17.667969 251.589844 17.910156 251.542969 18.144531 251.449219 C 18.382812 251.355469 18.589844 251.222656 18.777344 251.046875 C 18.878906 250.945312 18.992188 250.863281 19.125 250.808594 C 19.257812 250.753906 19.394531 250.722656 19.539062 250.722656 C 19.679688 250.722656 19.820312 250.753906 19.949219 250.808594 C 20.082031 250.863281 20.199219 250.945312 20.300781 251.046875 C 20.683594 251.414062 21.136719 251.59375 21.660156 251.589844 C 21.792969 251.589844 21.90625 251.542969 22.003906 251.445312 C 22.097656 251.351562 22.144531 251.234375 22.144531 251.097656 C 22.144531 250.960938 22.097656 250.847656 22.003906 250.75 C 21.90625 250.65625 21.792969 250.605469 21.660156 250.605469 Z M 21.660156 250.605469 " fill-opacity="1" fill-rule="nonzero"/></g><g clip-path="url(#5102e82d3d)"><path fill="#000000" d="M 19.972656 246.738281 C 20.261719 246.738281 20.539062 246.683594 20.804688 246.570312 C 21.070312 246.457031 21.304688 246.296875 21.507812 246.089844 C 21.710938 245.882812 21.867188 245.644531 21.976562 245.375 C 22.089844 245.105469 22.144531 244.824219 22.144531 244.53125 C 22.144531 243.46875 20.65625 241.4375 20.355469 241.039062 C 20.257812 240.917969 20.128906 240.859375 19.972656 240.859375 C 19.820312 240.859375 19.691406 240.917969 19.589844 241.039062 C 19.292969 241.4375 17.804688 243.46875 17.804688 244.53125 C 17.804688 244.824219 17.859375 245.105469 17.96875 245.375 C 18.078125 245.644531 18.234375 245.882812 18.441406 246.089844 C 18.644531 246.296875 18.878906 246.457031 19.144531 246.570312 C 19.410156 246.683594 19.6875 246.738281 19.972656 246.738281 Z M 19.972656 242.171875 C 20.558594 243.023438 21.179688 244.085938 21.179688 244.53125 C 21.179688 244.691406 21.148438 244.847656 21.085938 245 C 21.027344 245.148438 20.9375 245.28125 20.828125 245.398438 C 20.714844 245.511719 20.582031 245.601562 20.433594 245.664062 C 20.289062 245.726562 20.132812 245.757812 19.972656 245.757812 C 19.8125 245.757812 19.660156 245.726562 19.511719 245.664062 C 19.363281 245.601562 19.234375 245.511719 19.121094 245.398438 C 19.007812 245.28125 18.921875 245.148438 18.859375 245 C 18.800781 244.847656 18.769531 244.691406 18.769531 244.53125 C 18.769531 244.085938 19.386719 243.023438 19.972656 242.171875 Z M 19.972656 242.171875 " fill-opacity="1" fill-rule="nonzero"/></g><g clip-path="url(#a9bdb64bee)"><path fill="#000000" d="M 365.566406 248.40625 C 359.800781 240.167969 347.058594 236.996094 337.144531 241.328125 L 328.835938 244.757812 C 319.855469 230.917969 305.414062 219.125 286.835938 210.507812 C 267.804688 201.679688 245.632812 196.800781 222.492188 196.304688 L 222.492188 136.769531 C 222.492188 134.582031 220.71875 132.804688 218.53125 132.804688 C 216.34375 132.804688 214.570312 134.582031 214.570312 136.769531 L 214.570312 196.304688 C 169.558594 197.308594 129.027344 215.195312 109.773438 242.605469 L 85.175781 242.605469 L 85.175781 235.324219 C 85.175781 227.859375 79.105469 221.789062 71.644531 221.789062 L 57.257812 221.789062 L 57.257812 215.371094 C 57.257812 213.183594 55.484375 211.410156 53.296875 211.410156 L 11.023438 211.410156 C 8.835938 211.410156 7.0625 213.183594 7.0625 215.371094 L 7.0625 370.953125 C 7.0625 373.144531 8.835938 374.917969 11.023438 374.917969 L 53.296875 374.917969 C 55.484375 374.917969 57.257812 373.144531 57.257812 370.953125 L 57.257812 362.582031 L 71.644531 362.582031 C 79.105469 362.582031 85.175781 356.507812 85.175781 349.046875 L 85.175781 339.757812 L 197.464844 365.816406 C 199.816406 366.332031 202.425781 366.574219 205.148438 366.574219 C 213.875 366.574219 223.785156 364.070312 230.289062 359.882812 L 359.28125 275.191406 C 364.023438 272.136719 367.339844 267.351562 368.378906 262.066406 C 369.332031 257.21875 368.332031 252.367188 365.566406 248.40625 Z M 49.335938 366.992188 L 14.984375 366.992188 L 14.984375 219.335938 L 49.335938 219.335938 Z M 77.253906 334.636719 C 77.253906 334.667969 77.253906 334.703125 77.253906 334.734375 L 77.253906 349.046875 C 77.253906 352.140625 74.738281 354.660156 71.644531 354.660156 L 57.257812 354.660156 L 57.257812 229.710938 L 71.644531 229.710938 C 74.738281 229.710938 77.253906 232.230469 77.253906 235.324219 Z M 218.574219 204.179688 C 262.875 204.179688 303.386719 221.566406 321.355469 247.84375 L 268.964844 269.464844 C 266.230469 260.929688 258.117188 254.8125 248.566406 254.8125 L 188.402344 254.8125 C 183.902344 254.8125 177.664062 254.148438 171.289062 252.988281 C 165.425781 251.910156 160 250.511719 156.003906 249.050781 L 155.652344 248.910156 C 155.621094 248.894531 155.589844 248.882812 155.554688 248.871094 C 146.558594 245.570312 133.511719 243.394531 119.597656 242.785156 C 139.167969 219.136719 176.988281 204.179688 218.574219 204.179688 Z M 360.605469 260.539062 C 359.980469 263.722656 357.933594 266.636719 354.960938 268.550781 L 225.972656 353.242188 C 219.25 357.566406 206.972656 359.78125 199.203125 358.085938 L 85.175781 331.625 L 85.175781 250.53125 L 111.667969 250.53125 C 127.554688 250.53125 142.914062 252.683594 152.78125 256.292969 L 153.128906 256.433594 C 153.160156 256.445312 153.191406 256.457031 153.222656 256.46875 C 157.632812 258.089844 163.539062 259.621094 169.863281 260.78125 C 176.792969 262.042969 183.375 262.738281 188.398438 262.738281 L 248.5625 262.738281 C 255.773438 262.738281 261.683594 268.199219 262.015625 275.171875 C 262.019531 275.207031 262.023438 275.246094 262.023438 275.285156 C 262.039062 275.449219 262.042969 275.621094 262.042969 275.789062 C 262.042969 276.617188 261.957031 277.453125 261.785156 278.285156 C 260.5625 284.398438 255 288.832031 248.5625 288.832031 L 188.492188 288.832031 C 186.773438 288.765625 170.691406 288.425781 157.320312 299.976562 C 155.664062 301.40625 155.480469 303.910156 156.910156 305.566406 C 157.695312 306.472656 158.800781 306.9375 159.910156 306.9375 C 160.828125 306.9375 161.75 306.621094 162.5 305.972656 C 173.855469 296.164062 188.050781 296.746094 188.179688 296.75 C 188.253906 296.753906 188.328125 296.757812 188.402344 296.757812 L 248.566406 296.757812 C 258.761719 296.757812 267.589844 289.644531 269.550781 279.863281 C 269.699219 279.136719 269.804688 278.398438 269.875 277.660156 L 340.203125 248.636719 C 340.230469 248.625 340.257812 248.613281 340.285156 248.601562 C 346.816406 245.730469 355.421875 247.722656 359.074219 252.949219 C 360.597656 255.125 361.140625 257.820312 360.605469 260.539062 Z M 360.605469 260.539062 " fill-opacity="1" fill-rule="nonzero"/></g><path fill="#000000" d="M 95.601562 108.054688 C 95.792969 109.664062 100.707031 147.71875 129.953125 166.359375 C 140.226562 172.90625 152.140625 176.183594 165.582031 176.183594 C 176.136719 176.183594 187.636719 174.164062 200.015625 170.117188 C 200.042969 170.109375 200.066406 170.09375 200.09375 170.085938 C 200.152344 170.0625 200.214844 170.046875 200.273438 170.023438 C 200.296875 170.015625 200.316406 170 200.339844 169.992188 C 200.476562 169.933594 200.605469 169.875 200.734375 169.800781 C 200.757812 169.789062 200.777344 169.773438 200.800781 169.757812 C 200.832031 169.742188 200.859375 169.71875 200.890625 169.699219 C 200.941406 169.667969 200.988281 169.640625 201.035156 169.605469 C 201.128906 169.542969 201.21875 169.472656 201.304688 169.398438 C 201.351562 169.363281 201.394531 169.324219 201.4375 169.285156 C 201.476562 169.25 201.519531 169.21875 201.558594 169.179688 C 201.578125 169.164062 201.59375 169.140625 201.613281 169.121094 C 201.710938 169.019531 201.808594 168.914062 201.898438 168.800781 C 201.917969 168.777344 201.929688 168.75 201.949219 168.726562 C 201.964844 168.707031 201.976562 168.683594 201.992188 168.664062 C 202.03125 168.609375 202.066406 168.558594 202.105469 168.5 C 202.132812 168.457031 202.167969 168.417969 202.195312 168.371094 C 202.214844 168.335938 202.226562 168.296875 202.246094 168.261719 C 202.285156 168.1875 202.324219 168.109375 202.363281 168.03125 C 202.402344 167.945312 202.4375 167.859375 202.472656 167.765625 C 202.503906 167.691406 202.53125 167.617188 202.554688 167.539062 C 202.578125 167.464844 202.597656 167.390625 202.617188 167.316406 C 202.640625 167.222656 202.660156 167.125 202.675781 167.027344 C 202.691406 166.949219 202.707031 166.867188 202.714844 166.789062 C 202.722656 166.710938 202.730469 166.632812 202.734375 166.550781 C 202.738281 166.457031 202.738281 166.363281 202.734375 166.265625 C 202.734375 166.183594 202.730469 166.101562 202.726562 166.019531 C 202.71875 165.933594 202.707031 165.847656 202.691406 165.761719 C 202.683594 165.714844 202.6875 165.667969 202.679688 165.617188 C 197.203125 136.511719 184.757812 116.449219 165.691406 105.984375 C 135.285156 89.300781 99.5625 103.292969 98.058594 103.894531 C 97.960938 103.933594 97.882812 103.992188 97.789062 104.035156 C 97.683594 104.089844 97.574219 104.140625 97.472656 104.203125 C 97.347656 104.277344 97.230469 104.367188 97.117188 104.453125 C 97.03125 104.519531 96.945312 104.585938 96.863281 104.660156 C 96.753906 104.761719 96.65625 104.867188 96.558594 104.980469 C 96.488281 105.0625 96.417969 105.144531 96.351562 105.230469 C 96.269531 105.34375 96.199219 105.460938 96.128906 105.582031 C 96.066406 105.683594 96.007812 105.785156 95.957031 105.890625 C 95.902344 106.007812 95.859375 106.128906 95.816406 106.25 C 95.773438 106.371094 95.730469 106.492188 95.699219 106.617188 C 95.667969 106.738281 95.652344 106.863281 95.632812 106.988281 C 95.613281 107.117188 95.59375 107.246094 95.585938 107.378906 C 95.578125 107.507812 95.585938 107.636719 95.59375 107.769531 C 95.597656 107.863281 95.585938 107.957031 95.601562 108.054688 Z M 161.925781 112.957031 C 176.863281 121.171875 187.265625 136.402344 192.933594 158.28125 L 144.921875 129.847656 C 143.039062 128.734375 140.609375 129.355469 139.496094 131.238281 C 138.378906 133.121094 139.003906 135.550781 140.886719 136.664062 L 188.898438 165.101562 C 166.992188 170.65625 148.640625 168.855469 134.253906 159.707031 C 112.722656 146.011719 105.789062 119.316406 103.996094 110.21875 C 112.832031 107.414062 139.566406 100.660156 161.925781 112.957031 Z M 161.925781 112.957031 " fill-opacity="1" fill-rule="nonzero"/><path fill="#000000" d="M 231.792969 165.761719 C 231.777344 165.855469 231.765625 165.949219 231.761719 166.042969 C 231.753906 166.109375 231.753906 166.175781 231.75 166.242188 C 231.75 166.347656 231.746094 166.449219 231.75 166.550781 C 231.757812 166.640625 231.761719 166.726562 231.773438 166.8125 C 231.78125 166.875 231.792969 166.941406 231.804688 167.003906 C 231.820312 167.109375 231.839844 167.214844 231.867188 167.316406 C 231.886719 167.398438 231.910156 167.480469 231.9375 167.5625 C 231.957031 167.625 231.980469 167.683594 232.003906 167.746094 C 232.042969 167.84375 232.078125 167.9375 232.121094 168.03125 C 232.160156 168.117188 232.207031 168.199219 232.25 168.28125 C 232.269531 168.308594 232.277344 168.339844 232.292969 168.371094 C 232.316406 168.410156 232.34375 168.441406 232.367188 168.480469 C 232.410156 168.546875 232.457031 168.613281 232.503906 168.679688 C 232.535156 168.722656 232.5625 168.769531 232.59375 168.8125 C 232.671875 168.90625 232.753906 168.992188 232.839844 169.082031 C 232.871094 169.117188 232.902344 169.15625 232.9375 169.191406 C 232.96875 169.21875 233 169.246094 233.03125 169.273438 C 233.085938 169.320312 233.140625 169.367188 233.199219 169.414062 C 233.277344 169.476562 233.355469 169.539062 233.4375 169.597656 C 233.492188 169.636719 233.550781 169.671875 233.609375 169.707031 C 233.625 169.714844 233.636719 169.726562 233.652344 169.734375 C 233.691406 169.757812 233.722656 169.78125 233.757812 169.804688 C 233.875 169.867188 233.996094 169.921875 234.117188 169.976562 C 234.152344 169.992188 234.183594 170.007812 234.21875 170.023438 C 234.273438 170.042969 234.328125 170.058594 234.382812 170.078125 C 234.414062 170.089844 234.4375 170.105469 234.46875 170.117188 C 246.851562 174.160156 258.347656 176.183594 268.902344 176.183594 C 282.34375 176.183594 294.261719 172.902344 304.535156 166.355469 C 333.78125 147.714844 338.691406 109.660156 338.886719 108.050781 C 338.898438 107.964844 338.886719 107.878906 338.890625 107.792969 C 338.898438 107.652344 338.90625 107.507812 338.902344 107.363281 C 338.894531 107.242188 338.875 107.125 338.859375 107.007812 C 338.839844 106.871094 338.820312 106.738281 338.785156 106.605469 C 338.757812 106.488281 338.714844 106.378906 338.675781 106.265625 C 338.632812 106.132812 338.585938 106.007812 338.527344 105.882812 C 338.476562 105.78125 338.421875 105.6875 338.367188 105.589844 C 338.292969 105.464844 338.21875 105.339844 338.128906 105.222656 C 338.070312 105.140625 338.003906 105.066406 337.9375 104.988281 C 337.835938 104.871094 337.730469 104.757812 337.617188 104.652344 C 337.542969 104.585938 337.464844 104.527344 337.386719 104.464844 C 337.265625 104.371094 337.140625 104.277344 337.003906 104.195312 C 336.914062 104.140625 336.816406 104.09375 336.722656 104.046875 C 336.621094 103.996094 336.53125 103.933594 336.425781 103.890625 C 334.921875 103.289062 299.203125 89.296875 268.800781 105.980469 C 249.730469 116.441406 237.28125 136.507812 231.804688 165.617188 C 231.796875 165.667969 231.800781 165.714844 231.792969 165.761719 Z M 272.5625 112.957031 C 294.921875 100.660156 321.65625 107.414062 330.488281 110.21875 C 328.699219 119.316406 321.765625 146.011719 300.234375 159.703125 C 285.847656 168.851562 267.492188 170.652344 245.589844 165.101562 L 293.601562 136.664062 C 295.484375 135.550781 296.105469 133.121094 294.992188 131.238281 C 293.878906 129.355469 291.449219 128.730469 289.566406 129.847656 L 241.550781 158.28125 C 247.222656 136.402344 257.625 121.171875 272.5625 112.957031 Z M 272.5625 112.957031 " fill-opacity="1" fill-rule="nonzero"/><path fill="#000000" d="M 215.304688 122.5 C 215.355469 122.546875 215.414062 122.574219 215.464844 122.617188 C 215.523438 122.660156 215.578125 122.710938 215.636719 122.75 C 215.683594 122.78125 215.730469 122.808594 215.773438 122.835938 C 215.894531 122.914062 216.019531 122.980469 216.148438 123.039062 C 216.210938 123.070312 216.269531 123.109375 216.332031 123.136719 C 216.359375 123.148438 216.394531 123.160156 216.421875 123.171875 C 216.585938 123.234375 216.75 123.28125 216.917969 123.324219 C 216.976562 123.339844 217.03125 123.363281 217.085938 123.375 C 217.101562 123.378906 217.113281 123.378906 217.128906 123.378906 C 217.378906 123.429688 217.628906 123.457031 217.882812 123.457031 C 217.890625 123.457031 217.898438 123.457031 217.90625 123.457031 C 217.914062 123.457031 217.917969 123.457031 217.925781 123.457031 C 217.953125 123.457031 217.976562 123.449219 218.003906 123.445312 C 218.222656 123.441406 218.4375 123.417969 218.652344 123.378906 C 218.710938 123.363281 218.769531 123.347656 218.828125 123.332031 C 218.855469 123.324219 218.882812 123.3125 218.910156 123.304688 C 219.070312 123.261719 219.226562 123.21875 219.382812 123.152344 C 219.414062 123.140625 219.445312 123.132812 219.476562 123.121094 C 219.546875 123.089844 219.613281 123.042969 219.679688 123.007812 C 219.800781 122.949219 219.921875 122.882812 220.035156 122.808594 C 220.085938 122.777344 220.132812 122.75 220.179688 122.71875 C 220.246094 122.671875 220.304688 122.617188 220.367188 122.5625 C 220.417969 122.519531 220.476562 122.488281 220.527344 122.445312 C 242.566406 102.65625 253.257812 81.605469 252.304688 59.867188 C 250.789062 25.214844 220.296875 1.933594 219 0.957031 C 218.933594 0.90625 218.859375 0.875 218.792969 0.832031 C 218.667969 0.75 218.542969 0.667969 218.410156 0.601562 C 218.304688 0.546875 218.199219 0.503906 218.085938 0.460938 C 217.957031 0.410156 217.832031 0.359375 217.699219 0.324219 C 217.582031 0.289062 217.464844 0.269531 217.347656 0.246094 C 217.214844 0.222656 217.082031 0.199219 216.949219 0.1875 C 216.832031 0.175781 216.71875 0.179688 216.605469 0.179688 C 216.464844 0.179688 216.324219 0.183594 216.179688 0.199219 C 216.074219 0.210938 215.96875 0.230469 215.867188 0.25 C 215.71875 0.28125 215.578125 0.3125 215.433594 0.355469 C 215.332031 0.386719 215.234375 0.429688 215.132812 0.472656 C 214.996094 0.527344 214.863281 0.582031 214.730469 0.65625 C 214.628906 0.710938 214.535156 0.777344 214.4375 0.84375 C 214.351562 0.898438 214.257812 0.941406 214.175781 1.007812 C 212.898438 2.011719 182.925781 25.957031 182.167969 60.636719 C 181.691406 82.386719 192.839844 103.203125 215.304688 122.5 Z M 190.085938 60.863281 C 190.617188 35.332031 209.839844 15.558594 216.679688 9.316406 C 223.648438 15.402344 243.304688 34.753906 244.394531 60.265625 C 245.121094 77.300781 237.503906 94.101562 221.746094 110.300781 L 221.132812 54.492188 C 221.109375 52.304688 219.308594 50.535156 217.128906 50.574219 C 214.941406 50.597656 213.1875 52.390625 213.210938 54.578125 L 213.824219 110.386719 C 197.714844 94.535156 189.730469 77.910156 190.085938 60.863281 Z M 190.085938 60.863281 " fill-opacity="1" fill-rule="nonzero"/></svg>