<svg xmlns="http://www.w3.org/2000/svg" xmlns:xlink="http://www.w3.org/1999/xlink" width="500" zoomAndPan="magnify" viewBox="0 0 375 374.999991" height="500" preserveAspectRatio="xMidYMid meet" version="1.0"><defs><clipPath id="8036be4e62"><path d="M 187.5 54 L 190 54 L 190 56 L 187.5 56 Z M 187.5 54 " clip-rule="nonzero"/></clipPath><clipPath id="f4ad7a84a8"><path d="M 193 54 L 195 54 L 195 56 L 193 56 Z M 193 54 " clip-rule="nonzero"/></clipPath><clipPath id="821aa03572"><path d="M 191 51.390625 L 192 51.390625 L 192 53 L 191 53 Z M 191 51.390625 " clip-rule="nonzero"/></clipPath><clipPath id="f219b71a39"><path d="M 189 57 L 191 57 L 191 58.890625 L 189 58.890625 Z M 189 57 " clip-rule="nonzero"/></clipPath><clipPath id="b0d97bbc17"><path d="M 191 57 L 193 57 L 193 58.890625 L 191 58.890625 Z M 191 57 " clip-rule="nonzero"/></clipPath><clipPath id="eda742af7f"><path d="M 64 0 L 326.671875 0 L 326.671875 374 L 64 374 Z M 64 0 " clip-rule="nonzero"/></clipPath><clipPath id="c7b8cf50ba"><path d="M 170.089844 73.234375 L 177.589844 73.234375 L 177.589844 83.734375 L 170.089844 83.734375 Z M 170.089844 73.234375 " clip-rule="nonzero"/></clipPath></defs><path fill="#100f0d" d="M 191.25 56.546875 C 190.421875 56.546875 189.75 55.882812 189.75 55.070312 C 189.75 54.257812 190.421875 53.59375 191.25 53.59375 C 192.082031 53.59375 192.753906 54.257812 192.753906 55.070312 C 192.753906 55.882812 192.082031 56.546875 191.25 56.546875 Z M 193.121094 55.070312 C 193.121094 54.058594 192.28125 53.238281 191.25 53.238281 C 190.222656 53.238281 189.382812 54.058594 189.382812 55.070312 C 189.382812 56.082031 190.222656 56.902344 191.25 56.902344 C 192.28125 56.902344 193.121094 56.082031 193.121094 55.070312 " fill-opacity="1" fill-rule="nonzero"/><g clip-path="url(#8036be4e62)"><path fill="#100f0d" d="M 189.066406 55.070312 C 189.066406 54.972656 188.984375 54.894531 188.886719 54.894531 L 187.683594 54.894531 C 187.582031 54.894531 187.5 54.972656 187.5 55.070312 C 187.5 55.167969 187.582031 55.246094 187.683594 55.246094 L 188.886719 55.246094 C 188.984375 55.246094 189.066406 55.167969 189.066406 55.070312 " fill-opacity="1" fill-rule="nonzero"/></g><g clip-path="url(#f4ad7a84a8)"><path fill="#100f0d" d="M 194.820312 54.894531 L 193.617188 54.894531 C 193.566406 54.894531 193.523438 54.914062 193.488281 54.945312 C 193.457031 54.976562 193.4375 55.019531 193.4375 55.070312 C 193.4375 55.167969 193.519531 55.246094 193.617188 55.246094 L 194.820312 55.246094 C 194.921875 55.246094 195.003906 55.167969 195.003906 55.070312 C 195.003906 54.972656 194.921875 54.894531 194.820312 54.894531 " fill-opacity="1" fill-rule="nonzero"/></g><path fill="#100f0d" d="M 189.382812 53.484375 C 189.453125 53.554688 189.566406 53.554688 189.636719 53.484375 C 189.707031 53.414062 189.707031 53.304688 189.636719 53.234375 L 188.785156 52.398438 C 188.714844 52.328125 188.601562 52.328125 188.53125 52.398438 C 188.460938 52.46875 188.460938 52.578125 188.53125 52.648438 L 189.382812 53.484375 " fill-opacity="1" fill-rule="nonzero"/><path fill="#100f0d" d="M 193.121094 56.65625 C 193.085938 56.621094 193.042969 56.601562 192.996094 56.601562 C 192.949219 56.601562 192.902344 56.621094 192.867188 56.65625 C 192.796875 56.722656 192.796875 56.835938 192.867188 56.90625 L 193.71875 57.742188 C 193.789062 57.808594 193.902344 57.808594 193.972656 57.742188 C 194.042969 57.671875 194.042969 57.558594 193.972656 57.492188 L 193.121094 56.65625 " fill-opacity="1" fill-rule="nonzero"/><g clip-path="url(#821aa03572)"><path fill="#100f0d" d="M 191.25 52.925781 C 191.351562 52.925781 191.433594 52.847656 191.433594 52.746094 L 191.433594 51.566406 C 191.433594 51.46875 191.351562 51.390625 191.25 51.390625 C 191.152344 51.390625 191.070312 51.46875 191.070312 51.566406 L 191.070312 52.746094 C 191.070312 52.847656 191.152344 52.925781 191.25 52.925781 " fill-opacity="1" fill-rule="nonzero"/></g><path fill="#100f0d" d="M 193.121094 53.484375 L 193.972656 52.648438 C 194.042969 52.578125 194.042969 52.46875 193.972656 52.398438 C 193.902344 52.328125 193.789062 52.328125 193.71875 52.398438 L 192.867188 53.234375 C 192.796875 53.304688 192.796875 53.414062 192.867188 53.484375 C 192.9375 53.554688 193.050781 53.554688 193.121094 53.484375 " fill-opacity="1" fill-rule="nonzero"/><path fill="#100f0d" d="M 189.382812 56.65625 L 188.53125 57.492188 C 188.460938 57.558594 188.460938 57.671875 188.53125 57.742188 C 188.601562 57.808594 188.714844 57.808594 188.785156 57.742188 L 189.636719 56.90625 C 189.671875 56.871094 189.6875 56.824219 189.6875 56.78125 C 189.6875 56.734375 189.671875 56.691406 189.636719 56.65625 C 189.566406 56.585938 189.453125 56.585938 189.382812 56.65625 " fill-opacity="1" fill-rule="nonzero"/><g clip-path="url(#f219b71a39)"><path fill="#100f0d" d="M 190.832031 57.410156 C 190.769531 57.410156 190.730469 57.4375 190.710938 57.460938 C 190.683594 57.492188 190.667969 57.535156 190.667969 57.578125 L 190.667969 58.296875 C 190.667969 58.347656 190.65625 58.390625 190.632812 58.429688 C 190.609375 58.46875 190.578125 58.5 190.535156 58.523438 C 190.457031 58.566406 190.363281 58.570312 190.28125 58.523438 C 190.242188 58.5 190.214844 58.472656 190.191406 58.429688 C 190.164062 58.390625 190.15625 58.347656 190.15625 58.296875 L 190.15625 57.578125 C 190.15625 57.53125 190.136719 57.492188 190.101562 57.457031 C 190.035156 57.394531 189.921875 57.398438 189.859375 57.457031 C 189.828125 57.488281 189.808594 57.53125 189.808594 57.578125 L 189.808594 58.296875 C 189.808594 58.40625 189.835938 58.507812 189.886719 58.597656 C 189.9375 58.6875 190.007812 58.761719 190.101562 58.8125 C 190.191406 58.863281 190.292969 58.886719 190.40625 58.886719 C 190.519531 58.886719 190.621094 58.863281 190.710938 58.8125 C 190.800781 58.761719 190.871094 58.6875 190.921875 58.597656 C 190.972656 58.507812 191 58.40625 191 58.296875 L 191 57.578125 C 191 57.53125 190.984375 57.492188 190.953125 57.460938 C 190.921875 57.429688 190.882812 57.410156 190.832031 57.410156 " fill-opacity="1" fill-rule="nonzero"/></g><g clip-path="url(#b0d97bbc17)"><path fill="#100f0d" d="M 192.425781 57.449219 C 192.402344 57.464844 192.382812 57.488281 192.363281 57.523438 L 192.042969 58.3125 L 191.703125 57.523438 C 191.671875 57.453125 191.617188 57.417969 191.546875 57.417969 C 191.503906 57.417969 191.464844 57.433594 191.433594 57.460938 C 191.394531 57.492188 191.375 57.535156 191.375 57.582031 C 191.375 57.609375 191.382812 57.636719 191.390625 57.652344 L 191.878906 58.785156 C 191.894531 58.8125 191.914062 58.835938 191.941406 58.855469 C 191.964844 58.871094 191.996094 58.878906 192.03125 58.882812 C 192.0625 58.882812 192.09375 58.875 192.125 58.855469 C 192.152344 58.839844 192.175781 58.8125 192.191406 58.777344 L 192.679688 57.652344 C 192.6875 57.625 192.695312 57.601562 192.695312 57.582031 C 192.695312 57.535156 192.675781 57.492188 192.640625 57.460938 C 192.582031 57.414062 192.492188 57.402344 192.425781 57.449219 " fill-opacity="1" fill-rule="nonzero"/></g><g clip-path="url(#eda742af7f)"><path fill="#000000" d="M 244.425781 22.488281 C 235.722656 16.945312 226.375 12.597656 216.3125 10.179688 C 204.394531 7.316406 192.378906 4.84375 180.382812 2.296875 C 169.988281 0.0976562 159.574219 0.175781 149.183594 2.410156 C 134.808594 5.5 121.566406 11.101562 110.4375 20.855469 C 94.011719 35.257812 81.183594 52.429688 72.332031 72.421875 C 69.960938 77.773438 68.160156 83.414062 66.476562 89.03125 C 63.417969 99.214844 64.492188 109.199219 69.003906 118.738281 C 71.082031 123.132812 73.621094 127.335938 76.136719 131.511719 C 79.28125 136.726562 83.632812 140.8125 88.734375 144.101562 C 103.761719 153.796875 120.1875 156.769531 137.722656 154.019531 C 145.792969 152.753906 153.726562 150.863281 161.34375 147.269531 C 161.585938 148.070312 161.859375 148.699219 161.964844 149.359375 C 162.5 152.703125 163.054688 156.042969 163.484375 159.402344 C 164.679688 168.695312 165.839844 177.980469 165.085938 187.402344 C 164.0625 200.214844 163.234375 213.042969 162.328125 225.863281 C 161.234375 241.269531 159.863281 256.664062 159.132812 272.085938 C 158.382812 288.324219 156.800781 304.484375 154.386719 320.558594 C 152.980469 329.914062 151.484375 339.265625 150.351562 348.652344 C 149.679688 354.222656 150.109375 359.832031 152.292969 365.121094 C 155.496094 372.863281 163.902344 374.265625 169.3125 367.832031 C 170.867188 365.984375 172.109375 363.609375 172.683594 361.277344 C 173.53125 357.828125 173.90625 354.210938 174.027344 350.652344 C 174.503906 336.988281 175.402344 323.375 177.921875 309.917969 C 180.4375 296.5 183.019531 283.097656 185.664062 269.707031 C 188.390625 255.945312 189.636719 242.085938 188.703125 228.078125 C 187.835938 215.050781 186.816406 202.035156 185.828125 189.019531 C 185.152344 180.074219 184.308594 171.144531 183.75 162.195312 C 183.347656 155.730469 183.34375 149.246094 183.042969 142.773438 C 182.957031 140.941406 183.636719 140.105469 185.335938 139.554688 C 188.269531 138.605469 191.105469 137.335938 194.035156 136.351562 C 205.804688 132.386719 216.964844 127.382812 227.097656 119.941406 C 237.980469 111.945312 246.921875 102.4375 253.851562 90.894531 C 258.855469 82.5625 262.328125 73.738281 263.375 64.066406 C 265.277344 46.496094 259.679688 32.203125 244.425781 22.488281 Z M 254.734375 74.28125 C 246.6875 85.386719 233.695312 91.328125 220.507812 94.257812 C 209.527344 96.703125 196 98.632812 185.605469 93.160156 C 188.480469 93.726562 191.351562 93.707031 194.214844 93.105469 C 202.96875 91.253906 211.617188 86.511719 219.117188 81.769531 C 226.125 77.328125 232.550781 72.164062 238.394531 66.277344 C 244.238281 60.390625 249.355469 53.929688 253.746094 46.894531 C 254.910156 49.515625 255.675781 52.421875 256.042969 55.613281 C 256.785156 62.007812 256.128906 68.191406 254.734375 74.28125 Z M 126.796875 40.921875 C 127.945312 45.753906 129.675781 50.386719 131.503906 55.003906 C 133.027344 58.847656 134.503906 62.789062 137.066406 66.082031 C 139.589844 69.320312 143.136719 71.382812 146.550781 73.546875 L 159.257812 81.609375 C 159.175781 81.789062 159.089844 81.976562 159.011719 82.15625 C 158.890625 82.441406 158.78125 82.722656 158.671875 83.011719 C 149.308594 82.695312 141.03125 77.429688 133.273438 72.542969 C 124.996094 67.328125 115.855469 60.542969 115.488281 49.828125 C 115.484375 49.507812 115.382812 49.222656 115.179688 48.972656 C 118.648438 45.707031 122.546875 43.066406 126.796875 40.921875 Z M 112.734375 51.46875 C 113.851562 61.625 121.933594 68.664062 130.152344 73.96875 C 137.753906 78.875 145.988281 84.191406 155.050781 85.570312 C 146.402344 89.210938 135.742188 85.734375 127.507812 82.332031 C 117.769531 78.300781 108.742188 71.628906 104.535156 61.726562 C 106.3125 59.546875 108.082031 57.359375 109.75 55.097656 C 110.683594 53.839844 111.675781 52.628906 112.730469 51.46875 Z M 102.515625 64.195312 C 107.207031 73.851562 115.96875 80.546875 125.816406 84.714844 C 135.230469 88.703125 147.46875 92.546875 157.214844 87.75 C 157.070312 88.363281 156.9375 88.984375 156.8125 89.605469 C 156.746094 89.652344 156.683594 89.703125 156.628906 89.757812 C 152.492188 93.902344 147.367188 96.867188 141.636719 98.164062 C 135.4375 99.5625 128.773438 98.960938 122.523438 98.191406 C 116.425781 97.441406 110.34375 96.074219 104.652344 93.726562 C 98.960938 91.378906 92.527344 87.9375 90.019531 82 C 89.992188 81.941406 89.964844 81.882812 89.929688 81.828125 C 92.914062 76.851562 96.304688 72.128906 99.878906 67.507812 C 100.746094 66.394531 101.628906 65.292969 102.515625 64.195312 Z M 88.234375 84.769531 C 94.3125 95.515625 109.917969 99.371094 121.144531 100.890625 C 128.097656 101.832031 135.488281 102.507812 142.402344 100.9375 C 146.464844 100 150.210938 98.347656 153.640625 95.980469 C 153.53125 96.414062 153.449219 96.855469 153.394531 97.300781 C 153.371094 97.503906 153.40625 97.695312 153.496094 97.878906 C 148.433594 111.203125 133.304688 116.070312 120.078125 116.605469 C 106.074219 117.171875 89.078125 115.179688 81.128906 102.050781 C 81.773438 99.496094 82.582031 97 83.558594 94.554688 C 84.90625 91.191406 86.464844 87.929688 88.234375 84.769531 Z M 80.222656 122.902344 C 79.277344 117.25 79.304688 111.601562 80.300781 105.957031 C 89.496094 118.125 106.695312 120.207031 121.113281 119.4375 C 132.503906 118.828125 144.742188 115.03125 151.914062 106.265625 C 145.675781 117.390625 135.460938 126.21875 123.601562 130.964844 C 110.617188 136.160156 86.847656 138.769531 80.222656 122.902344 Z M 160.609375 79.0625 L 149.90625 72.265625 C 146.082031 69.839844 141.734375 67.625 139.007812 63.902344 C 136.476562 60.445312 135.050781 56.242188 133.511719 52.28125 C 131.902344 48.152344 130.445312 43.984375 129.457031 39.660156 C 131.109375 38.929688 132.804688 38.257812 134.546875 37.652344 C 139.425781 35.957031 144.417969 34.738281 149.523438 33.988281 C 149.476562 34.148438 149.457031 34.316406 149.46875 34.488281 C 147.832031 42.726562 149.46875 50.90625 152.300781 58.699219 C 154.675781 65.222656 157.449219 71.824219 161.804688 77.289062 C 161.378906 77.859375 160.976562 78.453125 160.609375 79.0625 Z M 165.519531 32.8125 C 166.128906 39.832031 166.546875 46.800781 165.96875 53.84375 C 165.390625 60.890625 164.574219 67.945312 163.859375 74.988281 C 163.8125 75.027344 163.769531 75.0625 163.722656 75.101562 C 159.785156 70.042969 157.253906 63.914062 155.078125 57.941406 C 152.433594 50.667969 150.714844 42.953125 152.25 35.246094 C 152.261719 35.179688 152.265625 35.113281 152.269531 35.042969 C 152.644531 34.589844 152.929688 34.085938 153.125 33.53125 C 155.722656 33.25 158.335938 33.082031 160.964844 33.015625 C 162.492188 32.980469 164.007812 32.902344 165.519531 32.8125 Z M 168.386719 32.617188 C 173.980469 32.167969 179.539062 31.429688 185.105469 30.6875 C 184.097656 39.039062 182.324219 47.222656 179.78125 55.238281 C 177.605469 62.0625 174.597656 68.726562 169.019531 73.378906 C 168.304688 73.296875 167.601562 73.328125 166.898438 73.472656 C 167.574219 66.933594 168.3125 60.390625 168.855469 53.839844 C 169.433594 46.730469 169.003906 39.695312 168.386719 32.613281 Z M 217.851562 29.085938 C 222.351562 29.433594 226.800781 30.117188 231.199219 31.128906 C 232.328125 31.390625 233.457031 31.703125 234.570312 32.046875 C 230.308594 44.75 223.730469 56.789062 213.625 65.800781 C 204.347656 74.078125 189.574219 81.699219 177.066406 76.839844 C 186.445312 76.097656 194.339844 68.828125 200.335938 61.664062 C 208.304688 52.136719 215.550781 41.554688 217.847656 29.136719 C 217.847656 29.117188 217.847656 29.101562 217.851562 29.082031 Z M 199.539062 58.125 C 192.980469 66.160156 184.046875 75.613281 172.820312 73.8125 C 177.457031 69.183594 180.242188 63.0625 182.289062 56.851562 C 185.128906 48.230469 186.964844 39.304688 188.035156 30.296875 L 188.644531 30.214844 C 197.425781 29.066406 206.207031 28.4375 214.960938 28.894531 C 212.777344 39.949219 206.585938 49.503906 199.539062 58.125 Z M 252.179688 43.941406 C 244.367188 56.910156 233.867188 68.191406 221.394531 76.8125 C 214.875 81.320312 207.855469 85.167969 200.484375 88.082031 C 196.035156 89.84375 191.003906 91.558594 186.167969 90.527344 C 183.78125 90.019531 181.609375 88.824219 180.074219 87.085938 C 180.011719 86.886719 179.960938 86.683594 179.894531 86.484375 C 179.175781 84.230469 178.304688 81.96875 177.164062 79.902344 C 189.679688 83.988281 203.792969 77.566406 213.539062 69.648438 C 225.128906 60.230469 232.59375 46.953125 237.304688 32.96875 C 238.671875 33.476562 240.015625 34.035156 241.328125 34.640625 C 246.144531 36.875 249.722656 40.003906 252.179688 43.941406 Z M 74.894531 110.078125 C 74.605469 113.011719 74.851562 115.980469 74.851562 119.410156 C 74.335938 118.765625 74.046875 118.515625 73.890625 118.191406 C 69.867188 109.855469 68.363281 101.203125 70.53125 92.054688 C 71.957031 86.023438 73.941406 80.179688 76.480469 74.527344 C 85.203125 55.136719 97.558594 38.425781 113.550781 24.390625 C 123.820312 15.375 136.070312 10.195312 149.304688 7.195312 C 154.382812 6.027344 159.527344 5.433594 164.734375 5.40625 C 169.945312 5.378906 175.09375 5.925781 180.183594 7.042969 C 192.167969 9.640625 204.199219 12.070312 216.101562 15.007812 C 225.449219 17.3125 234.0625 21.574219 242.238281 26.648438 C 246.074219 29 249.316406 31.992188 251.96875 35.625 C 248.410156 33.476562 245.507812 31.535156 242.4375 29.90625 C 236.789062 26.917969 230.53125 26.066406 224.316406 25.117188 C 211.34375 23.136719 198.390625 23.988281 185.546875 25.917969 C 175.351562 27.449219 165.113281 28.023438 154.867188 28.726562 C 143.890625 29.484375 133.4375 32.253906 123.609375 37.238281 C 118.03125 40.066406 113.066406 43.734375 109.078125 48.574219 C 101.402344 57.886719 93.589844 67.117188 87.121094 77.328125 C 80.761719 87.359375 76.070312 98.105469 74.894531 110.078125 Z M 87.714844 137.519531 C 85.367188 135.644531 83.546875 133.574219 82.324219 130.867188 C 92.253906 140.21875 110.773438 138.75 122.808594 134.335938 C 135.835938 129.558594 146.949219 120.367188 153.902344 108.492188 C 152.15625 119.636719 144.855469 129.3125 137.90625 137.890625 C 134.089844 142.605469 129.777344 146.808594 123.707031 148.289062 C 119.800781 149.242188 115.761719 149.1875 111.753906 148.757812 C 103.039062 146.886719 94.945312 143.300781 87.710938 137.519531 Z M 126.890625 150.300781 C 131.882812 148.417969 135.863281 144.859375 139.332031 140.679688 C 145.890625 132.777344 152.570312 123.964844 155.5625 114.019531 C 155.851562 115.917969 156.191406 117.8125 156.507812 119.714844 C 156.953125 129.574219 154.777344 141.277344 147.121094 147.28125 C 140.496094 149.085938 133.765625 150.226562 126.886719 150.300781 Z M 155.136719 144.78125 C 154.375 145.046875 153.613281 145.304688 152.847656 145.554688 C 155.734375 141.75 157.527344 137.003906 158.492188 132.03125 C 159.042969 135.386719 159.613281 138.792969 160.1875 142.308594 C 158.640625 143.074219 156.960938 144.140625 155.128906 144.78125 Z M 183.574219 221.867188 C 183.980469 229.421875 184.230469 237.003906 184.085938 244.566406 C 183.886719 255.164062 181.765625 265.542969 179.621094 275.886719 C 176.453125 291.207031 173.261719 306.523438 171.378906 322.058594 C 170.523438 329.171875 170.179688 336.351562 169.683594 343.5 C 169.4375 347.078125 169.488281 350.679688 169.167969 354.25 C 168.953125 356.613281 168.554688 359.023438 167.773438 361.246094 C 167.148438 362.945312 166.164062 364.402344 164.820312 365.621094 C 161.941406 368.203125 158.707031 367.453125 156.964844 363.988281 C 155.410156 360.894531 155.019531 357.523438 154.910156 354.121094 C 154.691406 347.402344 155.726562 340.800781 156.867188 334.222656 C 159.96875 316.347656 162.582031 298.421875 163.347656 280.261719 C 163.761719 270.308594 164.214844 260.351562 164.960938 250.417969 C 165.929688 237.503906 167.269531 224.617188 168.320312 211.710938 C 168.984375 203.570312 169.40625 195.410156 169.9375 187.253906 C 170.445312 178.046875 169.382812 168.949219 168.347656 159.828125 C 167.355469 151.089844 165.140625 142.605469 163.570312 133.984375 C 162.175781 126.34375 160.46875 118.691406 159.953125 110.972656 C 159.34375 101.851562 159.914062 92.652344 163.335938 83.941406 C 163.964844 82.363281 164.808594 80.910156 165.867188 79.582031 C 167.296875 77.792969 169.191406 77.609375 170.789062 79.242188 C 172.078125 80.558594 173.136719 82.210938 173.929688 83.890625 C 176.070312 88.449219 177.0625 93.363281 177.511719 98.328125 C 178 103.679688 178.246094 109.0625 178.335938 114.4375 C 178.574219 128.984375 178.378906 143.546875 178.917969 158.082031 C 179.347656 169.722656 180.613281 181.328125 181.484375 192.953125 C 182.203125 202.585938 183.046875 212.21875 183.566406 221.867188 Z M 185.609375 134.480469 C 184.96875 134.722656 184.308594 134.90625 183.074219 135.304688 C 183.074219 133.796875 183.082031 132.722656 183.074219 131.648438 C 183.027344 126.074219 183.023438 120.5 182.976562 114.925781 C 184.699219 117.753906 186.804688 120.375 188.808594 122.609375 C 192.34375 126.554688 196.660156 128.394531 201.429688 128.613281 C 196.191406 130.652344 190.878906 132.527344 185.605469 134.480469 Z M 225.003906 115.5 C 221.882812 117.648438 218.863281 119.972656 215.589844 121.863281 C 214.796875 122.324219 213.992188 122.773438 213.183594 123.214844 C 212.207031 123.609375 211.207031 123.972656 210.191406 124.289062 C 209.140625 124.617188 208.171875 124.878906 207.253906 125.308594 C 207.078125 125.285156 206.90625 125.289062 206.730469 125.324219 C 200.167969 126.667969 194.617188 125.078125 190.273438 119.910156 C 187.523438 116.636719 184.304688 112.421875 182.878906 108.054688 C 182.855469 106.75 182.835938 105.441406 182.796875 104.136719 C 182.777344 103.34375 182.742188 102.550781 182.691406 101.757812 C 191.597656 108.515625 204.363281 109.035156 215.070312 107.902344 C 224.511719 106.898438 233.449219 104.222656 241.886719 99.871094 C 237.007812 105.894531 231.378906 111.101562 225 115.5 Z M 248.292969 90.90625 C 247.621094 91.988281 246.921875 93.042969 246.214844 94.082031 C 237.09375 99.851562 226.785156 103.609375 216.03125 104.914062 C 204.914062 106.257812 190.902344 106.011719 182.378906 97.707031 C 182.359375 97.6875 182.335938 97.675781 182.316406 97.660156 C 182.175781 96.496094 181.996094 95.339844 181.789062 94.183594 C 192.957031 101.527344 207.710938 99.917969 220.265625 97.257812 C 232.414062 94.695312 244.367188 89.652344 252.992188 80.800781 C 252.921875 81.035156 252.851562 81.269531 252.78125 81.503906 C 251.71875 84.867188 250.148438 87.933594 248.289062 90.90625 Z M 326.203125 160.441406 C 325.234375 154.984375 321.855469 151.332031 317.132812 148.902344 C 314.671875 147.640625 311.96875 146.804688 309.316406 145.960938 C 305.234375 144.660156 301.054688 143.65625 296.996094 142.289062 C 291.121094 140.308594 285.128906 138.898438 279.023438 137.8125 C 266.015625 135.503906 253.625 137.570312 242.324219 144.078125 C 232.082031 149.984375 223.003906 157.585938 215.960938 167.230469 C 210.269531 175.027344 205.746094 183.507812 204.285156 193.167969 C 202.960938 201.929688 205.738281 209.351562 213.273438 214.484375 C 215.472656 215.988281 217.921875 217.34375 220.449219 218.109375 C 224.917969 219.449219 229.523438 220.375 234.101562 221.324219 C 236.675781 221.855469 239.316406 222.09375 242.105469 222.492188 C 241.246094 225.011719 240.535156 227.082031 239.828125 229.15625 C 235.265625 242.570312 230.257812 255.808594 223.105469 268.097656 C 215.351562 281.414062 208.933594 295.300781 204.175781 309.964844 C 200.699219 320.667969 196.992188 331.296875 193.457031 341.984375 C 192.667969 344.351562 192.050781 346.761719 191.609375 349.214844 C 190.964844 352.835938 191.347656 356.386719 193.25 359.628906 C 195.878906 364.113281 200.59375 365.027344 204.71875 361.871094 C 206.992188 360.128906 208.511719 357.789062 209.714844 355.242188 C 211.613281 351.253906 212.90625 347.058594 213.460938 342.6875 C 214.449219 334.867188 215.75 327.140625 217.792969 319.507812 C 220.863281 308.046875 225.980469 297.511719 231.554688 287.128906 C 235.234375 280.289062 238.964844 273.433594 242.085938 266.328125 C 248.175781 252.464844 253.882812 238.429688 259.664062 224.433594 C 260.355469 222.765625 261.253906 222.03125 263.054688 221.714844 C 272.730469 220.035156 281.652344 216.546875 289.433594 210.386719 C 295.058594 205.933594 300.886719 201.714844 306.445312 197.171875 C 310.292969 194.003906 313.972656 190.648438 317.480469 187.101562 C 321.40625 183.152344 324.023438 178.335938 325.578125 172.972656 C 325.984375 171.5625 326.308594 170.128906 326.667969 168.703125 L 326.667969 161.523438 C 326.503906 161.164062 326.265625 160.824219 326.199219 160.441406 Z M 312.179688 152.800781 C 313.09375 152.898438 313.980469 153.101562 314.84375 153.410156 C 310.59375 162.238281 305.367188 170.796875 297.710938 177.082031 C 293.796875 180.296875 289.25 182.867188 284.371094 184.289062 C 281.402344 185.15625 278.410156 185.46875 275.394531 185.511719 C 279.804688 184.191406 283.992188 181.320312 287.160156 178.460938 C 293.761719 172.503906 297.574219 163.9375 297.023438 155.015625 C 297.011719 154.792969 296.953125 154.585938 296.847656 154.386719 C 301.734375 152.761719 306.890625 152.238281 312.175781 152.800781 Z M 272.390625 214.445312 C 272.328125 214.417969 272.265625 214.394531 272.199219 214.375 C 271.011719 211.972656 270.234375 209.445312 269.859375 206.792969 C 269.488281 204.140625 269.539062 201.5 270.015625 198.863281 C 273.222656 203.910156 279.257812 206.957031 285.582031 207.394531 C 281.53125 210.398438 277.136719 212.746094 272.390625 214.445312 Z M 208.757812 198.011719 C 208.671875 196.710938 208.902344 195.171875 209.523438 194.039062 C 213.019531 198.152344 220.160156 198.457031 225.144531 197.785156 C 231.859375 196.878906 237.902344 193.941406 243.652344 190.523438 C 239.742188 194.707031 235.535156 198.609375 230.480469 201.375 C 224.382812 204.714844 215.230469 207.054688 209.449219 202.050781 C 209.074219 200.730469 208.839844 199.386719 208.757812 198.015625 Z M 260.734375 179.105469 C 260.480469 179.105469 260.226562 179.113281 259.960938 179.128906 C 259.660156 179.152344 259.375 179.191406 259.085938 179.226562 C 259.65625 177.375 259.984375 175.480469 260.070312 173.546875 C 262.414062 172.613281 264.699219 171.554688 266.925781 170.371094 C 266.460938 172.15625 265.695312 173.800781 264.628906 175.304688 C 263.5625 176.808594 262.265625 178.078125 260.734375 179.109375 Z M 255.765625 180.042969 C 255.246094 180.242188 254.746094 180.472656 254.257812 180.742188 C 252.75 179.527344 251.648438 178.011719 250.957031 176.203125 C 253.046875 175.816406 255.101562 175.285156 257.117188 174.617188 C 256.933594 176.492188 256.484375 178.304688 255.765625 180.046875 Z M 248.0625 176.703125 C 248.796875 178.871094 249.992188 180.742188 251.660156 182.3125 C 251.421875 182.328125 251.207031 182.402344 251.007812 182.535156 C 249.019531 183.09375 247 183.472656 244.910156 183.4375 C 242.117188 183.386719 236.863281 182.410156 237.566406 178.488281 C 237.574219 178.429688 237.578125 178.371094 237.578125 178.3125 C 237.648438 178.304688 237.714844 178.292969 237.785156 178.28125 C 241.226562 177.820312 244.652344 177.28125 248.070312 176.703125 Z M 242.917969 185.988281 C 240.515625 186.824219 238.039062 187.519531 235.503906 187.804688 C 233.144531 188.070312 230.707031 188.019531 228.386719 187.496094 C 226.121094 186.984375 222.273438 185.757812 221.429688 183.210938 C 225.539062 181.035156 229.988281 179.648438 234.660156 178.789062 C 234.324219 183.707031 238.316406 185.589844 242.921875 185.984375 Z M 218.914062 184.679688 C 220.835938 189.023438 227.433594 190.609375 231.726562 190.8125 C 233.945312 190.894531 236.140625 190.710938 238.316406 190.257812 C 235.449219 191.777344 232.484375 193.089844 229.347656 193.980469 C 224.703125 195.304688 214.308594 196.882812 211.222656 191.570312 C 212.234375 190.222656 213.371094 188.988281 214.628906 187.871094 C 215.980469 186.699219 217.410156 185.632812 218.917969 184.675781 Z M 270.179688 168.582031 C 270.523438 168.386719 270.863281 168.191406 271.203125 167.992188 C 273.421875 166.695312 275.640625 165.402344 277.867188 164.121094 C 276.183594 170.445312 273.367188 179.597656 266.496094 181.085938 C 265.886719 180.558594 265.214844 180.140625 264.476562 179.828125 C 266.074219 178.355469 267.363281 176.652344 268.34375 174.71875 C 269.328125 172.78125 269.941406 170.734375 270.1875 168.578125 Z M 294.148438 155.402344 C 294.492188 162.804688 291.664062 169.84375 286.460938 175.132812 C 282.457031 179.210938 275.109375 184.476562 268.855469 183.304688 C 276.273438 180.296875 279.222656 170.308594 281.082031 163.21875 C 281.171875 162.914062 281.152344 162.613281 281.03125 162.316406 C 284.59375 160.304688 288.183594 158.34375 291.824219 156.484375 C 292.59375 156.089844 293.371094 155.730469 294.148438 155.398438 Z M 213.21875 181.085938 C 216 175.078125 219.5625 169.585938 224.101562 164.734375 C 229.921875 158.507812 236.421875 153.003906 243.71875 148.699219 C 253.582031 142.878906 264.34375 140.515625 275.890625 142.140625 C 283.632812 143.226562 291.117188 145.171875 298.460938 147.757812 C 298.90625 147.914062 299.328125 148.140625 300.425781 148.632812 C 291.847656 150.554688 284.859375 154.386719 277.933594 158.339844 C 275.511719 159.722656 273.101562 161.140625 270.789062 162.699219 C 262.085938 168.5625 252.464844 171.699219 242.085938 172.945312 C 235.371094 173.746094 228.59375 174.589844 222.398438 177.59375 C 219.1875 179.148438 216.105469 180.972656 212.757812 182.785156 C 212.902344 182.210938 212.980469 181.609375 213.222656 181.082031 Z M 216.339844 210.859375 C 214.488281 209.804688 212.933594 208.414062 211.675781 206.691406 C 217.027344 208.730469 223.523438 207.636719 228.738281 205.417969 C 235.574219 202.507812 241.046875 197.535156 246.050781 192.160156 C 244.734375 197.113281 242.902344 201.90625 239.5 205.863281 C 235.699219 210.277344 230.621094 213.265625 224.996094 214.636719 C 221.976562 213.914062 219.058594 212.433594 216.339844 210.859375 Z M 230.644531 215.792969 C 234.878906 213.992188 238.507812 211.363281 241.527344 207.898438 C 244.367188 204.625 246.234375 200.855469 247.605469 196.875 C 247.601562 197.382812 247.574219 197.890625 247.515625 198.394531 C 246.902344 203.332031 246.046875 208.242188 245.199219 213.148438 C 244.949219 214.605469 244.363281 216.007812 243.90625 217.523438 C 243.371094 217.59375 242.871094 217.773438 242.417969 217.699219 C 238.507812 217.046875 234.5625 216.492188 230.652344 215.789062 Z M 251.378906 232.402344 C 247.480469 241.359375 243.980469 250.488281 239.921875 259.371094 C 235.867188 268.25 231.671875 277.085938 226.949219 285.621094 C 219.011719 299.972656 213.214844 315.035156 210.25 331.160156 C 209.550781 334.976562 209.464844 338.917969 208.621094 342.695312 C 207.777344 346.472656 206.527344 350.164062 205.082031 353.746094 C 204.410156 355.421875 203.03125 356.9375 201.660156 358.171875 C 200.070312 359.59375 198.539062 359.195312 197.40625 357.375 C 195.960938 355.054688 195.785156 352.472656 196.238281 349.859375 C 196.542969 348.089844 196.976562 346.351562 197.542969 344.644531 C 202.398438 330.195312 207.011719 315.65625 212.292969 301.363281 C 215.253906 293.355469 218.773438 285.429688 223.054688 278.050781 C 232.246094 262.171875 239.429688 245.484375 245.1875 228.121094 C 247.347656 221.597656 250.101562 215.25 251.054688 208.382812 C 251.90625 202.265625 252.6875 196.140625 253.394531 190.003906 C 253.84375 186.144531 257.621094 183.132812 261.410156 183.8125 C 262.886719 184.078125 264.054688 184.855469 264.46875 186.34375 C 264.835938 187.675781 264.984375 189.0625 265.277344 190.683594 C 264.722656 193.230469 264.324219 196.007812 263.496094 198.652344 C 259.914062 210.058594 256.171875 221.40625 251.386719 232.402344 Z M 262.484375 216.910156 C 264.007812 212.324219 265.402344 208.195312 266.742188 204.082031 C 266.863281 208.050781 267.777344 211.824219 269.488281 215.402344 C 268.125 215.808594 266.734375 216.171875 265.324219 216.484375 C 264.574219 216.644531 263.796875 216.714844 262.492188 216.90625 Z M 303.363281 193.589844 C 298.777344 197.335938 294.019531 200.863281 289.335938 204.488281 C 280.511719 205.652344 271.230469 200.40625 270.570312 191.34375 C 272.410156 192.097656 274.664062 192.398438 276.15625 192.695312 C 281.046875 193.664062 285.980469 193.964844 290.953125 193.605469 C 296.8125 193.175781 302.46875 191.863281 307.921875 189.671875 C 306.433594 191.007812 304.921875 192.324219 303.371094 193.589844 Z M 320.988281 171.910156 C 319.71875 175.992188 317.792969 179.738281 314.972656 182.890625 C 312.597656 184.363281 310.125 185.644531 307.550781 186.726562 C 304.976562 187.8125 302.332031 188.6875 299.617188 189.355469 C 296.902344 190.019531 294.15625 190.46875 291.371094 190.699219 C 288.585938 190.929688 285.800781 190.941406 283.015625 190.734375 C 281.667969 190.636719 272.789062 189.914062 270.753906 188.253906 C 275.433594 188.527344 280.089844 188.464844 284.671875 187.195312 C 289.796875 185.773438 294.523438 183.191406 298.703125 179.933594 C 307.105469 173.390625 312.828125 164.203125 317.386719 154.71875 C 319.851562 156.445312 321.503906 159.179688 321.941406 162.464844 C 322.382812 165.679688 321.957031 168.824219 321 171.90625 Z M 125.796875 257.210938 C 142.246094 254.238281 150.234375 237.976562 147.863281 225.234375 C 146.703125 219.007812 144.8125 213.089844 142.550781 207.230469 C 141.4375 204.355469 140.511719 201.40625 139.53125 198.484375 C 137.667969 192.914062 136.066406 187.238281 133.878906 181.796875 C 132.519531 178.425781 130.539062 175.21875 128.386719 172.269531 C 125.371094 168.136719 120.945312 166.386719 115.875 166.359375 C 110.433594 166.328125 105.480469 167.984375 100.882812 170.839844 C 95.128906 174.417969 90.476562 179.160156 86.257812 184.398438 C 77.445312 195.347656 72.332031 208.03125 68.792969 221.441406 C 67.738281 225.375 67.664062 229.328125 68.574219 233.296875 C 69.953125 239.3125 71.898438 245.023438 77.046875 249.015625 C 81.75 252.664062 86.867188 255.472656 92.75 256.726562 C 95.179688 257.246094 97.601562 257.78125 100.347656 258.382812 C 100.203125 260.007812 100.089844 261.289062 99.980469 262.570312 C 99.382812 269.535156 99.125 276.519531 100.0625 283.464844 C 101.890625 296.988281 103.90625 310.488281 105.757812 324.011719 C 107.382812 335.910156 110.332031 347.472656 114.597656 358.699219 C 115.789062 361.84375 117.394531 364.875 119.140625 367.753906 C 119.917969 369.054688 120.898438 370.183594 122.078125 371.132812 C 123.261719 372.082031 124.570312 372.800781 126.011719 373.28125 C 130.761719 374.890625 135.339844 371.914062 135.652344 366.9375 C 135.777344 365.074219 135.714844 363.09375 135.210938 361.3125 C 134.3125 358.152344 133.199219 355.070312 131.871094 352.066406 C 128.449219 344.300781 125.179688 336.492188 123.679688 328.082031 C 119.777344 306.160156 117.46875 284.078125 117.371094 261.792969 C 117.371094 260.730469 117.5 259.667969 117.566406 258.617188 C 120.5 258.113281 123.152344 257.683594 125.796875 257.210938 Z M 123.539062 252.84375 C 124.96875 245.984375 125.738281 239.050781 125.84375 232.042969 C 125.953125 225.035156 125.398438 218.082031 124.183594 211.179688 C 124.699219 211.300781 125.21875 211.417969 125.730469 211.554688 C 127.449219 218.214844 128.347656 224.980469 128.429688 231.859375 C 128.511719 238.734375 127.777344 245.523438 126.21875 252.222656 C 125.347656 252.457031 124.457031 252.664062 123.539062 252.84375 Z M 133.988281 214.847656 C 136.105469 219.628906 136.199219 225.296875 136.367188 230.421875 C 136.550781 236.136719 136.292969 241.832031 135.59375 247.503906 C 133.757812 249.125 131.695312 250.363281 129.402344 251.222656 C 130.753906 244.84375 131.390625 238.398438 131.316406 231.878906 C 131.242188 225.363281 130.457031 218.933594 128.960938 212.589844 C 130.6875 213.226562 132.363281 213.976562 133.988281 214.847656 Z M 143.128906 225.414062 C 143.964844 231.480469 143.191406 237.027344 139.925781 242.292969 C 139.578125 242.855469 139.214844 243.394531 138.839844 243.914062 C 139.28125 239.050781 139.40625 234.179688 139.207031 229.304688 C 139.03125 225.304688 138.847656 221.082031 137.804688 217.144531 C 137.917969 217.21875 138.03125 217.289062 138.144531 217.363281 C 140.980469 219.300781 142.632812 221.816406 143.128906 225.414062 Z M 74.019531 220.039062 C 77.511719 208.199219 82.164062 196.929688 90.035156 187.214844 C 93.828125 182.539062 97.964844 178.253906 103.09375 175.019531 C 107.148438 172.453125 111.507812 170.9375 116.371094 171.109375 C 119.632812 171.226562 122.546875 172.3125 124.472656 174.949219 C 126.339844 177.5 128.167969 180.207031 129.34375 183.117188 C 131.394531 188.183594 132.949219 193.449219 134.679688 198.648438 C 136.121094 202.976562 137.507812 207.320312 139.125 212.28125 C 128.191406 205.855469 116.664062 203.761719 104.738281 205.417969 C 92.941406 207.046875 82.230469 211.515625 74.082031 221.597656 C 74.035156 220.675781 73.933594 220.324219 74.019531 220.03125 Z M 93.855469 215.839844 C 94.136719 215.121094 94.445312 213.699219 94.957031 212.652344 C 97.347656 211.8125 99.785156 211.117188 102.261719 210.578125 C 93.148438 222.003906 92.09375 237.289062 91.976562 251.617188 C 90.238281 251.085938 88.546875 250.433594 86.898438 249.664062 C 87.125 243.117188 87.960938 236.648438 89.414062 230.257812 C 90.152344 227.042969 91.046875 223.867188 92.089844 220.730469 C 92.636719 219.082031 93.222656 217.449219 93.855469 215.832031 Z M 73.734375 234.53125 C 73.285156 232.71875 73.933594 231.175781 74.652344 229.65625 C 76.210938 226.363281 78.3125 223.460938 80.957031 220.953125 C 79.578125 223.238281 78.503906 225.683594 77.957031 228.460938 C 77.113281 232.734375 76.808594 237.160156 76.679688 241.542969 C 75.320312 239.457031 74.375 237.109375 73.734375 234.53125 Z M 79.492188 244.914062 C 79.5625 240.042969 79.765625 235.089844 80.550781 230.277344 C 81.4375 224.84375 84.160156 220.875 87.628906 216.722656 C 87.855469 216.457031 87.972656 216.152344 87.980469 215.804688 C 89.113281 215.164062 90.265625 214.582031 91.441406 214.054688 C 91.320312 214.421875 91.195312 214.757812 91.074219 215.066406 C 89.558594 218.957031 88.28125 222.921875 87.242188 226.964844 C 85.464844 233.933594 84.40625 241.011719 84.0625 248.191406 C 83.273438 247.734375 82.492188 247.242188 81.722656 246.710938 C 80.933594 246.164062 80.191406 245.5625 79.492188 244.90625 Z M 94.847656 252.394531 C 94.917969 237.519531 95.75 221.308594 106.550781 210.046875 L 106.675781 210.046875 C 105.554688 224.679688 103.546875 239.066406 100.921875 253.453125 C 98.878906 253.210938 96.851562 252.859375 94.847656 252.390625 Z M 115.089844 300.847656 C 116.253906 309.429688 117.445312 318.007812 118.667969 326.585938 C 120.046875 336.253906 123.632812 345.210938 127.609375 354.050781 C 128.710938 356.5 129.660156 359.007812 130.457031 361.574219 C 130.886719 362.972656 131.007812 364.527344 130.972656 366 C 130.90625 368.722656 129.007812 369.878906 126.753906 368.390625 C 125.058594 367.273438 123.453125 365.746094 122.371094 364.042969 C 120.890625 361.714844 119.765625 359.113281 118.789062 356.515625 C 114.375 344.8125 111.617188 332.695312 109.9375 320.3125 C 108.316406 308.371094 106.601562 296.445312 104.902344 284.515625 C 103.597656 275.355469 104.101562 266.21875 105.316406 257.109375 C 107.050781 244.082031 108.9375 231.070312 110.714844 218.042969 C 111.078125 215.398438 111.238281 212.726562 111.527344 209.660156 L 117.023438 210.035156 C 117.890625 217.148438 117.632812 224 116.265625 230.757812 C 114.71875 238.382812 113.246094 246 112.914062 253.792969 C 112.832031 255.757812 112.714844 257.726562 112.710938 259.691406 C 112.6875 273.457031 113.25 287.1875 115.089844 300.84375 Z M 119.203125 240.285156 C 120.3125 233.828125 122.066406 227.460938 122.050781 220.84375 C 122.050781 219.214844 122.035156 217.582031 122.03125 215.957031 C 123.738281 228.515625 123.222656 240.980469 120.488281 253.359375 C 119.507812 253.488281 118.5 253.601562 117.441406 253.691406 C 118.054688 248.890625 118.472656 244.5625 119.203125 240.28125 Z M 119.203125 240.285156 " fill-opacity="1" fill-rule="nonzero"/></g><g clip-path="url(#c7b8cf50ba)"><path fill="#000000" d="M 175.25 73.863281 C 175 73.707031 174.734375 73.585938 174.449219 73.515625 C 174.109375 73.4375 173.765625 73.367188 173.421875 73.296875 C 173.128906 73.234375 172.832031 73.238281 172.535156 73.300781 C 172.125 73.386719 171.746094 73.542969 171.429688 73.816406 C 170.960938 74.21875 170.597656 74.699219 170.34375 75.261719 C 170.277344 75.410156 170.226562 75.566406 170.179688 75.726562 C 170.089844 76.011719 170.121094 76.289062 170.25 76.558594 C 170.308594 76.679688 170.382812 76.796875 170.453125 76.914062 C 170.542969 77.0625 170.667969 77.175781 170.8125 77.269531 C 171.242188 77.539062 171.707031 77.621094 172.207031 77.546875 C 172.4375 77.511719 172.664062 77.457031 172.882812 77.355469 C 172.886719 77.378906 172.894531 77.394531 172.898438 77.414062 C 172.914062 77.507812 172.929688 77.601562 172.941406 77.695312 C 172.976562 77.957031 173.007812 78.214844 172.988281 78.480469 C 172.957031 78.839844 172.933594 79.199219 172.910156 79.558594 C 172.878906 79.988281 172.839844 80.421875 172.816406 80.851562 C 172.796875 81.308594 172.75 81.757812 172.683594 82.210938 C 172.644531 82.472656 172.601562 82.734375 172.566406 82.996094 C 172.550781 83.152344 172.5625 83.308594 172.625 83.457031 C 172.714844 83.675781 172.953125 83.714844 173.109375 83.535156 C 173.152344 83.480469 173.1875 83.414062 173.203125 83.351562 C 173.226562 83.253906 173.238281 83.152344 173.242188 83.050781 C 173.257812 82.671875 173.28125 82.289062 173.355469 81.910156 C 173.425781 81.535156 173.5 81.160156 173.574219 80.785156 C 173.652344 80.398438 173.6875 80.011719 173.660156 79.621094 C 173.636719 79.253906 173.605469 78.890625 173.578125 78.527344 C 173.558594 78.273438 173.535156 78.023438 173.519531 77.773438 C 173.507812 77.59375 173.507812 77.410156 173.5 77.230469 C 173.496094 77.179688 173.515625 77.15625 173.566406 77.140625 C 173.648438 77.113281 173.730469 77.078125 173.8125 77.050781 C 174.148438 76.941406 174.464844 76.800781 174.753906 76.589844 C 175.066406 76.367188 175.320312 76.101562 175.515625 75.777344 C 175.660156 75.542969 175.757812 75.296875 175.789062 75.027344 C 175.84375 74.535156 175.683594 74.132812 175.25 73.863281 Z M 175.542969 75.3125 C 175.3125 75.625 174.941406 75.789062 174.566406 75.871094 C 174.253906 75.941406 173.867188 75.992188 173.574219 75.839844 C 173.65625 75.855469 173.734375 75.855469 173.816406 75.839844 C 174.066406 75.789062 174.3125 75.65625 174.527344 75.523438 C 174.929688 75.269531 175.261719 74.945312 175.515625 74.546875 C 175.546875 74.617188 175.570312 74.699219 175.578125 74.789062 C 175.601562 74.96875 175.582031 75.140625 175.542969 75.3125 Z M 171.898438 74.378906 C 171.929688 74.511719 171.980469 74.644531 172.03125 74.773438 C 172.074219 74.878906 172.117188 74.992188 172.191406 75.082031 C 172.261719 75.171875 172.363281 75.230469 172.460938 75.292969 L 172.820312 75.515625 C 172.820312 75.523438 172.816406 75.527344 172.816406 75.53125 C 172.8125 75.539062 172.808594 75.546875 172.804688 75.558594 C 172.539062 75.546875 172.300781 75.398438 172.082031 75.261719 C 171.84375 75.117188 171.585938 74.925781 171.574219 74.628906 C 171.574219 74.617188 171.570312 74.609375 171.566406 74.601562 C 171.664062 74.511719 171.777344 74.4375 171.898438 74.378906 Z M 171.496094 74.671875 C 171.527344 74.957031 171.757812 75.15625 171.992188 75.304688 C 172.210938 75.441406 172.445312 75.589844 172.703125 75.628906 C 172.457031 75.730469 172.152344 75.632812 171.917969 75.539062 C 171.640625 75.425781 171.382812 75.238281 171.261719 74.960938 C 171.3125 74.898438 171.363281 74.839844 171.410156 74.773438 C 171.4375 74.738281 171.464844 74.707031 171.496094 74.671875 Z M 171.207031 75.03125 C 171.339844 75.300781 171.589844 75.488281 171.867188 75.605469 C 172.136719 75.714844 172.484375 75.824219 172.761719 75.6875 C 172.757812 75.707031 172.753906 75.722656 172.753906 75.742188 C 172.75 75.742188 172.75 75.742188 172.746094 75.746094 C 172.628906 75.863281 172.484375 75.945312 172.320312 75.980469 C 172.144531 76.019531 171.953125 76.003906 171.773438 75.980469 C 171.601562 75.960938 171.429688 75.921875 171.265625 75.855469 C 171.105469 75.789062 170.921875 75.695312 170.847656 75.527344 C 170.847656 75.527344 170.847656 75.523438 170.847656 75.523438 C 170.929688 75.382812 171.027344 75.25 171.128906 75.121094 C 171.15625 75.089844 171.179688 75.058594 171.207031 75.03125 Z M 170.796875 75.605469 C 170.972656 75.90625 171.414062 76.015625 171.734375 76.058594 C 171.933594 76.082031 172.144531 76.101562 172.339844 76.058594 C 172.457031 76.03125 172.5625 75.984375 172.660156 75.917969 C 172.660156 75.933594 172.65625 75.945312 172.65625 75.957031 C 172.652344 75.960938 172.65625 75.96875 172.65625 75.972656 C 172.511719 76.347656 172.082031 76.484375 171.707031 76.496094 C 171.304688 76.511719 170.824219 76.457031 170.597656 76.089844 C 170.613281 76.019531 170.636719 75.949219 170.664062 75.878906 C 170.703125 75.785156 170.746094 75.695312 170.796875 75.605469 Z M 170.570312 76.675781 C 170.542969 76.515625 170.542969 76.355469 170.570312 76.199219 C 170.835938 76.539062 171.324219 76.597656 171.734375 76.578125 C 172.058594 76.558594 172.40625 76.453125 172.613281 76.207031 C 172.433594 76.519531 172.144531 76.765625 171.804688 76.898438 C 171.4375 77.046875 170.757812 77.117188 170.570312 76.675781 Z M 172.859375 75.445312 L 172.554688 75.253906 C 172.445312 75.1875 172.324219 75.125 172.246094 75.023438 C 172.171875 74.925781 172.132812 74.808594 172.089844 74.695312 C 172.042969 74.582031 172 74.464844 171.972656 74.34375 C 172.019531 74.320312 172.066406 74.304688 172.117188 74.285156 C 172.257812 74.238281 172.398438 74.203125 172.542969 74.183594 C 172.542969 74.1875 172.542969 74.191406 172.542969 74.199219 C 172.496094 74.429688 172.542969 74.65625 172.625 74.875 C 172.691406 75.058594 172.769531 75.242188 172.894531 75.394531 C 172.882812 75.414062 172.871094 75.429688 172.859375 75.445312 Z M 173 74.152344 C 173.015625 74.347656 173.03125 74.542969 173.011719 74.738281 C 172.996094 74.9375 172.972656 75.132812 172.953125 75.332031 C 172.953125 75.332031 172.949219 75.335938 172.949219 75.335938 C 172.835938 75.195312 172.765625 75.023438 172.703125 74.855469 C 172.628906 74.652344 172.578125 74.433594 172.621094 74.21875 C 172.621094 74.21875 172.621094 74.214844 172.621094 74.214844 C 172.632812 74.199219 172.640625 74.1875 172.648438 74.171875 C 172.722656 74.164062 172.796875 74.15625 172.871094 74.15625 C 172.914062 74.15625 172.957031 74.152344 173 74.152344 Z M 173.082031 74.144531 C 173.242188 74.132812 173.398438 74.113281 173.558594 74.089844 C 173.53125 74.324219 173.480469 74.554688 173.40625 74.777344 C 173.34375 74.96875 173.257812 75.15625 173.101562 75.285156 C 173.078125 75.285156 173.058594 75.285156 173.039062 75.289062 C 173.058594 75.105469 173.078125 74.921875 173.09375 74.738281 C 173.113281 74.539062 173.097656 74.34375 173.082031 74.144531 Z M 174.492188 74.046875 C 174.621094 74.054688 174.746094 74.074219 174.871094 74.105469 C 174.902344 74.109375 174.9375 74.121094 174.96875 74.128906 C 174.847656 74.484375 174.660156 74.820312 174.371094 75.074219 C 174.105469 75.304688 173.683594 75.519531 173.328125 75.382812 C 173.597656 75.363281 173.820312 75.160156 173.992188 74.957031 C 174.21875 74.691406 174.425781 74.394531 174.492188 74.046875 Z M 173.96875 74.859375 C 173.78125 75.085938 173.527344 75.347656 173.207031 75.300781 C 173.339844 75.167969 173.417969 74.996094 173.476562 74.824219 C 173.558594 74.582031 173.609375 74.332031 173.640625 74.082031 L 173.660156 74.078125 C 173.910156 74.046875 174.160156 74.027344 174.410156 74.039062 C 174.347656 74.351562 174.171875 74.617188 173.96875 74.859375 Z M 175.46875 74.460938 C 175.246094 74.824219 174.949219 75.140625 174.59375 75.382812 C 174.40625 75.507812 174.207031 75.617188 173.996094 75.699219 C 173.871094 75.75 173.726562 75.796875 173.589844 75.765625 C 173.519531 75.753906 173.457031 75.71875 173.414062 75.671875 C 173.414062 75.664062 173.410156 75.660156 173.410156 75.652344 C 173.390625 75.589844 173.363281 75.527344 173.332031 75.46875 C 173.6875 75.585938 174.089844 75.402344 174.367188 75.183594 C 174.699219 74.917969 174.910156 74.546875 175.046875 74.15625 C 175.085938 74.167969 175.121094 74.183594 175.160156 74.203125 C 175.296875 74.265625 175.398438 74.351562 175.46875 74.460938 Z M 170.417969 76.316406 C 170.410156 76.398438 170.417969 76.480469 170.417969 76.574219 C 170.402344 76.558594 170.394531 76.550781 170.390625 76.542969 C 170.273438 76.308594 170.230469 76.066406 170.292969 75.808594 C 170.335938 75.640625 170.390625 75.476562 170.464844 75.320312 C 170.710938 74.777344 171.0625 74.308594 171.519531 73.914062 C 171.8125 73.664062 172.160156 73.515625 172.539062 73.433594 C 172.832031 73.367188 173.125 73.367188 173.417969 73.429688 C 173.757812 73.5 174.101562 73.570312 174.441406 73.652344 C 174.707031 73.714844 174.953125 73.835938 175.1875 73.976562 C 175.296875 74.042969 175.386719 74.128906 175.464844 74.230469 C 175.363281 74.167969 175.277344 74.113281 175.191406 74.070312 C 175.03125 73.984375 174.851562 73.960938 174.675781 73.933594 C 174.304688 73.878906 173.9375 73.902344 173.570312 73.957031 C 173.28125 74 172.988281 74.015625 172.695312 74.035156 C 172.382812 74.058594 172.085938 74.136719 171.804688 74.273438 C 171.648438 74.355469 171.503906 74.457031 171.390625 74.59375 C 171.171875 74.851562 170.949219 75.113281 170.765625 75.398438 C 170.585938 75.679688 170.453125 75.980469 170.417969 76.316406 Z M 170.785156 77.082031 C 170.714844 77.03125 170.664062 76.972656 170.628906 76.898438 C 170.914062 77.160156 171.441406 77.117188 171.785156 76.996094 C 172.15625 76.859375 172.472656 76.601562 172.667969 76.269531 C 172.621094 76.582031 172.410156 76.851562 172.214844 77.09375 C 172.105469 77.226562 171.980469 77.34375 171.808594 77.386719 C 171.699219 77.410156 171.582031 77.410156 171.46875 77.398438 C 171.21875 77.34375 170.988281 77.246094 170.785156 77.082031 Z M 171.898438 77.441406 C 172.042969 77.386719 172.15625 77.289062 172.253906 77.171875 C 172.441406 76.949219 172.632812 76.703125 172.714844 76.425781 C 172.726562 76.476562 172.734375 76.53125 172.742188 76.585938 C 172.757812 76.859375 172.695312 77.1875 172.476562 77.355469 C 172.289062 77.40625 172.09375 77.4375 171.898438 77.441406 Z M 172.703125 77.285156 C 172.683594 77.292969 172.660156 77.300781 172.640625 77.308594 C 172.722656 77.203125 172.773438 77.070312 172.800781 76.929688 C 172.816406 77.023438 172.832031 77.117188 172.847656 77.21875 C 172.804688 77.238281 172.757812 77.269531 172.703125 77.285156 Z M 173.515625 79.445312 C 173.527344 79.65625 173.535156 79.871094 173.527344 80.082031 C 173.523438 80.378906 173.464844 80.667969 173.402344 80.957031 C 173.3125 81.386719 173.222656 81.816406 173.167969 82.25 C 173.144531 82.449219 173.132812 82.652344 173.117188 82.851562 C 173.113281 82.953125 173.113281 83.054688 173.105469 83.152344 C 173.097656 83.21875 173.085938 83.285156 173.0625 83.347656 C 173.046875 83.398438 173.019531 83.4375 172.980469 83.472656 C 172.898438 83.542969 172.804688 83.523438 172.757812 83.425781 C 172.710938 83.339844 172.699219 83.246094 172.699219 83.148438 C 172.691406 82.960938 172.722656 82.777344 172.753906 82.59375 C 172.84375 82.09375 172.917969 81.589844 172.9375 81.082031 C 172.949219 80.800781 172.964844 80.523438 172.984375 80.246094 C 173.011719 79.882812 173.050781 79.523438 173.078125 79.160156 C 173.097656 78.933594 173.109375 78.703125 173.125 78.476562 C 173.140625 78.21875 173.109375 77.964844 173.082031 77.707031 C 173.050781 77.464844 172.988281 77.226562 172.945312 76.984375 C 172.90625 76.769531 172.855469 76.554688 172.839844 76.339844 C 172.824219 76.085938 172.839844 75.828125 172.9375 75.582031 C 172.957031 75.539062 172.980469 75.496094 173.011719 75.460938 C 173.050781 75.410156 173.105469 75.40625 173.148438 75.449219 C 173.1875 75.488281 173.21875 75.535156 173.238281 75.582031 C 173.300781 75.707031 173.328125 75.847656 173.34375 75.984375 C 173.355469 76.136719 173.363281 76.285156 173.367188 76.4375 C 173.371094 76.84375 173.367188 77.253906 173.382812 77.660156 C 173.394531 77.984375 173.429688 78.308594 173.453125 78.636719 C 173.476562 78.90625 173.5 79.175781 173.515625 79.445312 Z M 173.574219 77 C 173.554688 77.003906 173.535156 77.011719 173.5 77.019531 C 173.5 76.980469 173.5 76.949219 173.5 76.917969 C 173.5 76.761719 173.5 76.605469 173.496094 76.449219 C 173.546875 76.53125 173.605469 76.601562 173.664062 76.664062 C 173.765625 76.777344 173.886719 76.828125 174.023438 76.832031 C 173.875 76.890625 173.722656 76.945312 173.574219 77 Z M 174.695312 76.464844 C 174.605469 76.527344 174.519531 76.59375 174.425781 76.644531 C 174.402344 76.65625 174.382812 76.671875 174.359375 76.683594 C 174.332031 76.695312 174.300781 76.703125 174.273438 76.710938 C 174.242188 76.722656 174.214844 76.730469 174.1875 76.742188 C 174.183594 76.742188 174.179688 76.742188 174.175781 76.742188 C 173.988281 76.78125 173.828125 76.734375 173.707031 76.589844 C 173.628906 76.5 173.535156 76.378906 173.496094 76.257812 C 173.492188 76.222656 173.492188 76.183594 173.492188 76.148438 C 173.492188 76.125 173.492188 76.105469 173.488281 76.082031 C 173.742188 76.269531 174.105469 76.285156 174.410156 76.253906 C 174.679688 76.226562 174.933594 76.152344 175.175781 76.027344 C 175.035156 76.199219 174.875 76.34375 174.695312 76.464844 Z M 175.359375 75.777344 C 175.339844 75.808594 175.320312 75.835938 175.300781 75.867188 C 175.039062 76.027344 174.746094 76.132812 174.4375 76.171875 C 174.121094 76.207031 173.722656 76.199219 173.480469 75.96875 C 173.476562 75.933594 173.46875 75.902344 173.464844 75.871094 C 173.78125 76.074219 174.203125 76.03125 174.558594 75.957031 C 174.90625 75.882812 175.246094 75.742188 175.492188 75.496094 C 175.492188 75.5 175.488281 75.507812 175.484375 75.515625 C 175.457031 75.609375 175.410156 75.695312 175.359375 75.777344 Z M 177.578125 77.726562 C 177.550781 77.574219 177.453125 77.46875 177.320312 77.402344 C 177.25 77.367188 177.171875 77.34375 177.097656 77.320312 C 176.980469 77.285156 176.863281 77.253906 176.746094 77.21875 C 176.578125 77.160156 176.40625 77.121094 176.234375 77.089844 C 175.863281 77.027344 175.511719 77.085938 175.1875 77.265625 C 174.898438 77.433594 174.636719 77.644531 174.4375 77.914062 C 174.273438 78.132812 174.144531 78.371094 174.105469 78.640625 C 174.066406 78.886719 174.144531 79.09375 174.359375 79.238281 C 174.421875 79.28125 174.492188 79.320312 174.566406 79.339844 C 174.691406 79.378906 174.824219 79.402344 174.953125 79.429688 C 175.027344 79.445312 175.101562 79.453125 175.183594 79.464844 C 175.15625 79.535156 175.136719 79.589844 175.117188 79.648438 C 174.988281 80.027344 174.84375 80.394531 174.640625 80.742188 C 174.417969 81.113281 174.238281 81.503906 174.101562 81.914062 C 174.003906 82.214844 173.898438 82.511719 173.796875 82.808594 C 173.773438 82.875 173.757812 82.945312 173.742188 83.011719 C 173.726562 83.113281 173.734375 83.214844 173.789062 83.304688 C 173.863281 83.429688 174 83.457031 174.117188 83.367188 C 174.183594 83.316406 174.226562 83.253906 174.257812 83.179688 C 174.3125 83.070312 174.351562 82.953125 174.367188 82.828125 C 174.394531 82.609375 174.429688 82.394531 174.488281 82.179688 C 174.578125 81.859375 174.722656 81.5625 174.882812 81.273438 C 174.984375 81.082031 175.09375 80.890625 175.179688 80.691406 C 175.355469 80.300781 175.519531 79.910156 175.683594 79.515625 C 175.703125 79.472656 175.726562 79.449219 175.777344 79.441406 C 176.054688 79.394531 176.308594 79.296875 176.53125 79.125 C 176.691406 79 176.855469 78.882812 177.015625 78.753906 C 177.125 78.664062 177.230469 78.570312 177.328125 78.472656 C 177.441406 78.363281 177.515625 78.226562 177.558594 78.078125 C 177.570312 78.035156 177.582031 77.996094 177.589844 77.957031 L 177.589844 77.753906 C 177.585938 77.746094 177.578125 77.734375 177.578125 77.726562 Z M 177.179688 77.511719 C 177.203125 77.515625 177.230469 77.519531 177.253906 77.527344 C 177.132812 77.777344 176.984375 78.015625 176.765625 78.191406 C 176.65625 78.28125 176.523438 78.351562 176.386719 78.394531 C 176.300781 78.417969 176.214844 78.425781 176.128906 78.425781 C 176.257812 78.390625 176.375 78.308594 176.464844 78.230469 C 176.652344 78.0625 176.761719 77.824219 176.746094 77.574219 C 176.746094 77.566406 176.746094 77.5625 176.742188 77.554688 C 176.882812 77.511719 177.027344 77.496094 177.179688 77.511719 Z M 176.042969 79.238281 C 176.042969 79.238281 176.042969 79.238281 176.039062 79.234375 C 175.96875 79.097656 175.949219 78.953125 175.976562 78.800781 C 176.070312 78.941406 176.242188 79.027344 176.421875 79.039062 C 176.304688 79.125 176.179688 79.191406 176.042969 79.238281 Z M 174.230469 78.777344 C 174.230469 78.742188 174.234375 78.699219 174.253906 78.667969 C 174.351562 78.78125 174.558594 78.789062 174.699219 78.769531 C 174.890625 78.746094 175.0625 78.664062 175.226562 78.566406 C 175.113281 78.683594 174.996094 78.792969 174.851562 78.871094 C 174.675781 78.964844 174.417969 79.03125 174.25 78.890625 C 174.242188 78.855469 174.234375 78.816406 174.230469 78.777344 Z M 175.710938 78.246094 C 175.707031 78.246094 175.699219 78.25 175.691406 78.25 C 175.683594 78.25 175.675781 78.25 175.664062 78.25 C 175.683594 78.199219 175.691406 78.148438 175.695312 78.09375 C 175.761719 78.066406 175.824219 78.035156 175.890625 78.003906 C 175.863281 78.105469 175.804688 78.1875 175.710938 78.25 Z M 175.570312 78.273438 C 175.554688 78.28125 175.542969 78.285156 175.527344 78.292969 C 175.484375 78.261719 175.453125 78.21875 175.433594 78.167969 C 175.492188 78.15625 175.550781 78.140625 175.609375 78.121094 C 175.605469 78.175781 175.589844 78.226562 175.570312 78.273438 Z M 175.351562 78.179688 C 175.371094 78.242188 175.40625 78.292969 175.453125 78.335938 C 175.449219 78.339844 175.441406 78.339844 175.4375 78.34375 C 175.378906 78.359375 175.320312 78.371094 175.261719 78.371094 C 175.183594 78.367188 175.03125 78.339844 175.050781 78.230469 C 175.054688 78.230469 175.054688 78.226562 175.054688 78.226562 C 175.054688 78.226562 175.058594 78.226562 175.058594 78.226562 C 175.15625 78.210938 175.253906 78.195312 175.351562 78.179688 Z M 175.207031 78.441406 C 175.136719 78.464844 175.066406 78.484375 174.992188 78.492188 C 174.925781 78.5 174.855469 78.496094 174.792969 78.484375 C 174.726562 78.46875 174.617188 78.433594 174.59375 78.363281 C 174.710938 78.300781 174.835938 78.261719 174.96875 78.238281 C 174.960938 78.375 175.074219 78.429688 175.207031 78.441406 Z M 174.519531 78.402344 C 174.574219 78.527344 174.765625 78.570312 174.886719 78.574219 C 174.949219 78.578125 175.011719 78.574219 175.074219 78.558594 C 174.992188 78.601562 174.90625 78.640625 174.820312 78.664062 C 174.6875 78.703125 174.390625 78.746094 174.300781 78.597656 C 174.332031 78.558594 174.363281 78.523438 174.398438 78.492188 C 174.4375 78.460938 174.476562 78.429688 174.523438 78.402344 Z M 175.980469 77.953125 C 175.992188 77.949219 176 77.941406 176.011719 77.9375 C 176.074219 77.902344 176.136719 77.863281 176.199219 77.828125 C 176.152344 78.003906 176.074219 78.261719 175.878906 78.304688 C 175.859375 78.289062 175.839844 78.277344 175.820312 78.269531 C 175.914062 78.183594 175.96875 78.078125 175.980469 77.953125 Z M 176.664062 77.585938 C 176.675781 77.792969 176.59375 77.988281 176.445312 78.136719 C 176.332031 78.25 176.121094 78.398438 175.945312 78.367188 C 176.15625 78.28125 176.238281 78 176.292969 77.804688 C 176.296875 77.792969 176.292969 77.785156 176.292969 77.777344 C 176.394531 77.722656 176.496094 77.667969 176.597656 77.613281 C 176.621094 77.601562 176.644531 77.59375 176.664062 77.585938 Z M 174.359375 78.304688 C 174.4375 78.136719 174.539062 77.980469 174.667969 77.84375 C 174.835938 77.671875 175.019531 77.515625 175.226562 77.394531 C 175.507812 77.234375 175.816406 77.167969 176.144531 77.210938 C 176.363281 77.242188 176.578125 77.296875 176.789062 77.371094 C 176.800781 77.375 176.8125 77.378906 176.84375 77.394531 C 176.597656 77.449219 176.398438 77.554688 176.203125 77.667969 C 176.132812 77.707031 176.066406 77.746094 176 77.789062 C 175.75 77.953125 175.476562 78.039062 175.179688 78.074219 C 174.988281 78.097656 174.796875 78.121094 174.621094 78.207031 C 174.527344 78.25 174.441406 78.300781 174.347656 78.351562 C 174.351562 78.335938 174.351562 78.316406 174.359375 78.304688 Z M 174.449219 79.136719 C 174.394531 79.109375 174.351562 79.070312 174.316406 79.019531 C 174.46875 79.078125 174.652344 79.046875 174.800781 78.984375 C 174.996094 78.902344 175.152344 78.765625 175.292969 78.613281 C 175.257812 78.753906 175.203125 78.886719 175.109375 78.996094 C 175 79.121094 174.855469 79.203125 174.695312 79.242188 C 174.609375 79.222656 174.527344 79.179688 174.449219 79.136719 Z M 174.855469 79.277344 C 174.976562 79.226562 175.078125 79.152344 175.164062 79.054688 C 175.246094 78.960938 175.300781 78.855469 175.339844 78.746094 C 175.339844 78.761719 175.335938 78.773438 175.335938 78.789062 C 175.320312 78.925781 175.292969 79.0625 175.269531 79.203125 C 175.261719 79.242188 175.246094 79.28125 175.234375 79.324219 C 175.21875 79.324219 175.203125 79.332031 175.191406 79.328125 C 175.078125 79.3125 174.96875 79.296875 174.855469 79.277344 Z M 175.445312 79.742188 C 175.335938 79.992188 175.234375 80.246094 175.121094 80.496094 C 175.003906 80.746094 174.886719 80.992188 174.75 81.230469 C 174.523438 81.632812 174.359375 82.054688 174.273438 82.507812 C 174.253906 82.613281 174.253906 82.722656 174.226562 82.828125 C 174.203125 82.9375 174.167969 83.039062 174.128906 83.140625 C 174.109375 83.1875 174.070312 83.230469 174.03125 83.261719 C 173.984375 83.304688 173.941406 83.292969 173.910156 83.242188 C 173.867188 83.175781 173.863281 83.105469 173.875 83.03125 C 173.882812 82.980469 173.894531 82.933594 173.914062 82.882812 C 174.050781 82.480469 174.183594 82.074219 174.332031 81.671875 C 174.417969 81.449219 174.515625 81.226562 174.640625 81.019531 C 174.902344 80.574219 175.105469 80.105469 175.269531 79.621094 C 175.332031 79.4375 175.410156 79.261719 175.4375 79.066406 C 175.460938 78.898438 175.484375 78.726562 175.503906 78.554688 C 175.515625 78.445312 175.625 78.359375 175.730469 78.378906 C 175.773438 78.386719 175.808594 78.410156 175.820312 78.449219 C 175.828125 78.488281 175.832031 78.527344 175.84375 78.570312 C 175.828125 78.644531 175.816406 78.722656 175.792969 78.796875 C 175.6875 79.113281 175.582031 79.433594 175.445312 79.742188 Z M 175.761719 79.308594 C 175.804688 79.179688 175.847656 79.0625 175.882812 78.949219 C 175.886719 79.058594 175.914062 79.164062 175.960938 79.265625 C 175.921875 79.277344 175.882812 79.285156 175.84375 79.292969 C 175.824219 79.300781 175.800781 79.300781 175.761719 79.308594 Z M 176.925781 78.652344 C 176.796875 78.757812 176.660156 78.855469 176.527344 78.957031 C 176.277344 78.992188 176.011719 78.84375 175.992188 78.589844 C 176.046875 78.613281 176.109375 78.621094 176.152344 78.628906 C 176.292969 78.65625 176.433594 78.664062 176.574219 78.652344 C 176.742188 78.640625 176.902344 78.605469 177.058594 78.542969 C 177.015625 78.582031 176.972656 78.617188 176.925781 78.652344 Z M 177.429688 78.046875 C 177.394531 78.160156 177.339844 78.265625 177.257812 78.355469 C 176.980469 78.523438 176.675781 78.597656 176.347656 78.574219 C 176.308594 78.570312 176.054688 78.550781 176 78.503906 C 176.132812 78.511719 176.265625 78.511719 176.394531 78.472656 C 176.539062 78.433594 176.675781 78.363281 176.792969 78.269531 C 177.035156 78.089844 177.195312 77.832031 177.328125 77.566406 C 177.398438 77.613281 177.445312 77.691406 177.457031 77.78125 C 177.46875 77.871094 177.457031 77.960938 177.429688 78.046875 Z M 171.867188 80.4375 C 172.335938 80.351562 172.566406 79.898438 172.496094 79.539062 C 172.464844 79.367188 172.410156 79.199219 172.347656 79.035156 C 172.3125 78.957031 172.289062 78.871094 172.261719 78.789062 C 172.207031 78.632812 172.160156 78.476562 172.097656 78.324219 C 172.058594 78.230469 172.003906 78.140625 171.941406 78.054688 C 171.855469 77.941406 171.730469 77.890625 171.585938 77.890625 C 171.429688 77.890625 171.289062 77.9375 171.160156 78.015625 C 170.996094 78.117188 170.863281 78.25 170.742188 78.394531 C 170.492188 78.703125 170.34375 79.058594 170.246094 79.433594 C 170.214844 79.542969 170.210938 79.65625 170.238281 79.765625 C 170.277344 79.933594 170.332031 80.09375 170.480469 80.207031 C 170.613281 80.308594 170.757812 80.386719 170.925781 80.421875 C 170.996094 80.4375 171.066406 80.453125 171.144531 80.46875 C 171.140625 80.515625 171.136719 80.550781 171.132812 80.585938 C 171.117188 80.78125 171.109375 80.976562 171.136719 81.171875 C 171.1875 81.550781 171.246094 81.929688 171.296875 82.304688 C 171.34375 82.640625 171.429688 82.964844 171.550781 83.277344 C 171.582031 83.367188 171.628906 83.449219 171.679688 83.53125 C 171.722656 83.605469 171.789062 83.660156 171.875 83.6875 C 172.011719 83.730469 172.140625 83.648438 172.148438 83.507812 C 172.152344 83.457031 172.152344 83.402344 172.136719 83.351562 C 172.109375 83.261719 172.078125 83.175781 172.042969 83.09375 C 171.945312 82.875 171.851562 82.65625 171.808594 82.421875 C 171.695312 81.804688 171.632812 81.1875 171.628906 80.5625 C 171.628906 80.535156 171.632812 80.503906 171.632812 80.476562 C 171.71875 80.460938 171.792969 80.449219 171.867188 80.4375 Z M 171.804688 80.3125 C 171.886719 79.925781 171.890625 79.535156 171.824219 79.144531 C 171.835938 79.148438 171.851562 79.152344 171.867188 79.15625 C 171.964844 79.535156 171.96875 79.914062 171.878906 80.296875 C 171.855469 80.300781 171.832031 80.308594 171.804688 80.3125 Z M 172.101562 79.25 C 172.164062 79.382812 172.164062 79.542969 172.167969 79.683594 C 172.175781 79.84375 172.167969 80.003906 172.148438 80.164062 C 172.09375 80.210938 172.035156 80.242188 171.972656 80.269531 C 172.050781 79.90625 172.042969 79.546875 171.957031 79.1875 C 172.007812 79.203125 172.054688 79.226562 172.101562 79.25 Z M 172.363281 79.546875 C 172.386719 79.714844 172.363281 79.871094 172.269531 80.019531 C 172.261719 80.035156 172.25 80.046875 172.238281 80.0625 C 172.253906 79.925781 172.257812 79.789062 172.25 79.652344 C 172.246094 79.542969 172.242188 79.421875 172.210938 79.3125 C 172.214844 79.316406 172.21875 79.316406 172.21875 79.320312 C 172.300781 79.375 172.347656 79.445312 172.363281 79.546875 Z M 170.394531 79.394531 C 170.492188 79.0625 170.625 78.746094 170.851562 78.476562 C 170.957031 78.34375 171.074219 78.222656 171.222656 78.132812 C 171.335938 78.0625 171.460938 78.019531 171.601562 78.023438 C 171.691406 78.027344 171.777344 78.058594 171.832031 78.132812 C 171.882812 78.203125 171.9375 78.277344 171.96875 78.359375 C 172.027344 78.503906 172.074219 78.648438 172.121094 78.796875 C 172.164062 78.917969 172.203125 79.039062 172.25 79.175781 C 171.9375 78.996094 171.609375 78.9375 171.269531 78.984375 C 170.933594 79.03125 170.628906 79.15625 170.394531 79.4375 C 170.394531 79.414062 170.390625 79.402344 170.394531 79.394531 Z M 170.957031 79.277344 C 170.964844 79.257812 170.976562 79.21875 170.988281 79.1875 C 171.058594 79.164062 171.128906 79.144531 171.199219 79.128906 C 170.9375 79.449219 170.90625 79.878906 170.90625 80.277344 C 170.855469 80.265625 170.808594 80.246094 170.761719 80.222656 C 170.765625 80.039062 170.789062 79.859375 170.832031 79.679688 C 170.851562 79.589844 170.878906 79.5 170.90625 79.414062 C 170.921875 79.367188 170.941406 79.320312 170.957031 79.277344 Z M 170.386719 79.800781 C 170.371094 79.75 170.390625 79.707031 170.410156 79.664062 C 170.457031 79.570312 170.515625 79.492188 170.589844 79.421875 C 170.550781 79.484375 170.519531 79.550781 170.503906 79.628906 C 170.480469 79.75 170.472656 79.875 170.46875 79.996094 C 170.429688 79.9375 170.402344 79.871094 170.386719 79.800781 Z M 170.550781 80.089844 C 170.550781 79.953125 170.558594 79.816406 170.578125 79.679688 C 170.605469 79.527344 170.683594 79.417969 170.78125 79.300781 C 170.789062 79.292969 170.789062 79.285156 170.792969 79.277344 C 170.824219 79.257812 170.855469 79.242188 170.890625 79.226562 C 170.886719 79.238281 170.882812 79.246094 170.878906 79.253906 C 170.835938 79.363281 170.800781 79.476562 170.769531 79.589844 C 170.71875 79.785156 170.6875 79.980469 170.679688 80.183594 C 170.65625 80.171875 170.632812 80.15625 170.613281 80.140625 C 170.589844 80.125 170.570312 80.109375 170.550781 80.089844 Z M 170.988281 80.300781 C 170.988281 79.882812 171.011719 79.429688 171.320312 79.113281 L 171.324219 79.113281 C 171.292969 79.523438 171.234375 79.925781 171.160156 80.332031 C 171.101562 80.324219 171.042969 80.3125 170.988281 80.300781 Z M 171.5625 81.65625 C 171.597656 81.898438 171.628906 82.136719 171.664062 82.378906 C 171.703125 82.648438 171.808594 82.898438 171.921875 83.148438 C 171.953125 83.214844 171.976562 83.285156 172 83.359375 C 172.011719 83.398438 172.015625 83.441406 172.015625 83.484375 C 172.015625 83.558594 171.960938 83.589844 171.894531 83.550781 C 171.847656 83.519531 171.800781 83.476562 171.769531 83.429688 C 171.730469 83.363281 171.695312 83.289062 171.667969 83.21875 C 171.542969 82.890625 171.464844 82.550781 171.417969 82.203125 C 171.371094 81.867188 171.320312 81.535156 171.273438 81.199219 C 171.234375 80.945312 171.25 80.6875 171.285156 80.433594 C 171.335938 80.066406 171.386719 79.703125 171.4375 79.339844 C 171.449219 79.265625 171.453125 79.191406 171.460938 79.105469 L 171.617188 79.113281 C 171.644531 79.3125 171.636719 79.503906 171.597656 79.695312 C 171.554688 79.910156 171.511719 80.121094 171.5 80.339844 C 171.5 80.394531 171.496094 80.449219 171.496094 80.503906 C 171.496094 80.890625 171.511719 81.273438 171.5625 81.65625 Z M 171.679688 79.960938 C 171.710938 79.78125 171.761719 79.601562 171.761719 79.417969 C 171.761719 79.371094 171.761719 79.324219 171.761719 79.28125 C 171.808594 79.632812 171.796875 79.980469 171.71875 80.328125 C 171.6875 80.332031 171.660156 80.335938 171.628906 80.335938 C 171.648438 80.203125 171.660156 80.082031 171.679688 79.960938 Z M 171.679688 79.960938 " fill-opacity="1" fill-rule="nonzero"/></g></svg>