<svg xmlns="http://www.w3.org/2000/svg" xmlns:xlink="http://www.w3.org/1999/xlink" width="500" zoomAndPan="magnify" viewBox="0 0 375 374.999991" height="500" preserveAspectRatio="xMidYMid meet" version="1.0"><defs><clipPath id="1535609bfb"><path d="M 187.5 54 L 190 54 L 190 56 L 187.5 56 Z M 187.5 54 " clip-rule="nonzero"/></clipPath><clipPath id="3d2ab5d435"><path d="M 193 54 L 195 54 L 195 56 L 193 56 Z M 193 54 " clip-rule="nonzero"/></clipPath><clipPath id="971446f5ec"><path d="M 191 51.390625 L 192 51.390625 L 192 53 L 191 53 Z M 191 51.390625 " clip-rule="nonzero"/></clipPath><clipPath id="d770d9cbb9"><path d="M 189 57 L 191 57 L 191 58.890625 L 189 58.890625 Z M 189 57 " clip-rule="nonzero"/></clipPath><clipPath id="3d6e4e36a5"><path d="M 191 57 L 193 57 L 193 58.890625 L 191 58.890625 Z M 191 57 " clip-rule="nonzero"/></clipPath><clipPath id="cf873e3179"><path d="M 170.089844 73.234375 L 177.589844 73.234375 L 177.589844 83.734375 L 170.089844 83.734375 Z M 170.089844 73.234375 " clip-rule="nonzero"/></clipPath><clipPath id="8ce775dc12"><path d="M 2.816406 3 L 371.816406 3 L 371.816406 373 L 2.816406 373 Z M 2.816406 3 " clip-rule="nonzero"/></clipPath><clipPath id="96497f0d13"><path d="M 113 255 L 371.816406 255 L 371.816406 306 L 113 306 Z M 113 255 " clip-rule="nonzero"/></clipPath><clipPath id="8c1200753b"><path d="M 253 16 L 371.816406 16 L 371.816406 175 L 253 175 Z M 253 16 " clip-rule="nonzero"/></clipPath><clipPath id="b88f246a02"><path d="M 8.644531 240.226562 L 22.144531 240.226562 L 22.144531 254.476562 L 8.644531 254.476562 Z M 8.644531 240.226562 " clip-rule="nonzero"/></clipPath><clipPath id="13c7727a66"><path d="M 12 249 L 22.144531 249 L 22.144531 252 L 12 252 Z M 12 249 " clip-rule="nonzero"/></clipPath><clipPath id="7ceeb0bc0c"><path d="M 17 240.226562 L 22.144531 240.226562 L 22.144531 247 L 17 247 Z M 17 240.226562 " clip-rule="nonzero"/></clipPath></defs><path fill="#100f0d" d="M 191.25 56.546875 C 190.421875 56.546875 189.75 55.882812 189.75 55.070312 C 189.75 54.257812 190.421875 53.59375 191.25 53.59375 C 192.082031 53.59375 192.753906 54.257812 192.753906 55.070312 C 192.753906 55.882812 192.082031 56.546875 191.25 56.546875 Z M 193.121094 55.070312 C 193.121094 54.058594 192.28125 53.238281 191.25 53.238281 C 190.222656 53.238281 189.382812 54.058594 189.382812 55.070312 C 189.382812 56.082031 190.222656 56.902344 191.25 56.902344 C 192.28125 56.902344 193.121094 56.082031 193.121094 55.070312 " fill-opacity="1" fill-rule="nonzero"/><g clip-path="url(#1535609bfb)"><path fill="#100f0d" d="M 189.066406 55.070312 C 189.066406 54.972656 188.984375 54.894531 188.886719 54.894531 L 187.683594 54.894531 C 187.582031 54.894531 187.5 54.972656 187.5 55.070312 C 187.5 55.167969 187.582031 55.246094 187.683594 55.246094 L 188.886719 55.246094 C 188.984375 55.246094 189.066406 55.167969 189.066406 55.070312 " fill-opacity="1" fill-rule="nonzero"/></g><g clip-path="url(#3d2ab5d435)"><path fill="#100f0d" d="M 194.820312 54.894531 L 193.617188 54.894531 C 193.566406 54.894531 193.523438 54.914062 193.488281 54.945312 C 193.457031 54.976562 193.4375 55.019531 193.4375 55.070312 C 193.4375 55.167969 193.519531 55.246094 193.617188 55.246094 L 194.820312 55.246094 C 194.921875 55.246094 195.003906 55.167969 195.003906 55.070312 C 195.003906 54.972656 194.921875 54.894531 194.820312 54.894531 " fill-opacity="1" fill-rule="nonzero"/></g><path fill="#100f0d" d="M 189.382812 53.484375 C 189.453125 53.554688 189.566406 53.554688 189.636719 53.484375 C 189.707031 53.414062 189.707031 53.304688 189.636719 53.234375 L 188.785156 52.398438 C 188.714844 52.328125 188.601562 52.328125 188.53125 52.398438 C 188.460938 52.46875 188.460938 52.578125 188.53125 52.648438 L 189.382812 53.484375 " fill-opacity="1" fill-rule="nonzero"/><path fill="#100f0d" d="M 193.121094 56.65625 C 193.085938 56.621094 193.042969 56.601562 192.996094 56.601562 C 192.949219 56.601562 192.902344 56.621094 192.867188 56.65625 C 192.796875 56.722656 192.796875 56.835938 192.867188 56.90625 L 193.71875 57.742188 C 193.789062 57.808594 193.902344 57.808594 193.972656 57.742188 C 194.042969 57.671875 194.042969 57.558594 193.972656 57.492188 L 193.121094 56.65625 " fill-opacity="1" fill-rule="nonzero"/><g clip-path="url(#971446f5ec)"><path fill="#100f0d" d="M 191.25 52.925781 C 191.351562 52.925781 191.433594 52.847656 191.433594 52.746094 L 191.433594 51.566406 C 191.433594 51.46875 191.351562 51.390625 191.25 51.390625 C 191.152344 51.390625 191.070312 51.46875 191.070312 51.566406 L 191.070312 52.746094 C 191.070312 52.847656 191.152344 52.925781 191.25 52.925781 " fill-opacity="1" fill-rule="nonzero"/></g><path fill="#100f0d" d="M 193.121094 53.484375 L 193.972656 52.648438 C 194.042969 52.578125 194.042969 52.46875 193.972656 52.398438 C 193.902344 52.328125 193.789062 52.328125 193.71875 52.398438 L 192.867188 53.234375 C 192.796875 53.304688 192.796875 53.414062 192.867188 53.484375 C 192.9375 53.554688 193.050781 53.554688 193.121094 53.484375 " fill-opacity="1" fill-rule="nonzero"/><path fill="#100f0d" d="M 189.382812 56.65625 L 188.53125 57.492188 C 188.460938 57.558594 188.460938 57.671875 188.53125 57.742188 C 188.601562 57.808594 188.714844 57.808594 188.785156 57.742188 L 189.636719 56.90625 C 189.671875 56.871094 189.6875 56.824219 189.6875 56.78125 C 189.6875 56.734375 189.671875 56.691406 189.636719 56.65625 C 189.566406 56.585938 189.453125 56.585938 189.382812 56.65625 " fill-opacity="1" fill-rule="nonzero"/><g clip-path="url(#d770d9cbb9)"><path fill="#100f0d" d="M 190.832031 57.410156 C 190.769531 57.410156 190.730469 57.4375 190.710938 57.460938 C 190.683594 57.492188 190.667969 57.535156 190.667969 57.578125 L 190.667969 58.296875 C 190.667969 58.347656 190.65625 58.390625 190.632812 58.429688 C 190.609375 58.46875 190.578125 58.5 190.535156 58.523438 C 190.457031 58.566406 190.363281 58.570312 190.28125 58.523438 C 190.242188 58.5 190.214844 58.472656 190.191406 58.429688 C 190.164062 58.390625 190.15625 58.347656 190.15625 58.296875 L 190.15625 57.578125 C 190.15625 57.53125 190.136719 57.492188 190.101562 57.457031 C 190.035156 57.394531 189.921875 57.398438 189.859375 57.457031 C 189.828125 57.488281 189.808594 57.53125 189.808594 57.578125 L 189.808594 58.296875 C 189.808594 58.40625 189.835938 58.507812 189.886719 58.597656 C 189.9375 58.6875 190.007812 58.761719 190.101562 58.8125 C 190.191406 58.863281 190.292969 58.886719 190.40625 58.886719 C 190.519531 58.886719 190.621094 58.863281 190.710938 58.8125 C 190.800781 58.761719 190.871094 58.6875 190.921875 58.597656 C 190.972656 58.507812 191 58.40625 191 58.296875 L 191 57.578125 C 191 57.53125 190.984375 57.492188 190.953125 57.460938 C 190.921875 57.429688 190.882812 57.410156 190.832031 57.410156 " fill-opacity="1" fill-rule="nonzero"/></g><g clip-path="url(#3d6e4e36a5)"><path fill="#100f0d" d="M 192.425781 57.449219 C 192.402344 57.464844 192.382812 57.488281 192.363281 57.523438 L 192.042969 58.3125 L 191.703125 57.523438 C 191.671875 57.453125 191.617188 57.417969 191.546875 57.417969 C 191.503906 57.417969 191.464844 57.433594 191.433594 57.460938 C 191.394531 57.492188 191.375 57.535156 191.375 57.582031 C 191.375 57.609375 191.382812 57.636719 191.390625 57.652344 L 191.878906 58.785156 C 191.894531 58.8125 191.914062 58.835938 191.941406 58.855469 C 191.964844 58.871094 191.996094 58.878906 192.03125 58.882812 C 192.0625 58.882812 192.09375 58.875 192.125 58.855469 C 192.152344 58.839844 192.175781 58.8125 192.191406 58.777344 L 192.679688 57.652344 C 192.6875 57.625 192.695312 57.601562 192.695312 57.582031 C 192.695312 57.535156 192.675781 57.492188 192.640625 57.460938 C 192.582031 57.414062 192.492188 57.402344 192.425781 57.449219 " fill-opacity="1" fill-rule="nonzero"/></g><g clip-path="url(#cf873e3179)"><path fill="#000000" d="M 175.25 73.863281 C 175 73.707031 174.734375 73.585938 174.449219 73.515625 C 174.109375 73.4375 173.765625 73.367188 173.421875 73.296875 C 173.128906 73.234375 172.832031 73.238281 172.535156 73.300781 C 172.125 73.386719 171.746094 73.542969 171.429688 73.816406 C 170.960938 74.21875 170.597656 74.699219 170.34375 75.261719 C 170.277344 75.410156 170.226562 75.566406 170.179688 75.726562 C 170.089844 76.011719 170.121094 76.289062 170.25 76.558594 C 170.308594 76.679688 170.382812 76.796875 170.453125 76.914062 C 170.542969 77.0625 170.667969 77.175781 170.8125 77.269531 C 171.242188 77.539062 171.707031 77.621094 172.207031 77.546875 C 172.4375 77.511719 172.664062 77.457031 172.882812 77.355469 C 172.886719 77.378906 172.894531 77.394531 172.898438 77.414062 C 172.914062 77.507812 172.929688 77.601562 172.941406 77.695312 C 172.976562 77.957031 173.007812 78.214844 172.988281 78.480469 C 172.957031 78.839844 172.933594 79.199219 172.910156 79.558594 C 172.878906 79.988281 172.839844 80.421875 172.816406 80.851562 C 172.796875 81.308594 172.75 81.757812 172.683594 82.210938 C 172.644531 82.472656 172.601562 82.734375 172.566406 82.996094 C 172.550781 83.152344 172.5625 83.308594 172.625 83.457031 C 172.714844 83.675781 172.953125 83.714844 173.109375 83.535156 C 173.152344 83.480469 173.1875 83.414062 173.203125 83.351562 C 173.226562 83.253906 173.238281 83.152344 173.242188 83.050781 C 173.257812 82.671875 173.28125 82.289062 173.355469 81.910156 C 173.425781 81.535156 173.5 81.160156 173.574219 80.785156 C 173.652344 80.398438 173.6875 80.011719 173.660156 79.621094 C 173.636719 79.253906 173.605469 78.890625 173.578125 78.527344 C 173.558594 78.273438 173.535156 78.023438 173.519531 77.773438 C 173.507812 77.59375 173.507812 77.410156 173.5 77.230469 C 173.496094 77.179688 173.515625 77.15625 173.566406 77.140625 C 173.648438 77.113281 173.730469 77.078125 173.8125 77.050781 C 174.148438 76.941406 174.464844 76.800781 174.753906 76.589844 C 175.066406 76.367188 175.320312 76.101562 175.515625 75.777344 C 175.660156 75.542969 175.757812 75.296875 175.789062 75.027344 C 175.84375 74.535156 175.683594 74.132812 175.25 73.863281 Z M 175.542969 75.3125 C 175.3125 75.625 174.941406 75.789062 174.566406 75.871094 C 174.253906 75.941406 173.867188 75.992188 173.574219 75.839844 C 173.65625 75.855469 173.734375 75.855469 173.816406 75.839844 C 174.066406 75.789062 174.3125 75.65625 174.527344 75.523438 C 174.929688 75.269531 175.261719 74.945312 175.515625 74.546875 C 175.546875 74.617188 175.570312 74.699219 175.578125 74.789062 C 175.601562 74.96875 175.582031 75.140625 175.542969 75.3125 Z M 171.898438 74.378906 C 171.929688 74.511719 171.980469 74.644531 172.03125 74.773438 C 172.074219 74.878906 172.117188 74.992188 172.191406 75.082031 C 172.261719 75.171875 172.363281 75.230469 172.460938 75.292969 L 172.820312 75.515625 C 172.820312 75.523438 172.816406 75.527344 172.816406 75.53125 C 172.8125 75.539062 172.808594 75.546875 172.804688 75.558594 C 172.539062 75.546875 172.300781 75.398438 172.082031 75.261719 C 171.84375 75.117188 171.585938 74.925781 171.574219 74.628906 C 171.574219 74.617188 171.570312 74.609375 171.566406 74.601562 C 171.664062 74.511719 171.777344 74.4375 171.898438 74.378906 Z M 171.496094 74.671875 C 171.527344 74.957031 171.757812 75.15625 171.992188 75.304688 C 172.210938 75.441406 172.445312 75.589844 172.703125 75.628906 C 172.457031 75.730469 172.152344 75.632812 171.917969 75.539062 C 171.640625 75.425781 171.382812 75.238281 171.261719 74.960938 C 171.3125 74.898438 171.363281 74.839844 171.410156 74.773438 C 171.4375 74.738281 171.464844 74.707031 171.496094 74.671875 Z M 171.207031 75.03125 C 171.339844 75.300781 171.589844 75.488281 171.867188 75.605469 C 172.136719 75.714844 172.484375 75.824219 172.761719 75.6875 C 172.757812 75.707031 172.753906 75.722656 172.753906 75.742188 C 172.75 75.742188 172.75 75.742188 172.746094 75.746094 C 172.628906 75.863281 172.484375 75.945312 172.320312 75.980469 C 172.144531 76.019531 171.953125 76.003906 171.773438 75.980469 C 171.601562 75.960938 171.429688 75.921875 171.265625 75.855469 C 171.105469 75.789062 170.921875 75.695312 170.847656 75.527344 C 170.847656 75.527344 170.847656 75.523438 170.847656 75.523438 C 170.929688 75.382812 171.027344 75.25 171.128906 75.121094 C 171.15625 75.089844 171.179688 75.058594 171.207031 75.03125 Z M 170.796875 75.605469 C 170.972656 75.90625 171.414062 76.015625 171.734375 76.058594 C 171.933594 76.082031 172.144531 76.101562 172.339844 76.058594 C 172.457031 76.03125 172.5625 75.984375 172.660156 75.917969 C 172.660156 75.933594 172.65625 75.945312 172.65625 75.957031 C 172.652344 75.960938 172.65625 75.96875 172.65625 75.972656 C 172.511719 76.347656 172.082031 76.484375 171.707031 76.496094 C 171.304688 76.511719 170.824219 76.457031 170.597656 76.089844 C 170.613281 76.019531 170.636719 75.949219 170.664062 75.878906 C 170.703125 75.785156 170.746094 75.695312 170.796875 75.605469 Z M 170.570312 76.675781 C 170.542969 76.515625 170.542969 76.355469 170.570312 76.199219 C 170.835938 76.539062 171.324219 76.597656 171.734375 76.578125 C 172.058594 76.558594 172.40625 76.453125 172.613281 76.207031 C 172.433594 76.519531 172.144531 76.765625 171.804688 76.898438 C 171.4375 77.046875 170.757812 77.117188 170.570312 76.675781 Z M 172.859375 75.445312 L 172.554688 75.253906 C 172.445312 75.1875 172.324219 75.125 172.246094 75.023438 C 172.171875 74.925781 172.132812 74.808594 172.089844 74.695312 C 172.042969 74.582031 172 74.464844 171.972656 74.34375 C 172.019531 74.320312 172.066406 74.304688 172.117188 74.285156 C 172.257812 74.238281 172.398438 74.203125 172.542969 74.183594 C 172.542969 74.1875 172.542969 74.191406 172.542969 74.199219 C 172.496094 74.429688 172.542969 74.65625 172.625 74.875 C 172.691406 75.058594 172.769531 75.242188 172.894531 75.394531 C 172.882812 75.414062 172.871094 75.429688 172.859375 75.445312 Z M 173 74.152344 C 173.015625 74.347656 173.03125 74.542969 173.011719 74.738281 C 172.996094 74.9375 172.972656 75.132812 172.953125 75.332031 C 172.953125 75.332031 172.949219 75.335938 172.949219 75.335938 C 172.835938 75.195312 172.765625 75.023438 172.703125 74.855469 C 172.628906 74.652344 172.578125 74.433594 172.621094 74.21875 C 172.621094 74.21875 172.621094 74.214844 172.621094 74.214844 C 172.632812 74.199219 172.640625 74.1875 172.648438 74.171875 C 172.722656 74.164062 172.796875 74.15625 172.871094 74.15625 C 172.914062 74.15625 172.957031 74.152344 173 74.152344 Z M 173.082031 74.144531 C 173.242188 74.132812 173.398438 74.113281 173.558594 74.089844 C 173.53125 74.324219 173.480469 74.554688 173.40625 74.777344 C 173.34375 74.96875 173.257812 75.15625 173.101562 75.285156 C 173.078125 75.285156 173.058594 75.285156 173.039062 75.289062 C 173.058594 75.105469 173.078125 74.921875 173.09375 74.738281 C 173.113281 74.539062 173.097656 74.34375 173.082031 74.144531 Z M 174.492188 74.046875 C 174.621094 74.054688 174.746094 74.074219 174.871094 74.105469 C 174.902344 74.109375 174.9375 74.121094 174.96875 74.128906 C 174.847656 74.484375 174.660156 74.820312 174.371094 75.074219 C 174.105469 75.304688 173.683594 75.519531 173.328125 75.382812 C 173.597656 75.363281 173.820312 75.160156 173.992188 74.957031 C 174.21875 74.691406 174.425781 74.394531 174.492188 74.046875 Z M 173.96875 74.859375 C 173.78125 75.085938 173.527344 75.347656 173.207031 75.300781 C 173.339844 75.167969 173.417969 74.996094 173.476562 74.824219 C 173.558594 74.582031 173.609375 74.332031 173.640625 74.082031 L 173.660156 74.078125 C 173.910156 74.046875 174.160156 74.027344 174.410156 74.039062 C 174.347656 74.351562 174.171875 74.617188 173.96875 74.859375 Z M 175.46875 74.460938 C 175.246094 74.824219 174.949219 75.140625 174.59375 75.382812 C 174.40625 75.507812 174.207031 75.617188 173.996094 75.699219 C 173.871094 75.75 173.726562 75.796875 173.589844 75.765625 C 173.519531 75.753906 173.457031 75.71875 173.414062 75.671875 C 173.414062 75.664062 173.410156 75.660156 173.410156 75.652344 C 173.390625 75.589844 173.363281 75.527344 173.332031 75.46875 C 173.6875 75.585938 174.089844 75.402344 174.367188 75.183594 C 174.699219 74.917969 174.910156 74.546875 175.046875 74.15625 C 175.085938 74.167969 175.121094 74.183594 175.160156 74.203125 C 175.296875 74.265625 175.398438 74.351562 175.46875 74.460938 Z M 170.417969 76.316406 C 170.410156 76.398438 170.417969 76.480469 170.417969 76.574219 C 170.402344 76.558594 170.394531 76.550781 170.390625 76.542969 C 170.273438 76.308594 170.230469 76.066406 170.292969 75.808594 C 170.335938 75.640625 170.390625 75.476562 170.464844 75.320312 C 170.710938 74.777344 171.0625 74.308594 171.519531 73.914062 C 171.8125 73.664062 172.160156 73.515625 172.539062 73.433594 C 172.832031 73.367188 173.125 73.367188 173.417969 73.429688 C 173.757812 73.5 174.101562 73.570312 174.441406 73.652344 C 174.707031 73.714844 174.953125 73.835938 175.1875 73.976562 C 175.296875 74.042969 175.386719 74.128906 175.464844 74.230469 C 175.363281 74.167969 175.277344 74.113281 175.191406 74.070312 C 175.03125 73.984375 174.851562 73.960938 174.675781 73.933594 C 174.304688 73.878906 173.9375 73.902344 173.570312 73.957031 C 173.28125 74 172.988281 74.015625 172.695312 74.035156 C 172.382812 74.058594 172.085938 74.136719 171.804688 74.273438 C 171.648438 74.355469 171.503906 74.457031 171.390625 74.59375 C 171.171875 74.851562 170.949219 75.113281 170.765625 75.398438 C 170.585938 75.679688 170.453125 75.980469 170.417969 76.316406 Z M 170.785156 77.082031 C 170.714844 77.03125 170.664062 76.972656 170.628906 76.898438 C 170.914062 77.160156 171.441406 77.117188 171.785156 76.996094 C 172.15625 76.859375 172.472656 76.601562 172.667969 76.269531 C 172.621094 76.582031 172.410156 76.851562 172.214844 77.09375 C 172.105469 77.226562 171.980469 77.34375 171.808594 77.386719 C 171.699219 77.410156 171.582031 77.410156 171.46875 77.398438 C 171.21875 77.34375 170.988281 77.246094 170.785156 77.082031 Z M 171.898438 77.441406 C 172.042969 77.386719 172.15625 77.289062 172.253906 77.171875 C 172.441406 76.949219 172.632812 76.703125 172.714844 76.425781 C 172.726562 76.476562 172.734375 76.53125 172.742188 76.585938 C 172.757812 76.859375 172.695312 77.1875 172.476562 77.355469 C 172.289062 77.40625 172.09375 77.4375 171.898438 77.441406 Z M 172.703125 77.285156 C 172.683594 77.292969 172.660156 77.300781 172.640625 77.308594 C 172.722656 77.203125 172.773438 77.070312 172.800781 76.929688 C 172.816406 77.023438 172.832031 77.117188 172.847656 77.21875 C 172.804688 77.238281 172.757812 77.269531 172.703125 77.285156 Z M 173.515625 79.445312 C 173.527344 79.65625 173.535156 79.871094 173.527344 80.082031 C 173.523438 80.378906 173.464844 80.667969 173.402344 80.957031 C 173.3125 81.386719 173.222656 81.816406 173.167969 82.25 C 173.144531 82.449219 173.132812 82.652344 173.117188 82.851562 C 173.113281 82.953125 173.113281 83.054688 173.105469 83.152344 C 173.097656 83.21875 173.085938 83.285156 173.0625 83.347656 C 173.046875 83.398438 173.019531 83.4375 172.980469 83.472656 C 172.898438 83.542969 172.804688 83.523438 172.757812 83.425781 C 172.710938 83.339844 172.699219 83.246094 172.699219 83.148438 C 172.691406 82.960938 172.722656 82.777344 172.753906 82.59375 C 172.84375 82.09375 172.917969 81.589844 172.9375 81.082031 C 172.949219 80.800781 172.964844 80.523438 172.984375 80.246094 C 173.011719 79.882812 173.050781 79.523438 173.078125 79.160156 C 173.097656 78.933594 173.109375 78.703125 173.125 78.476562 C 173.140625 78.21875 173.109375 77.964844 173.082031 77.707031 C 173.050781 77.464844 172.988281 77.226562 172.945312 76.984375 C 172.90625 76.769531 172.855469 76.554688 172.839844 76.339844 C 172.824219 76.085938 172.839844 75.828125 172.9375 75.582031 C 172.957031 75.539062 172.980469 75.496094 173.011719 75.460938 C 173.050781 75.410156 173.105469 75.40625 173.148438 75.449219 C 173.1875 75.488281 173.21875 75.535156 173.238281 75.582031 C 173.300781 75.707031 173.328125 75.847656 173.34375 75.984375 C 173.355469 76.136719 173.363281 76.285156 173.367188 76.4375 C 173.371094 76.84375 173.367188 77.253906 173.382812 77.660156 C 173.394531 77.984375 173.429688 78.308594 173.453125 78.636719 C 173.476562 78.90625 173.5 79.175781 173.515625 79.445312 Z M 173.574219 77 C 173.554688 77.003906 173.535156 77.011719 173.5 77.019531 C 173.5 76.980469 173.5 76.949219 173.5 76.917969 C 173.5 76.761719 173.5 76.605469 173.496094 76.449219 C 173.546875 76.53125 173.605469 76.601562 173.664062 76.664062 C 173.765625 76.777344 173.886719 76.828125 174.023438 76.832031 C 173.875 76.890625 173.722656 76.945312 173.574219 77 Z M 174.695312 76.464844 C 174.605469 76.527344 174.519531 76.59375 174.425781 76.644531 C 174.402344 76.65625 174.382812 76.671875 174.359375 76.683594 C 174.332031 76.695312 174.300781 76.703125 174.273438 76.710938 C 174.242188 76.722656 174.214844 76.730469 174.1875 76.742188 C 174.183594 76.742188 174.179688 76.742188 174.175781 76.742188 C 173.988281 76.78125 173.828125 76.734375 173.707031 76.589844 C 173.628906 76.5 173.535156 76.378906 173.496094 76.257812 C 173.492188 76.222656 173.492188 76.183594 173.492188 76.148438 C 173.492188 76.125 173.492188 76.105469 173.488281 76.082031 C 173.742188 76.269531 174.105469 76.285156 174.410156 76.253906 C 174.679688 76.226562 174.933594 76.152344 175.175781 76.027344 C 175.035156 76.199219 174.875 76.34375 174.695312 76.464844 Z M 175.359375 75.777344 C 175.339844 75.808594 175.320312 75.835938 175.300781 75.867188 C 175.039062 76.027344 174.746094 76.132812 174.4375 76.171875 C 174.121094 76.207031 173.722656 76.199219 173.480469 75.96875 C 173.476562 75.933594 173.46875 75.902344 173.464844 75.871094 C 173.78125 76.074219 174.203125 76.03125 174.558594 75.957031 C 174.90625 75.882812 175.246094 75.742188 175.492188 75.496094 C 175.492188 75.5 175.488281 75.507812 175.484375 75.515625 C 175.457031 75.609375 175.410156 75.695312 175.359375 75.777344 Z M 177.578125 77.726562 C 177.550781 77.574219 177.453125 77.46875 177.320312 77.402344 C 177.25 77.367188 177.171875 77.34375 177.097656 77.320312 C 176.980469 77.285156 176.863281 77.253906 176.746094 77.21875 C 176.578125 77.160156 176.40625 77.121094 176.234375 77.089844 C 175.863281 77.027344 175.511719 77.085938 175.1875 77.265625 C 174.898438 77.433594 174.636719 77.644531 174.4375 77.914062 C 174.273438 78.132812 174.144531 78.371094 174.105469 78.640625 C 174.066406 78.886719 174.144531 79.09375 174.359375 79.238281 C 174.421875 79.28125 174.492188 79.320312 174.566406 79.339844 C 174.691406 79.378906 174.824219 79.402344 174.953125 79.429688 C 175.027344 79.445312 175.101562 79.453125 175.183594 79.464844 C 175.15625 79.535156 175.136719 79.589844 175.117188 79.648438 C 174.988281 80.027344 174.84375 80.394531 174.640625 80.742188 C 174.417969 81.113281 174.238281 81.503906 174.101562 81.914062 C 174.003906 82.214844 173.898438 82.511719 173.796875 82.808594 C 173.773438 82.875 173.757812 82.945312 173.742188 83.011719 C 173.726562 83.113281 173.734375 83.214844 173.789062 83.304688 C 173.863281 83.429688 174 83.457031 174.117188 83.367188 C 174.183594 83.316406 174.226562 83.253906 174.257812 83.179688 C 174.3125 83.070312 174.351562 82.953125 174.367188 82.828125 C 174.394531 82.609375 174.429688 82.394531 174.488281 82.179688 C 174.578125 81.859375 174.722656 81.5625 174.882812 81.273438 C 174.984375 81.082031 175.09375 80.890625 175.179688 80.691406 C 175.355469 80.300781 175.519531 79.910156 175.683594 79.515625 C 175.703125 79.472656 175.726562 79.449219 175.777344 79.441406 C 176.054688 79.394531 176.308594 79.296875 176.53125 79.125 C 176.691406 79 176.855469 78.882812 177.015625 78.753906 C 177.125 78.664062 177.230469 78.570312 177.328125 78.472656 C 177.441406 78.363281 177.515625 78.226562 177.558594 78.078125 C 177.570312 78.035156 177.582031 77.996094 177.589844 77.957031 L 177.589844 77.753906 C 177.585938 77.746094 177.578125 77.734375 177.578125 77.726562 Z M 177.179688 77.511719 C 177.203125 77.515625 177.230469 77.519531 177.253906 77.527344 C 177.132812 77.777344 176.984375 78.015625 176.765625 78.191406 C 176.65625 78.28125 176.523438 78.351562 176.386719 78.394531 C 176.300781 78.417969 176.214844 78.425781 176.128906 78.425781 C 176.257812 78.390625 176.375 78.308594 176.464844 78.230469 C 176.652344 78.0625 176.761719 77.824219 176.746094 77.574219 C 176.746094 77.566406 176.746094 77.5625 176.742188 77.554688 C 176.882812 77.511719 177.027344 77.496094 177.179688 77.511719 Z M 176.042969 79.238281 C 176.042969 79.238281 176.042969 79.238281 176.039062 79.234375 C 175.96875 79.097656 175.949219 78.953125 175.976562 78.800781 C 176.070312 78.941406 176.242188 79.027344 176.421875 79.039062 C 176.304688 79.125 176.179688 79.191406 176.042969 79.238281 Z M 174.230469 78.777344 C 174.230469 78.742188 174.234375 78.699219 174.253906 78.667969 C 174.351562 78.78125 174.558594 78.789062 174.699219 78.769531 C 174.890625 78.746094 175.0625 78.664062 175.226562 78.566406 C 175.113281 78.683594 174.996094 78.792969 174.851562 78.871094 C 174.675781 78.964844 174.417969 79.03125 174.25 78.890625 C 174.242188 78.855469 174.234375 78.816406 174.230469 78.777344 Z M 175.710938 78.246094 C 175.707031 78.246094 175.699219 78.25 175.691406 78.25 C 175.683594 78.25 175.675781 78.25 175.664062 78.25 C 175.683594 78.199219 175.691406 78.148438 175.695312 78.09375 C 175.761719 78.066406 175.824219 78.035156 175.890625 78.003906 C 175.863281 78.105469 175.804688 78.1875 175.710938 78.25 Z M 175.570312 78.273438 C 175.554688 78.28125 175.542969 78.285156 175.527344 78.292969 C 175.484375 78.261719 175.453125 78.21875 175.433594 78.167969 C 175.492188 78.15625 175.550781 78.140625 175.609375 78.121094 C 175.605469 78.175781 175.589844 78.226562 175.570312 78.273438 Z M 175.351562 78.179688 C 175.371094 78.242188 175.40625 78.292969 175.453125 78.335938 C 175.449219 78.339844 175.441406 78.339844 175.4375 78.34375 C 175.378906 78.359375 175.320312 78.371094 175.261719 78.371094 C 175.183594 78.367188 175.03125 78.339844 175.050781 78.230469 C 175.054688 78.230469 175.054688 78.226562 175.054688 78.226562 C 175.054688 78.226562 175.058594 78.226562 175.058594 78.226562 C 175.15625 78.210938 175.253906 78.195312 175.351562 78.179688 Z M 175.207031 78.441406 C 175.136719 78.464844 175.066406 78.484375 174.992188 78.492188 C 174.925781 78.5 174.855469 78.496094 174.792969 78.484375 C 174.726562 78.46875 174.617188 78.433594 174.59375 78.363281 C 174.710938 78.300781 174.835938 78.261719 174.96875 78.238281 C 174.960938 78.375 175.074219 78.429688 175.207031 78.441406 Z M 174.519531 78.402344 C 174.574219 78.527344 174.765625 78.570312 174.886719 78.574219 C 174.949219 78.578125 175.011719 78.574219 175.074219 78.558594 C 174.992188 78.601562 174.90625 78.640625 174.820312 78.664062 C 174.6875 78.703125 174.390625 78.746094 174.300781 78.597656 C 174.332031 78.558594 174.363281 78.523438 174.398438 78.492188 C 174.4375 78.460938 174.476562 78.429688 174.523438 78.402344 Z M 175.980469 77.953125 C 175.992188 77.949219 176 77.941406 176.011719 77.9375 C 176.074219 77.902344 176.136719 77.863281 176.199219 77.828125 C 176.152344 78.003906 176.074219 78.261719 175.878906 78.304688 C 175.859375 78.289062 175.839844 78.277344 175.820312 78.269531 C 175.914062 78.183594 175.96875 78.078125 175.980469 77.953125 Z M 176.664062 77.585938 C 176.675781 77.792969 176.59375 77.988281 176.445312 78.136719 C 176.332031 78.25 176.121094 78.398438 175.945312 78.367188 C 176.15625 78.28125 176.238281 78 176.292969 77.804688 C 176.296875 77.792969 176.292969 77.785156 176.292969 77.777344 C 176.394531 77.722656 176.496094 77.667969 176.597656 77.613281 C 176.621094 77.601562 176.644531 77.59375 176.664062 77.585938 Z M 174.359375 78.304688 C 174.4375 78.136719 174.539062 77.980469 174.667969 77.84375 C 174.835938 77.671875 175.019531 77.515625 175.226562 77.394531 C 175.507812 77.234375 175.816406 77.167969 176.144531 77.210938 C 176.363281 77.242188 176.578125 77.296875 176.789062 77.371094 C 176.800781 77.375 176.8125 77.378906 176.84375 77.394531 C 176.597656 77.449219 176.398438 77.554688 176.203125 77.667969 C 176.132812 77.707031 176.066406 77.746094 176 77.789062 C 175.75 77.953125 175.476562 78.039062 175.179688 78.074219 C 174.988281 78.097656 174.796875 78.121094 174.621094 78.207031 C 174.527344 78.25 174.441406 78.300781 174.347656 78.351562 C 174.351562 78.335938 174.351562 78.316406 174.359375 78.304688 Z M 174.449219 79.136719 C 174.394531 79.109375 174.351562 79.070312 174.316406 79.019531 C 174.46875 79.078125 174.652344 79.046875 174.800781 78.984375 C 174.996094 78.902344 175.152344 78.765625 175.292969 78.613281 C 175.257812 78.753906 175.203125 78.886719 175.109375 78.996094 C 175 79.121094 174.855469 79.203125 174.695312 79.242188 C 174.609375 79.222656 174.527344 79.179688 174.449219 79.136719 Z M 174.855469 79.277344 C 174.976562 79.226562 175.078125 79.152344 175.164062 79.054688 C 175.246094 78.960938 175.300781 78.855469 175.339844 78.746094 C 175.339844 78.761719 175.335938 78.773438 175.335938 78.789062 C 175.320312 78.925781 175.292969 79.0625 175.269531 79.203125 C 175.261719 79.242188 175.246094 79.28125 175.234375 79.324219 C 175.21875 79.324219 175.203125 79.332031 175.191406 79.328125 C 175.078125 79.3125 174.96875 79.296875 174.855469 79.277344 Z M 175.445312 79.742188 C 175.335938 79.992188 175.234375 80.246094 175.121094 80.496094 C 175.003906 80.746094 174.886719 80.992188 174.75 81.230469 C 174.523438 81.632812 174.359375 82.054688 174.273438 82.507812 C 174.253906 82.613281 174.253906 82.722656 174.226562 82.828125 C 174.203125 82.9375 174.167969 83.039062 174.128906 83.140625 C 174.109375 83.1875 174.070312 83.230469 174.03125 83.261719 C 173.984375 83.304688 173.941406 83.292969 173.910156 83.242188 C 173.867188 83.175781 173.863281 83.105469 173.875 83.03125 C 173.882812 82.980469 173.894531 82.933594 173.914062 82.882812 C 174.050781 82.480469 174.183594 82.074219 174.332031 81.671875 C 174.417969 81.449219 174.515625 81.226562 174.640625 81.019531 C 174.902344 80.574219 175.105469 80.105469 175.269531 79.621094 C 175.332031 79.4375 175.410156 79.261719 175.4375 79.066406 C 175.460938 78.898438 175.484375 78.726562 175.503906 78.554688 C 175.515625 78.445312 175.625 78.359375 175.730469 78.378906 C 175.773438 78.386719 175.808594 78.410156 175.820312 78.449219 C 175.828125 78.488281 175.832031 78.527344 175.84375 78.570312 C 175.828125 78.644531 175.816406 78.722656 175.792969 78.796875 C 175.6875 79.113281 175.582031 79.433594 175.445312 79.742188 Z M 175.761719 79.308594 C 175.804688 79.179688 175.847656 79.0625 175.882812 78.949219 C 175.886719 79.058594 175.914062 79.164062 175.960938 79.265625 C 175.921875 79.277344 175.882812 79.285156 175.84375 79.292969 C 175.824219 79.300781 175.800781 79.300781 175.761719 79.308594 Z M 176.925781 78.652344 C 176.796875 78.757812 176.660156 78.855469 176.527344 78.957031 C 176.277344 78.992188 176.011719 78.84375 175.992188 78.589844 C 176.046875 78.613281 176.109375 78.621094 176.152344 78.628906 C 176.292969 78.65625 176.433594 78.664062 176.574219 78.652344 C 176.742188 78.640625 176.902344 78.605469 177.058594 78.542969 C 177.015625 78.582031 176.972656 78.617188 176.925781 78.652344 Z M 177.429688 78.046875 C 177.394531 78.160156 177.339844 78.265625 177.257812 78.355469 C 176.980469 78.523438 176.675781 78.597656 176.347656 78.574219 C 176.308594 78.570312 176.054688 78.550781 176 78.503906 C 176.132812 78.511719 176.265625 78.511719 176.394531 78.472656 C 176.539062 78.433594 176.675781 78.363281 176.792969 78.269531 C 177.035156 78.089844 177.195312 77.832031 177.328125 77.566406 C 177.398438 77.613281 177.445312 77.691406 177.457031 77.78125 C 177.46875 77.871094 177.457031 77.960938 177.429688 78.046875 Z M 171.867188 80.4375 C 172.335938 80.351562 172.566406 79.898438 172.496094 79.539062 C 172.464844 79.367188 172.410156 79.199219 172.347656 79.035156 C 172.3125 78.957031 172.289062 78.871094 172.261719 78.789062 C 172.207031 78.632812 172.160156 78.476562 172.097656 78.324219 C 172.058594 78.230469 172.003906 78.140625 171.941406 78.054688 C 171.855469 77.941406 171.730469 77.890625 171.585938 77.890625 C 171.429688 77.890625 171.289062 77.9375 171.160156 78.015625 C 170.996094 78.117188 170.863281 78.25 170.742188 78.394531 C 170.492188 78.703125 170.34375 79.058594 170.246094 79.433594 C 170.214844 79.542969 170.210938 79.65625 170.238281 79.765625 C 170.277344 79.933594 170.332031 80.09375 170.480469 80.207031 C 170.613281 80.308594 170.757812 80.386719 170.925781 80.421875 C 170.996094 80.4375 171.066406 80.453125 171.144531 80.46875 C 171.140625 80.515625 171.136719 80.550781 171.132812 80.585938 C 171.117188 80.78125 171.109375 80.976562 171.136719 81.171875 C 171.1875 81.550781 171.246094 81.929688 171.296875 82.304688 C 171.34375 82.640625 171.429688 82.964844 171.550781 83.277344 C 171.582031 83.367188 171.628906 83.449219 171.679688 83.53125 C 171.722656 83.605469 171.789062 83.660156 171.875 83.6875 C 172.011719 83.730469 172.140625 83.648438 172.148438 83.507812 C 172.152344 83.457031 172.152344 83.402344 172.136719 83.351562 C 172.109375 83.261719 172.078125 83.175781 172.042969 83.09375 C 171.945312 82.875 171.851562 82.65625 171.808594 82.421875 C 171.695312 81.804688 171.632812 81.1875 171.628906 80.5625 C 171.628906 80.535156 171.632812 80.503906 171.632812 80.476562 C 171.71875 80.460938 171.792969 80.449219 171.867188 80.4375 Z M 171.804688 80.3125 C 171.886719 79.925781 171.890625 79.535156 171.824219 79.144531 C 171.835938 79.148438 171.851562 79.152344 171.867188 79.15625 C 171.964844 79.535156 171.96875 79.914062 171.878906 80.296875 C 171.855469 80.300781 171.832031 80.308594 171.804688 80.3125 Z M 172.101562 79.25 C 172.164062 79.382812 172.164062 79.542969 172.167969 79.683594 C 172.175781 79.84375 172.167969 80.003906 172.148438 80.164062 C 172.09375 80.210938 172.035156 80.242188 171.972656 80.269531 C 172.050781 79.90625 172.042969 79.546875 171.957031 79.1875 C 172.007812 79.203125 172.054688 79.226562 172.101562 79.25 Z M 172.363281 79.546875 C 172.386719 79.714844 172.363281 79.871094 172.269531 80.019531 C 172.261719 80.035156 172.25 80.046875 172.238281 80.0625 C 172.253906 79.925781 172.257812 79.789062 172.25 79.652344 C 172.246094 79.542969 172.242188 79.421875 172.210938 79.3125 C 172.214844 79.316406 172.21875 79.316406 172.21875 79.320312 C 172.300781 79.375 172.347656 79.445312 172.363281 79.546875 Z M 170.394531 79.394531 C 170.492188 79.0625 170.625 78.746094 170.851562 78.476562 C 170.957031 78.34375 171.074219 78.222656 171.222656 78.132812 C 171.335938 78.0625 171.460938 78.019531 171.601562 78.023438 C 171.691406 78.027344 171.777344 78.058594 171.832031 78.132812 C 171.882812 78.203125 171.9375 78.277344 171.96875 78.359375 C 172.027344 78.503906 172.074219 78.648438 172.121094 78.796875 C 172.164062 78.917969 172.203125 79.039062 172.25 79.175781 C 171.9375 78.996094 171.609375 78.9375 171.269531 78.984375 C 170.933594 79.03125 170.628906 79.15625 170.394531 79.4375 C 170.394531 79.414062 170.390625 79.402344 170.394531 79.394531 Z M 170.957031 79.277344 C 170.964844 79.257812 170.976562 79.21875 170.988281 79.1875 C 171.058594 79.164062 171.128906 79.144531 171.199219 79.128906 C 170.9375 79.449219 170.90625 79.878906 170.90625 80.277344 C 170.855469 80.265625 170.808594 80.246094 170.761719 80.222656 C 170.765625 80.039062 170.789062 79.859375 170.832031 79.679688 C 170.851562 79.589844 170.878906 79.5 170.90625 79.414062 C 170.921875 79.367188 170.941406 79.320312 170.957031 79.277344 Z M 170.386719 79.800781 C 170.371094 79.75 170.390625 79.707031 170.410156 79.664062 C 170.457031 79.570312 170.515625 79.492188 170.589844 79.421875 C 170.550781 79.484375 170.519531 79.550781 170.503906 79.628906 C 170.480469 79.75 170.472656 79.875 170.46875 79.996094 C 170.429688 79.9375 170.402344 79.871094 170.386719 79.800781 Z M 170.550781 80.089844 C 170.550781 79.953125 170.558594 79.816406 170.578125 79.679688 C 170.605469 79.527344 170.683594 79.417969 170.78125 79.300781 C 170.789062 79.292969 170.789062 79.285156 170.792969 79.277344 C 170.824219 79.257812 170.855469 79.242188 170.890625 79.226562 C 170.886719 79.238281 170.882812 79.246094 170.878906 79.253906 C 170.835938 79.363281 170.800781 79.476562 170.769531 79.589844 C 170.71875 79.785156 170.6875 79.980469 170.679688 80.183594 C 170.65625 80.171875 170.632812 80.15625 170.613281 80.140625 C 170.589844 80.125 170.570312 80.109375 170.550781 80.089844 Z M 170.988281 80.300781 C 170.988281 79.882812 171.011719 79.429688 171.320312 79.113281 L 171.324219 79.113281 C 171.292969 79.523438 171.234375 79.925781 171.160156 80.332031 C 171.101562 80.324219 171.042969 80.3125 170.988281 80.300781 Z M 171.5625 81.65625 C 171.597656 81.898438 171.628906 82.136719 171.664062 82.378906 C 171.703125 82.648438 171.808594 82.898438 171.921875 83.148438 C 171.953125 83.214844 171.976562 83.285156 172 83.359375 C 172.011719 83.398438 172.015625 83.441406 172.015625 83.484375 C 172.015625 83.558594 171.960938 83.589844 171.894531 83.550781 C 171.847656 83.519531 171.800781 83.476562 171.769531 83.429688 C 171.730469 83.363281 171.695312 83.289062 171.667969 83.21875 C 171.542969 82.890625 171.464844 82.550781 171.417969 82.203125 C 171.371094 81.867188 171.320312 81.535156 171.273438 81.199219 C 171.234375 80.945312 171.25 80.6875 171.285156 80.433594 C 171.335938 80.066406 171.386719 79.703125 171.4375 79.339844 C 171.449219 79.265625 171.453125 79.191406 171.460938 79.105469 L 171.617188 79.113281 C 171.644531 79.3125 171.636719 79.503906 171.597656 79.695312 C 171.554688 79.910156 171.511719 80.121094 171.5 80.339844 C 171.5 80.394531 171.496094 80.449219 171.496094 80.503906 C 171.496094 80.890625 171.511719 81.273438 171.5625 81.65625 Z M 171.679688 79.960938 C 171.710938 79.78125 171.761719 79.601562 171.761719 79.417969 C 171.761719 79.371094 171.761719 79.324219 171.761719 79.28125 C 171.808594 79.632812 171.796875 79.980469 171.71875 80.328125 C 171.6875 80.332031 171.660156 80.335938 171.628906 80.335938 C 171.648438 80.203125 171.660156 80.082031 171.679688 79.960938 Z M 171.679688 79.960938 " fill-opacity="1" fill-rule="nonzero"/></g><g clip-path="url(#8ce775dc12)"><path fill="#000000" d="M 358.636719 224.339844 C 356.699219 224.351562 354.78125 224.167969 352.878906 223.792969 C 350.980469 223.414062 349.136719 222.851562 347.351562 222.105469 C 345.5625 221.355469 343.871094 220.4375 342.269531 219.34375 C 340.667969 218.253906 339.191406 217.015625 337.839844 215.625 C 336.585938 214.472656 335.277344 213.382812 333.917969 212.351562 C 332.558594 211.320312 331.15625 210.355469 329.710938 209.457031 C 328.261719 208.554688 326.777344 207.722656 325.25 206.960938 C 323.726562 206.199219 322.167969 205.507812 320.582031 204.890625 C 318.992188 204.273438 317.378906 203.730469 315.738281 203.261719 C 314.101562 202.792969 312.441406 202.402344 310.765625 202.089844 C 309.089844 201.773438 307.40625 201.539062 305.707031 201.378906 C 304.011719 201.222656 302.308594 201.144531 300.605469 201.144531 C 298.902344 201.144531 297.199219 201.222656 295.503906 201.378906 C 293.804688 201.539062 292.117188 201.773438 290.441406 202.089844 C 288.769531 202.402344 287.109375 202.792969 285.472656 203.261719 C 283.832031 203.730469 282.21875 204.273438 280.628906 204.890625 C 279.039062 205.507812 277.484375 206.199219 275.960938 206.960938 C 274.433594 207.722656 272.949219 208.554688 271.5 209.457031 C 270.054688 210.355469 268.648438 211.320312 267.292969 212.351562 C 265.933594 213.382812 264.625 214.472656 263.367188 215.625 L 262.828125 216.046875 C 243.507812 140.8125 149.320312 14.246094 145.144531 8.671875 C 144.824219 8.28125 144.484375 7.914062 144.125 7.5625 C 143.765625 7.210938 143.386719 6.882812 142.992188 6.574219 C 142.59375 6.265625 142.183594 5.976562 141.753906 5.714844 C 141.324219 5.453125 140.886719 5.210938 140.429688 4.996094 C 139.976562 4.785156 139.511719 4.59375 139.035156 4.429688 C 138.5625 4.269531 138.078125 4.132812 137.589844 4.019531 C 137.097656 3.910156 136.601562 3.828125 136.105469 3.773438 C 135.605469 3.71875 135.105469 3.691406 134.601562 3.691406 C 134.097656 3.691406 133.597656 3.71875 133.097656 3.773438 C 132.597656 3.828125 132.105469 3.910156 131.613281 4.019531 C 131.125 4.132812 130.640625 4.269531 130.164062 4.429688 C 129.691406 4.59375 129.226562 4.785156 128.773438 4.996094 C 128.316406 5.210938 127.875 5.453125 127.449219 5.714844 C 127.019531 5.976562 126.609375 6.265625 126.210938 6.574219 C 125.816406 6.882812 125.4375 7.210938 125.078125 7.5625 C 124.71875 7.914062 124.378906 8.28125 124.058594 8.671875 C 111.644531 25.28125 2.816406 172.726562 2.816406 240.683594 C 2.816406 243.652344 2.914062 246.617188 3.113281 249.578125 C 3.3125 252.539062 3.613281 255.488281 4.011719 258.429688 C 4.410156 261.367188 4.910156 264.292969 5.503906 267.199219 C 6.101562 270.105469 6.796875 272.988281 7.585938 275.851562 C 8.378906 278.710938 9.265625 281.539062 10.246094 284.339844 C 11.226562 287.140625 12.304688 289.902344 13.472656 292.632812 C 14.640625 295.359375 15.898438 298.042969 17.25 300.6875 C 18.597656 303.328125 20.035156 305.921875 21.5625 308.46875 C 23.085938 311.011719 24.695312 313.503906 26.386719 315.941406 C 28.082031 318.375 29.855469 320.753906 31.707031 323.070312 C 33.5625 325.386719 35.492188 327.640625 37.496094 329.824219 C 39.503906 332.011719 41.578125 334.128906 43.726562 336.175781 C 45.875 338.21875 48.089844 340.191406 50.375 342.089844 C 52.65625 343.984375 54.996094 345.800781 57.402344 347.539062 C 59.804688 349.277344 62.265625 350.933594 64.78125 352.507812 C 67.296875 354.078125 69.863281 355.5625 72.480469 356.960938 C 75.097656 358.359375 77.757812 359.671875 80.460938 360.890625 C 83.164062 362.109375 85.910156 363.234375 88.6875 364.269531 C 91.46875 365.300781 94.28125 366.242188 97.125 367.085938 C 99.96875 367.929688 102.839844 368.675781 105.734375 369.324219 C 108.628906 369.976562 111.542969 370.527344 114.472656 370.980469 C 117.40625 371.433594 120.347656 371.789062 123.304688 372.042969 C 126.257812 372.296875 129.21875 372.449219 132.1875 372.503906 C 135.152344 372.558594 138.117188 372.511719 141.078125 372.367188 C 144.042969 372.222656 146.996094 371.976562 149.941406 371.628906 C 152.890625 371.285156 155.820312 370.839844 158.738281 370.296875 C 161.652344 369.753906 164.546875 369.113281 167.421875 368.375 C 170.292969 367.632812 173.136719 366.800781 175.957031 365.867188 C 178.773438 364.9375 181.554688 363.914062 184.300781 362.792969 C 187.046875 361.675781 189.753906 360.464844 192.421875 359.160156 C 195.085938 357.859375 197.707031 356.46875 200.277344 354.992188 C 202.847656 353.511719 205.367188 351.949219 207.835938 350.296875 C 208.554688 349.816406 209.21875 349.269531 209.832031 348.65625 C 210.441406 348.042969 210.988281 347.378906 211.46875 346.65625 C 211.945312 345.9375 212.351562 345.175781 212.683594 344.375 C 213.011719 343.578125 213.261719 342.753906 213.429688 341.902344 C 213.597656 341.054688 213.683594 340.195312 213.679688 339.332031 C 213.679688 338.464844 213.59375 337.605469 213.425781 336.757812 C 213.253906 335.910156 213.003906 335.085938 212.671875 334.285156 C 212.339844 333.488281 211.933594 332.726562 211.453125 332.007812 C 210.96875 331.289062 210.421875 330.625 209.8125 330.011719 C 209.199219 329.398438 208.53125 328.855469 207.8125 328.375 C 207.089844 327.894531 206.332031 327.488281 205.53125 327.15625 C 204.730469 326.828125 203.90625 326.578125 203.058594 326.410156 C 202.210938 326.242188 201.351562 326.160156 200.488281 326.160156 C 199.621094 326.160156 198.765625 326.246094 197.914062 326.414062 C 197.066406 326.585938 196.242188 326.835938 195.445312 327.167969 C 194.644531 327.5 193.886719 327.90625 193.167969 328.390625 C 191.195312 329.707031 189.179688 330.957031 187.121094 332.140625 C 185.0625 333.324219 182.96875 334.433594 180.835938 335.476562 C 178.703125 336.515625 176.539062 337.484375 174.339844 338.378906 C 172.140625 339.273438 169.917969 340.09375 167.664062 340.835938 C 165.410156 341.582031 163.132812 342.25 160.835938 342.839844 C 158.539062 343.429688 156.222656 343.945312 153.890625 344.378906 C 151.558594 344.8125 149.210938 345.167969 146.855469 345.441406 C 144.5 345.71875 142.136719 345.914062 139.765625 346.03125 C 137.394531 346.148438 135.023438 346.183594 132.652344 346.140625 C 130.277344 346.09375 127.910156 345.972656 125.546875 345.769531 C 123.183594 345.5625 120.828125 345.28125 118.480469 344.917969 C 116.136719 344.554688 113.808594 344.113281 111.492188 343.59375 C 109.175781 343.074219 106.882812 342.476562 104.605469 341.800781 C 102.332031 341.125 100.082031 340.375 97.859375 339.546875 C 95.632812 338.71875 93.441406 337.816406 91.277344 336.84375 C 89.113281 335.867188 86.984375 334.820312 84.894531 333.699219 C 82.800781 332.582031 80.75 331.390625 78.734375 330.136719 C 76.722656 328.878906 74.757812 327.554688 72.832031 326.164062 C 70.910156 324.773438 69.035156 323.316406 67.210938 321.800781 C 65.386719 320.28125 63.613281 318.707031 61.894531 317.070312 C 60.179688 315.433594 58.515625 313.738281 56.914062 311.988281 C 55.308594 310.242188 53.765625 308.441406 52.28125 306.585938 C 50.800781 304.734375 49.382812 302.832031 48.027344 300.882812 C 46.671875 298.933594 45.386719 296.941406 44.167969 294.90625 C 42.945312 292.867188 41.796875 290.792969 40.71875 288.679688 C 39.636719 286.566406 38.628906 284.417969 37.695312 282.238281 C 36.761719 280.054688 35.902344 277.84375 35.117188 275.605469 C 34.332031 273.363281 33.621094 271.101562 32.988281 268.8125 C 32.355469 266.527344 31.800781 264.21875 31.324219 261.894531 C 30.847656 259.570312 30.449219 257.230469 30.128906 254.878906 C 29.8125 252.527344 29.570312 250.167969 29.410156 247.796875 C 29.253906 245.429688 29.171875 243.058594 29.171875 240.683594 C 29.171875 195.375 97.597656 90.535156 134.601562 38.992188 C 160.15625 74.792969 224.214844 168.417969 237.566406 223.878906 C 234.609375 223.28125 231.800781 222.285156 229.128906 220.886719 C 226.460938 219.488281 224.039062 217.742188 221.871094 215.652344 C 220.613281 214.5 219.308594 213.40625 217.949219 212.375 C 216.59375 211.347656 215.191406 210.378906 213.746094 209.480469 C 212.296875 208.578125 210.8125 207.746094 209.289062 206.984375 C 207.765625 206.222656 206.207031 205.53125 204.621094 204.914062 C 203.03125 204.296875 201.417969 203.753906 199.78125 203.285156 C 198.144531 202.816406 196.484375 202.425781 194.8125 202.109375 C 193.136719 201.796875 191.449219 201.558594 189.753906 201.402344 C 188.058594 201.242188 186.355469 201.164062 184.652344 201.164062 C 182.949219 201.164062 181.25 201.242188 179.550781 201.402344 C 177.855469 201.558594 176.171875 201.796875 174.496094 202.109375 C 172.820312 202.425781 171.164062 202.816406 169.527344 203.285156 C 167.886719 203.753906 166.273438 204.296875 164.6875 204.914062 C 163.097656 205.53125 161.542969 206.222656 160.019531 206.984375 C 158.496094 207.746094 157.007812 208.578125 155.5625 209.480469 C 154.117188 210.378906 152.714844 211.347656 151.355469 212.375 C 150 213.40625 148.691406 214.5 147.4375 215.652344 C 146.089844 217.035156 144.621094 218.273438 143.023438 219.363281 C 141.429688 220.449219 139.738281 221.367188 137.960938 222.117188 C 136.179688 222.863281 134.339844 223.425781 132.445312 223.800781 C 130.550781 224.179688 128.636719 224.363281 126.707031 224.351562 C 125.84375 224.351562 124.984375 224.4375 124.136719 224.605469 C 123.289062 224.773438 122.464844 225.023438 121.664062 225.355469 C 120.863281 225.6875 120.105469 226.09375 119.386719 226.574219 C 118.667969 227.054688 118 227.601562 117.386719 228.210938 C 116.777344 228.824219 116.230469 229.492188 115.75 230.210938 C 115.269531 230.929688 114.863281 231.691406 114.53125 232.488281 C 114.199219 233.289062 113.949219 234.113281 113.78125 234.960938 C 113.613281 235.8125 113.527344 236.667969 113.527344 237.535156 C 113.527344 238.398438 113.613281 239.257812 113.78125 240.105469 C 113.949219 240.953125 114.199219 241.78125 114.53125 242.578125 C 114.863281 243.378906 115.269531 244.136719 115.75 244.859375 C 116.230469 245.578125 116.777344 246.242188 117.386719 246.855469 C 118 247.46875 118.667969 248.015625 119.386719 248.496094 C 120.105469 248.976562 120.863281 249.382812 121.664062 249.714844 C 122.464844 250.042969 123.289062 250.292969 124.136719 250.464844 C 124.984375 250.632812 125.84375 250.71875 126.707031 250.71875 C 130.125 250.746094 133.515625 250.453125 136.878906 249.835938 C 140.242188 249.222656 143.519531 248.292969 146.703125 247.050781 C 149.890625 245.808594 152.929688 244.277344 155.824219 242.453125 C 158.71875 240.632812 161.414062 238.550781 163.910156 236.214844 C 164.585938 235.527344 165.292969 234.875 166.03125 234.257812 C 166.773438 233.640625 167.539062 233.0625 168.335938 232.523438 C 169.132812 231.980469 169.957031 231.480469 170.804688 231.023438 C 171.648438 230.5625 172.519531 230.148438 173.40625 229.773438 C 174.292969 229.402344 175.199219 229.074219 176.121094 228.792969 C 177.039062 228.507812 177.972656 228.273438 178.917969 228.082031 C 179.859375 227.890625 180.8125 227.75 181.769531 227.652344 C 182.730469 227.558594 183.691406 227.511719 184.652344 227.511719 C 185.617188 227.511719 186.578125 227.558594 187.535156 227.652344 C 188.496094 227.75 189.445312 227.890625 190.390625 228.082031 C 191.335938 228.273438 192.265625 228.507812 193.1875 228.792969 C 194.109375 229.074219 195.011719 229.402344 195.902344 229.773438 C 196.789062 230.148438 197.65625 230.5625 198.503906 231.023438 C 199.351562 231.480469 200.171875 231.980469 200.96875 232.523438 C 201.765625 233.0625 202.535156 233.640625 203.273438 234.257812 C 204.015625 234.875 204.722656 235.527344 205.394531 236.214844 C 206.652344 237.367188 207.960938 238.457031 209.316406 239.488281 C 210.675781 240.519531 212.078125 241.484375 213.527344 242.386719 C 214.972656 243.285156 216.460938 244.117188 217.984375 244.878906 C 219.507812 245.640625 221.066406 246.332031 222.652344 246.949219 C 224.242188 247.566406 225.855469 248.109375 227.496094 248.578125 C 229.132812 249.046875 230.789062 249.4375 232.464844 249.75 C 234.140625 250.066406 235.828125 250.300781 237.523438 250.460938 C 239.222656 250.617188 240.921875 250.695312 242.625 250.695312 C 244.332031 250.695312 246.03125 250.617188 247.726562 250.460938 C 249.425781 250.300781 251.109375 250.066406 252.785156 249.75 C 254.460938 249.4375 256.117188 249.046875 257.757812 248.578125 C 259.394531 248.109375 261.011719 247.566406 262.597656 246.949219 C 264.1875 246.332031 265.742188 245.640625 267.269531 244.878906 C 268.792969 244.117188 270.277344 243.285156 271.726562 242.386719 C 273.171875 241.484375 274.574219 240.519531 275.933594 239.488281 C 277.292969 238.457031 278.597656 237.367188 279.855469 236.214844 C 280.53125 235.527344 281.242188 234.875 281.984375 234.257812 C 282.726562 233.640625 283.496094 233.058594 284.292969 232.519531 C 285.09375 231.976562 285.917969 231.476562 286.765625 231.019531 C 287.613281 230.558594 288.484375 230.140625 289.375 229.769531 C 290.265625 229.394531 291.171875 229.066406 292.09375 228.785156 C 293.015625 228.503906 293.949219 228.265625 294.898438 228.074219 C 295.84375 227.886719 296.796875 227.742188 297.757812 227.644531 C 298.71875 227.550781 299.679688 227.503906 300.644531 227.503906 C 301.609375 227.503906 302.574219 227.550781 303.53125 227.644531 C 304.492188 227.742188 305.445312 227.886719 306.390625 228.074219 C 307.339844 228.265625 308.273438 228.503906 309.195312 228.785156 C 310.117188 229.066406 311.023438 229.394531 311.914062 229.769531 C 312.804688 230.140625 313.675781 230.558594 314.523438 231.019531 C 315.371094 231.476562 316.195312 231.976562 316.996094 232.519531 C 317.792969 233.058594 318.566406 233.640625 319.304688 234.257812 C 320.046875 234.875 320.757812 235.527344 321.433594 236.214844 C 323.933594 238.546875 326.628906 240.625 329.523438 242.445312 C 332.417969 244.261719 335.460938 245.792969 338.644531 247.035156 C 341.832031 248.273438 345.105469 249.203125 348.464844 249.820312 C 351.828125 250.4375 355.21875 250.730469 358.636719 250.703125 C 359.503906 250.703125 360.359375 250.621094 361.207031 250.449219 C 362.054688 250.28125 362.878906 250.03125 363.679688 249.699219 C 364.480469 249.367188 365.238281 248.964844 365.957031 248.480469 C 366.679688 248 367.34375 247.453125 367.957031 246.84375 C 368.566406 246.230469 369.113281 245.566406 369.59375 244.84375 C 370.074219 244.125 370.480469 243.367188 370.8125 242.566406 C 371.144531 241.765625 371.394531 240.941406 371.5625 240.09375 C 371.730469 239.242188 371.816406 238.386719 371.816406 237.519531 C 371.816406 236.65625 371.730469 235.796875 371.5625 234.949219 C 371.394531 234.101562 371.144531 233.277344 370.8125 232.476562 C 370.480469 231.675781 370.074219 230.917969 369.59375 230.195312 C 369.113281 229.476562 368.566406 228.8125 367.957031 228.199219 C 367.34375 227.585938 366.679688 227.042969 365.957031 226.558594 C 365.238281 226.078125 364.480469 225.671875 363.679688 225.34375 C 362.878906 225.011719 362.054688 224.761719 361.207031 224.589844 C 360.359375 224.421875 359.503906 224.339844 358.636719 224.339844 Z M 358.636719 224.339844 " fill-opacity="1" fill-rule="nonzero"/></g><g clip-path="url(#96497f0d13)"><path fill="#000000" d="M 358.636719 278.652344 C 356.699219 278.664062 354.78125 278.480469 352.878906 278.105469 C 350.980469 277.726562 349.136719 277.164062 347.351562 276.417969 C 345.5625 275.667969 343.871094 274.75 342.269531 273.65625 C 340.667969 272.566406 339.191406 271.328125 337.839844 269.9375 C 336.585938 268.785156 335.277344 267.695312 333.917969 266.664062 C 332.558594 265.632812 331.15625 264.667969 329.710938 263.769531 C 328.261719 262.867188 326.777344 262.035156 325.25 261.273438 C 323.726562 260.511719 322.167969 259.820312 320.582031 259.203125 C 318.992188 258.585938 317.378906 258.042969 315.738281 257.574219 C 314.101562 257.105469 312.441406 256.714844 310.765625 256.402344 C 309.089844 256.085938 307.40625 255.851562 305.707031 255.691406 C 304.011719 255.535156 302.308594 255.457031 300.605469 255.457031 C 298.902344 255.457031 297.199219 255.535156 295.503906 255.691406 C 293.804688 255.851562 292.117188 256.085938 290.441406 256.402344 C 288.769531 256.714844 287.109375 257.105469 285.472656 257.574219 C 283.832031 258.042969 282.21875 258.585938 280.628906 259.203125 C 279.039062 259.820312 277.484375 260.511719 275.960938 261.273438 C 274.433594 262.035156 272.949219 262.867188 271.5 263.769531 C 270.054688 264.667969 268.648438 265.632812 267.292969 266.664062 C 265.933594 267.695312 264.625 268.785156 263.367188 269.9375 C 262.691406 270.625 261.984375 271.277344 261.246094 271.894531 C 260.503906 272.515625 259.734375 273.09375 258.9375 273.636719 C 258.136719 274.175781 257.316406 274.675781 256.46875 275.136719 C 255.617188 275.597656 254.75 276.011719 253.859375 276.386719 C 252.972656 276.757812 252.066406 277.085938 251.144531 277.371094 C 250.222656 277.652344 249.289062 277.890625 248.34375 278.082031 C 247.398438 278.269531 246.445312 278.414062 245.484375 278.507812 C 244.527344 278.605469 243.5625 278.652344 242.597656 278.652344 C 241.636719 278.652344 240.671875 278.605469 239.714844 278.507812 C 238.753906 278.414062 237.800781 278.269531 236.855469 278.082031 C 235.910156 277.890625 234.976562 277.652344 234.054688 277.371094 C 233.132812 277.085938 232.226562 276.757812 231.339844 276.386719 C 230.449219 276.011719 229.582031 275.597656 228.730469 275.136719 C 227.882812 274.675781 227.0625 274.175781 226.261719 273.636719 C 225.464844 273.09375 224.695312 272.515625 223.953125 271.894531 C 223.214844 271.277344 222.507812 270.625 221.832031 269.9375 C 220.574219 268.785156 219.269531 267.695312 217.910156 266.664062 C 216.554688 265.632812 215.152344 264.667969 213.707031 263.765625 C 212.257812 262.867188 210.773438 262.035156 209.25 261.269531 C 207.726562 260.507812 206.167969 259.816406 204.582031 259.199219 C 202.992188 258.582031 201.378906 258.039062 199.742188 257.570312 C 198.101562 257.101562 196.445312 256.710938 194.773438 256.394531 C 193.097656 256.082031 191.410156 255.84375 189.714844 255.6875 C 188.019531 255.53125 186.316406 255.449219 184.613281 255.449219 C 182.910156 255.449219 181.210938 255.53125 179.511719 255.6875 C 177.816406 255.84375 176.128906 256.082031 174.457031 256.394531 C 172.78125 256.710938 171.125 257.101562 169.484375 257.570312 C 167.847656 258.039062 166.234375 258.582031 164.644531 259.199219 C 163.058594 259.816406 161.503906 260.507812 159.980469 261.269531 C 158.453125 262.035156 156.96875 262.867188 155.523438 263.765625 C 154.074219 264.667969 152.675781 265.632812 151.316406 266.664062 C 149.960938 267.695312 148.652344 268.785156 147.398438 269.9375 C 146.050781 271.324219 144.582031 272.558594 142.984375 273.648438 C 141.390625 274.738281 139.699219 275.65625 137.917969 276.402344 C 136.136719 277.148438 134.300781 277.710938 132.40625 278.089844 C 130.511719 278.464844 128.597656 278.648438 126.667969 278.636719 C 125.800781 278.636719 124.945312 278.722656 124.097656 278.890625 C 123.246094 279.058594 122.425781 279.308594 121.625 279.640625 C 120.824219 279.972656 120.066406 280.378906 119.347656 280.859375 C 118.625 281.339844 117.960938 281.886719 117.347656 282.5 C 116.738281 283.109375 116.191406 283.777344 115.710938 284.496094 C 115.230469 285.214844 114.824219 285.976562 114.492188 286.777344 C 114.160156 287.574219 113.910156 288.398438 113.742188 289.25 C 113.574219 290.097656 113.488281 290.953125 113.488281 291.820312 C 113.488281 292.6875 113.574219 293.542969 113.742188 294.390625 C 113.910156 295.242188 114.160156 296.066406 114.492188 296.867188 C 114.824219 297.664062 115.230469 298.425781 115.710938 299.144531 C 116.191406 299.863281 116.738281 300.53125 117.347656 301.140625 C 117.960938 301.753906 118.625 302.300781 119.347656 302.78125 C 120.066406 303.261719 120.824219 303.667969 121.625 304 C 122.425781 304.332031 123.246094 304.582031 124.097656 304.75 C 124.945312 304.917969 125.800781 305.003906 126.667969 305.003906 C 130.085938 305.035156 133.476562 304.742188 136.839844 304.125 C 140.203125 303.507812 143.480469 302.578125 146.664062 301.335938 C 149.851562 300.09375 152.890625 298.5625 155.785156 296.738281 C 158.679688 294.917969 161.375 292.839844 163.871094 290.503906 C 164.546875 289.816406 165.253906 289.164062 165.992188 288.546875 C 166.730469 287.929688 167.5 287.347656 168.296875 286.808594 C 169.09375 286.269531 169.917969 285.769531 170.765625 285.308594 C 171.609375 284.851562 172.476562 284.433594 173.367188 284.0625 C 174.253906 283.6875 175.160156 283.359375 176.078125 283.078125 C 177 282.796875 177.933594 282.558594 178.878906 282.367188 C 179.820312 282.179688 180.773438 282.035156 181.730469 281.941406 C 182.691406 281.84375 183.652344 281.796875 184.613281 281.796875 C 185.578125 281.796875 186.539062 281.84375 187.496094 281.941406 C 188.453125 282.035156 189.40625 282.179688 190.351562 282.367188 C 191.292969 282.558594 192.226562 282.796875 193.148438 283.078125 C 194.070312 283.359375 194.972656 283.6875 195.859375 284.0625 C 196.75 284.433594 197.617188 284.851562 198.464844 285.308594 C 199.3125 285.769531 200.132812 286.269531 200.929688 286.808594 C 201.726562 287.347656 202.496094 287.929688 203.234375 288.546875 C 203.976562 289.164062 204.683594 289.816406 205.355469 290.503906 C 206.613281 291.652344 207.921875 292.746094 209.277344 293.773438 C 210.636719 294.804688 212.039062 295.769531 213.488281 296.671875 C 214.933594 297.570312 216.421875 298.402344 217.945312 299.164062 C 219.46875 299.925781 221.027344 300.617188 222.613281 301.234375 C 224.203125 301.851562 225.816406 302.394531 227.457031 302.863281 C 229.09375 303.332031 230.75 303.722656 232.425781 304.039062 C 234.101562 304.351562 235.789062 304.585938 237.484375 304.746094 C 239.179688 304.902344 240.882812 304.980469 242.585938 304.980469 C 244.289062 304.980469 245.992188 304.902344 247.6875 304.746094 C 249.386719 304.585938 251.070312 304.351562 252.746094 304.039062 C 254.421875 303.722656 256.078125 303.332031 257.71875 302.863281 C 259.355469 302.394531 260.96875 301.851562 262.558594 301.234375 C 264.148438 300.617188 265.703125 299.925781 267.226562 299.164062 C 268.753906 298.402344 270.238281 297.570312 271.6875 296.671875 C 273.132812 295.769531 274.535156 294.804688 275.894531 293.773438 C 277.25 292.746094 278.558594 291.652344 279.816406 290.503906 C 280.492188 289.8125 281.203125 289.160156 281.945312 288.542969 C 282.683594 287.925781 283.457031 287.347656 284.253906 286.804688 C 285.054688 286.265625 285.878906 285.761719 286.726562 285.304688 C 287.574219 284.84375 288.445312 284.429688 289.335938 284.054688 C 290.226562 283.683594 291.132812 283.355469 292.054688 283.070312 C 292.976562 282.789062 293.910156 282.550781 294.855469 282.363281 C 295.804688 282.171875 296.757812 282.027344 297.71875 281.933594 C 298.675781 281.835938 299.640625 281.789062 300.605469 281.789062 C 301.570312 281.789062 302.53125 281.835938 303.492188 281.933594 C 304.453125 282.027344 305.40625 282.171875 306.351562 282.363281 C 307.300781 282.550781 308.234375 282.789062 309.15625 283.070312 C 310.078125 283.355469 310.984375 283.683594 311.875 284.054688 C 312.765625 284.429688 313.632812 284.84375 314.484375 285.304688 C 315.332031 285.761719 316.15625 286.265625 316.957031 286.804688 C 317.753906 287.347656 318.523438 287.925781 319.265625 288.542969 C 320.007812 289.160156 320.71875 289.8125 321.394531 290.503906 C 323.894531 292.839844 326.59375 294.917969 329.492188 296.742188 C 332.386719 298.566406 335.429688 300.097656 338.621094 301.339844 C 341.808594 302.582031 345.085938 303.515625 348.453125 304.132812 C 351.820312 304.75 355.214844 305.046875 358.636719 305.015625 C 359.503906 305.015625 360.359375 304.933594 361.207031 304.761719 C 362.054688 304.59375 362.878906 304.34375 363.679688 304.011719 C 364.480469 303.679688 365.238281 303.277344 365.957031 302.792969 C 366.679688 302.3125 367.34375 301.765625 367.957031 301.15625 C 368.566406 300.542969 369.113281 299.878906 369.59375 299.15625 C 370.074219 298.4375 370.480469 297.679688 370.8125 296.878906 C 371.144531 296.078125 371.394531 295.253906 371.5625 294.40625 C 371.730469 293.554688 371.816406 292.699219 371.816406 291.832031 C 371.816406 290.96875 371.730469 290.109375 371.5625 289.261719 C 371.394531 288.414062 371.144531 287.589844 370.8125 286.789062 C 370.480469 285.988281 370.074219 285.230469 369.59375 284.507812 C 369.113281 283.789062 368.566406 283.125 367.957031 282.511719 C 367.34375 281.898438 366.679688 281.355469 365.957031 280.871094 C 365.238281 280.390625 364.480469 279.984375 363.679688 279.65625 C 362.878906 279.324219 362.054688 279.074219 361.207031 278.90625 C 360.359375 278.734375 359.503906 278.652344 358.636719 278.652344 Z M 358.636719 278.652344 " fill-opacity="1" fill-rule="nonzero"/></g><g clip-path="url(#8c1200753b)"><path fill="#000000" d="M 312.511719 174.773438 C 314.453125 174.773438 316.390625 174.675781 318.324219 174.484375 C 320.257812 174.296875 322.175781 174.011719 324.082031 173.632812 C 325.988281 173.253906 327.867188 172.78125 329.726562 172.21875 C 331.585938 171.652344 333.410156 171 335.207031 170.257812 C 337 169.511719 338.753906 168.683594 340.46875 167.765625 C 342.179688 166.851562 343.84375 165.851562 345.460938 164.773438 C 347.074219 163.695312 348.632812 162.539062 350.132812 161.304688 C 351.636719 160.074219 353.074219 158.769531 354.445312 157.398438 C 355.820312 156.023438 357.121094 154.585938 358.355469 153.082031 C 359.585938 151.582031 360.742188 150.023438 361.820312 148.40625 C 362.898438 146.792969 363.898438 145.128906 364.8125 143.414062 C 365.726562 141.699219 366.558594 139.945312 367.300781 138.152344 C 368.042969 136.355469 368.699219 134.527344 369.261719 132.671875 C 369.824219 130.8125 370.296875 128.929688 370.675781 127.023438 C 371.054688 125.117188 371.339844 123.199219 371.53125 121.265625 C 371.71875 119.332031 371.816406 117.390625 371.816406 115.449219 C 371.816406 86.9375 331.132812 32.398438 322.976562 21.746094 C 322.65625 21.367188 322.316406 21.003906 321.957031 20.660156 C 321.597656 20.316406 321.222656 19.992188 320.828125 19.691406 C 320.433594 19.390625 320.023438 19.109375 319.597656 18.851562 C 319.171875 18.59375 318.734375 18.359375 318.285156 18.148438 C 317.832031 17.9375 317.371094 17.753906 316.902344 17.59375 C 316.429688 17.433594 315.953125 17.300781 315.46875 17.195312 C 314.984375 17.085938 314.492188 17.003906 314 16.953125 C 313.503906 16.898438 313.007812 16.871094 312.511719 16.871094 C 312.015625 16.871094 311.519531 16.898438 311.023438 16.953125 C 310.53125 17.003906 310.042969 17.085938 309.554688 17.195312 C 309.070312 17.300781 308.59375 17.433594 308.121094 17.59375 C 307.652344 17.753906 307.191406 17.9375 306.738281 18.148438 C 306.289062 18.359375 305.851562 18.59375 305.425781 18.851562 C 305 19.109375 304.589844 19.390625 304.195312 19.691406 C 303.800781 19.992188 303.425781 20.316406 303.066406 20.660156 C 302.707031 21.003906 302.367188 21.367188 302.046875 21.746094 C 293.890625 32.398438 253.207031 86.9375 253.207031 115.449219 C 253.207031 117.390625 253.304688 119.332031 253.492188 121.265625 C 253.683594 123.199219 253.96875 125.117188 254.347656 127.023438 C 254.726562 128.929688 255.199219 130.8125 255.761719 132.671875 C 256.324219 134.527344 256.980469 136.355469 257.722656 138.152344 C 258.464844 139.945312 259.296875 141.699219 260.210938 143.414062 C 261.125 145.128906 262.125 146.792969 263.203125 148.40625 C 264.28125 150.023438 265.4375 151.582031 266.667969 153.082031 C 267.902344 154.585938 269.203125 156.023438 270.578125 157.398438 C 271.953125 158.769531 273.390625 160.074219 274.890625 161.304688 C 276.390625 162.539062 277.949219 163.695312 279.566406 164.773438 C 281.179688 165.851562 282.84375 166.851562 284.554688 167.765625 C 286.269531 168.683594 288.023438 169.511719 289.816406 170.257812 C 291.613281 171 293.4375 171.652344 295.296875 172.21875 C 297.15625 172.78125 299.039062 173.253906 300.941406 173.632812 C 302.847656 174.011719 304.765625 174.296875 306.699219 174.484375 C 308.632812 174.675781 310.570312 174.773438 312.511719 174.773438 Z M 312.511719 52.171875 C 328.535156 75.03125 345.457031 103.585938 345.457031 115.449219 C 345.457031 116.527344 345.40625 117.605469 345.300781 118.679688 C 345.195312 119.753906 345.035156 120.820312 344.824219 121.878906 C 344.613281 122.9375 344.351562 123.984375 344.039062 125.015625 C 343.726562 126.050781 343.363281 127.066406 342.949219 128.0625 C 342.539062 129.058594 342.078125 130.035156 341.566406 130.984375 C 341.058594 131.9375 340.503906 132.863281 339.90625 133.757812 C 339.304688 134.65625 338.664062 135.523438 337.980469 136.355469 C 337.296875 137.191406 336.570312 137.992188 335.808594 138.753906 C 335.046875 139.515625 334.246094 140.242188 333.414062 140.925781 C 332.578125 141.609375 331.714844 142.253906 330.816406 142.851562 C 329.917969 143.453125 328.996094 144.007812 328.042969 144.515625 C 327.089844 145.023438 326.117188 145.484375 325.121094 145.898438 C 324.121094 146.3125 323.109375 146.675781 322.074219 146.988281 C 321.042969 147.300781 319.996094 147.5625 318.9375 147.773438 C 317.882812 147.984375 316.816406 148.140625 315.742188 148.246094 C 314.667969 148.351562 313.589844 148.40625 312.511719 148.40625 C 311.433594 148.40625 310.355469 148.351562 309.28125 148.246094 C 308.207031 148.140625 307.144531 147.984375 306.085938 147.773438 C 305.027344 147.5625 303.980469 147.300781 302.949219 146.988281 C 301.914062 146.675781 300.902344 146.3125 299.902344 145.898438 C 298.90625 145.484375 297.933594 145.023438 296.980469 144.515625 C 296.03125 144.007812 295.105469 143.453125 294.207031 142.851562 C 293.3125 142.253906 292.445312 141.609375 291.609375 140.925781 C 290.777344 140.242188 289.976562 139.515625 289.214844 138.753906 C 288.453125 137.992188 287.726562 137.191406 287.042969 136.355469 C 286.359375 135.523438 285.71875 134.65625 285.117188 133.757812 C 284.519531 132.863281 283.964844 131.9375 283.457031 130.984375 C 282.945312 130.035156 282.484375 129.058594 282.074219 128.0625 C 281.660156 127.066406 281.296875 126.050781 280.984375 125.015625 C 280.671875 123.984375 280.410156 122.9375 280.199219 121.878906 C 279.988281 120.820312 279.828125 119.753906 279.722656 118.679688 C 279.617188 117.605469 279.566406 116.527344 279.566406 115.449219 C 279.566406 103.585938 296.488281 75.03125 312.511719 52.171875 Z M 312.511719 52.171875 " fill-opacity="1" fill-rule="nonzero"/></g><g clip-path="url(#b88f246a02)"><path fill="#000000" d="M 21.660156 248.585938 C 21.363281 248.585938 21.109375 248.476562 20.902344 248.261719 C 20.714844 248.085938 20.503906 247.953125 20.269531 247.859375 C 20.035156 247.765625 19.789062 247.722656 19.539062 247.722656 C 19.285156 247.722656 19.042969 247.765625 18.808594 247.859375 C 18.574219 247.953125 18.363281 248.085938 18.175781 248.261719 L 18.15625 248.277344 C 17.449219 245.472656 14.003906 240.761719 13.851562 240.550781 C 13.75 240.429688 13.621094 240.367188 13.464844 240.367188 C 13.308594 240.367188 13.179688 240.429688 13.078125 240.550781 C 12.625 241.171875 8.644531 246.664062 8.644531 249.195312 C 8.644531 250.097656 8.871094 250.941406 9.328125 251.71875 C 9.785156 252.496094 10.40625 253.097656 11.191406 253.523438 C 11.976562 253.949219 12.8125 254.140625 13.703125 254.097656 C 14.589844 254.054688 15.40625 253.777344 16.144531 253.277344 C 16.253906 253.199219 16.324219 253.097656 16.347656 252.964844 C 16.375 252.828125 16.351562 252.707031 16.277344 252.59375 C 16.203125 252.480469 16.101562 252.414062 15.96875 252.386719 C 15.839844 252.359375 15.71875 252.382812 15.609375 252.460938 C 15.015625 252.863281 14.363281 253.082031 13.652344 253.117188 C 12.941406 253.152344 12.273438 253 11.644531 252.65625 C 11.019531 252.316406 10.523438 251.835938 10.15625 251.210938 C 9.789062 250.589844 9.609375 249.917969 9.609375 249.195312 C 9.609375 247.507812 12.109375 243.601562 13.464844 241.683594 C 14.398438 243.015625 16.742188 246.503906 17.230469 248.566406 C 17.011719 248.523438 16.820312 248.421875 16.65625 248.261719 C 16.472656 248.085938 16.261719 247.953125 16.027344 247.859375 C 15.792969 247.769531 15.546875 247.722656 15.296875 247.722656 C 15.042969 247.722656 14.800781 247.769531 14.566406 247.859375 C 14.332031 247.953125 14.121094 248.085938 13.933594 248.261719 C 13.726562 248.480469 13.472656 248.585938 13.175781 248.585938 C 13.042969 248.585938 12.929688 248.632812 12.835938 248.730469 C 12.742188 248.824219 12.695312 248.941406 12.695312 249.074219 C 12.695312 249.210938 12.742188 249.328125 12.835938 249.421875 C 12.929688 249.519531 13.042969 249.566406 13.175781 249.566406 C 13.699219 249.570312 14.152344 249.390625 14.539062 249.027344 C 14.636719 248.921875 14.753906 248.84375 14.882812 248.789062 C 15.015625 248.730469 15.152344 248.703125 15.296875 248.703125 C 15.4375 248.703125 15.574219 248.730469 15.707031 248.789062 C 15.839844 248.84375 15.953125 248.921875 16.054688 249.027344 C 16.242188 249.199219 16.453125 249.332031 16.6875 249.425781 C 16.921875 249.519531 17.164062 249.566406 17.417969 249.566406 C 17.667969 249.566406 17.914062 249.519531 18.148438 249.425781 C 18.382812 249.332031 18.59375 249.199219 18.777344 249.027344 C 18.878906 248.921875 18.996094 248.84375 19.128906 248.785156 C 19.257812 248.730469 19.398438 248.703125 19.539062 248.703125 C 19.683594 248.703125 19.820312 248.730469 19.953125 248.785156 C 20.082031 248.84375 20.199219 248.921875 20.300781 249.027344 C 20.683594 249.390625 21.136719 249.570312 21.660156 249.566406 C 21.792969 249.566406 21.90625 249.519531 22.003906 249.421875 C 22.097656 249.328125 22.144531 249.210938 22.144531 249.074219 C 22.144531 248.941406 22.097656 248.824219 22.003906 248.726562 C 21.90625 248.632812 21.792969 248.585938 21.660156 248.585938 Z M 21.660156 248.585938 " fill-opacity="1" fill-rule="nonzero"/></g><g clip-path="url(#13c7727a66)"><path fill="#000000" d="M 21.660156 250.605469 C 21.363281 250.609375 21.109375 250.5 20.902344 250.28125 C 20.714844 250.109375 20.503906 249.976562 20.269531 249.882812 C 20.035156 249.789062 19.789062 249.742188 19.539062 249.742188 C 19.285156 249.742188 19.042969 249.789062 18.808594 249.882812 C 18.574219 249.976562 18.363281 250.109375 18.175781 250.28125 C 18.074219 250.386719 17.960938 250.464844 17.828125 250.523438 C 17.695312 250.578125 17.558594 250.609375 17.417969 250.609375 C 17.273438 250.609375 17.136719 250.578125 17.003906 250.523438 C 16.871094 250.464844 16.757812 250.386719 16.65625 250.28125 C 16.46875 250.109375 16.261719 249.976562 16.023438 249.882812 C 15.789062 249.789062 15.546875 249.742188 15.292969 249.742188 C 15.042969 249.742188 14.800781 249.789062 14.5625 249.882812 C 14.328125 249.976562 14.117188 250.109375 13.933594 250.28125 C 13.726562 250.5 13.472656 250.609375 13.175781 250.605469 C 13.042969 250.605469 12.929688 250.65625 12.832031 250.75 C 12.738281 250.847656 12.691406 250.960938 12.691406 251.097656 C 12.691406 251.234375 12.738281 251.347656 12.832031 251.445312 C 12.929688 251.539062 13.042969 251.589844 13.175781 251.589844 C 13.699219 251.59375 14.152344 251.414062 14.535156 251.046875 C 14.636719 250.945312 14.75 250.863281 14.882812 250.808594 C 15.015625 250.753906 15.152344 250.722656 15.292969 250.722656 C 15.4375 250.722656 15.574219 250.753906 15.707031 250.808594 C 15.835938 250.863281 15.953125 250.945312 16.054688 251.046875 C 16.238281 251.222656 16.449219 251.355469 16.683594 251.449219 C 16.921875 251.542969 17.164062 251.589844 17.414062 251.589844 C 17.667969 251.589844 17.910156 251.542969 18.144531 251.449219 C 18.382812 251.355469 18.589844 251.222656 18.777344 251.046875 C 18.878906 250.945312 18.992188 250.863281 19.125 250.808594 C 19.257812 250.753906 19.394531 250.722656 19.539062 250.722656 C 19.679688 250.722656 19.820312 250.753906 19.949219 250.808594 C 20.082031 250.863281 20.199219 250.945312 20.300781 251.046875 C 20.683594 251.414062 21.136719 251.59375 21.660156 251.589844 C 21.792969 251.589844 21.90625 251.542969 22.003906 251.445312 C 22.097656 251.351562 22.144531 251.234375 22.144531 251.097656 C 22.144531 250.960938 22.097656 250.847656 22.003906 250.75 C 21.90625 250.65625 21.792969 250.605469 21.660156 250.605469 Z M 21.660156 250.605469 " fill-opacity="1" fill-rule="nonzero"/></g><g clip-path="url(#7ceeb0bc0c)"><path fill="#000000" d="M 19.972656 246.738281 C 20.261719 246.738281 20.539062 246.683594 20.804688 246.570312 C 21.070312 246.457031 21.304688 246.296875 21.507812 246.089844 C 21.710938 245.882812 21.867188 245.644531 21.976562 245.375 C 22.089844 245.105469 22.144531 244.824219 22.144531 244.53125 C 22.144531 243.46875 20.65625 241.4375 20.355469 241.039062 C 20.257812 240.917969 20.128906 240.859375 19.972656 240.859375 C 19.820312 240.859375 19.691406 240.917969 19.589844 241.039062 C 19.292969 241.4375 17.804688 243.46875 17.804688 244.53125 C 17.804688 244.824219 17.859375 245.105469 17.96875 245.375 C 18.078125 245.644531 18.234375 245.882812 18.441406 246.089844 C 18.644531 246.296875 18.878906 246.457031 19.144531 246.570312 C 19.410156 246.683594 19.6875 246.738281 19.972656 246.738281 Z M 19.972656 242.171875 C 20.558594 243.023438 21.179688 244.085938 21.179688 244.53125 C 21.179688 244.691406 21.148438 244.847656 21.085938 245 C 21.027344 245.148438 20.9375 245.28125 20.828125 245.398438 C 20.714844 245.511719 20.582031 245.601562 20.433594 245.664062 C 20.289062 245.726562 20.132812 245.757812 19.972656 245.757812 C 19.8125 245.757812 19.660156 245.726562 19.511719 245.664062 C 19.363281 245.601562 19.234375 245.511719 19.121094 245.398438 C 19.007812 245.28125 18.921875 245.148438 18.859375 245 C 18.800781 244.847656 18.769531 244.691406 18.769531 244.53125 C 18.769531 244.085938 19.386719 243.023438 19.972656 242.171875 Z M 19.972656 242.171875 " fill-opacity="1" fill-rule="nonzero"/></g></svg>